<svg xmlns="http://www.w3.org/2000/svg" width="42.539" height="25.003" viewBox="0 0 42.539 25.003">
  <g id="Group_11319" data-name="Group 11319" transform="translate(0 0)">
    <path id="Path_2462" data-name="Path 2462" d="M12.74,174.038a11.489,11.489,0,0,1-3.117,4.314c-2.064,1.623-2.949-.442-4.866-.442-1.328,0-2.161.991-3.234,1.06a21.349,21.349,0,0,1-.095-15.587c1.5.144,1.948.91,3.328.91,1.524,0,1.917-.934,3.834-.934a5.337,5.337,0,0,1,3.862,2.107,4.63,4.63,0,0,0,.286,8.572Z" transform="translate(-0.003 -158.765)" fill="#353535"/>
    <path id="Path_2463" data-name="Path 2463" d="M49.349,112.483c0,.124.006.246.016.367a4.423,4.423,0,0,0,4.276-4.42c0-.124-.006-.246-.016-.367A4.423,4.423,0,0,0,49.349,112.483Z" transform="translate(-45.249 -108.063)" fill="#353535"/>
    <path id="Path_2464" data-name="Path 2464" d="M184.1,164.59a.789.789,0,0,1,.873-.724h4.154c2.62,0,4.666,1.257,4.666,4.687v.17c0,3.409-2.109,4.708-4.793,4.708h-2.642v5.262c0,.49-.554.746-1.129.746-.554,0-1.129-.256-1.129-.746v-14.1Zm2.258,1.278v5.773H189c1.576,0,2.535-.895,2.535-2.769v-.256c0-1.875-.959-2.748-2.535-2.748Z" transform="translate(-168.802 -159.23)" fill="#353535"/>
    <path id="Path_2465" data-name="Path 2465" d="M307.364,232.357V237.7c0,.4-.469.746-1.087.746-.575,0-1.023-.341-1.023-.746v-.746a4.176,4.176,0,0,1-3.217,1.662,2.62,2.62,0,0,1-2.833-2.812c0-2.407,2.024-3.046,4.985-3.046h.937v-.383a2.075,2.075,0,0,0-2.109-2.3c-1.555,0-1.939.639-2.365.639-.533,0-.81-.618-.81-1.129,0-.767,1.768-1.363,3.217-1.363C306.193,228.224,307.364,230.227,307.364,232.357ZM305.127,234h-.533c-1.619,0-3.132.17-3.132,1.534a1.265,1.265,0,0,0,1.385,1.385,2.477,2.477,0,0,0,2.279-2.13V234Z" transform="translate(-274.346 -218.241)" fill="#353535"/>
    <path id="Path_2466" data-name="Path 2466" d="M400.548,229.331a.451.451,0,0,1-.085-.3c0-.575.873-1.065,1.47-1.065a.687.687,0,0,1,.682.4L405.3,235.3l2.3-6.924a.687.687,0,0,1,.639-.4c.533,0,1.491.469,1.491,1.108a.5.5,0,0,1-.042.256l-3.153,8.33c-.959,2.514-2,5.347-5.028,5.347-.575,0-1.044-.149-1.044-.959,0-.511.17-.959.618-.959,1.086,0,2.748-1.087,3.046-3.494Z" transform="translate(-367.191 -218.006)" fill="#353535"/>
  </g>
</svg>
