<svg xmlns="http://www.w3.org/2000/svg" width="30.337" height="30.337" viewBox="0 0 30.337 30.337">
  <g id="money" transform="translate(31.751 15.168) rotate(135)">
    <path id="Path_2413" data-name="Path 2413" d="M22.105,11.379H19.134L22.35,8.164a.346.346,0,0,0,0-.489L15.776,1.1a.346.346,0,0,0-.489,0L5.009,11.379H1.346A.346.346,0,0,0,1,11.725v9a.346.346,0,0,0,.346.346H6.393L7.675,22.35a.346.346,0,0,0,.489,0l1.283-1.283H22.105a.346.346,0,0,0,.346-.346v-9A.346.346,0,0,0,22.105,11.379ZM15.531,1.835,21.616,7.92l-3.46,3.46H15.514a3.8,3.8,0,0,0-7.578,0H5.987Zm-5.457,9.544a.692.692,0,0,1,.183-.632l.633.632Zm3.732,0a1.352,1.352,0,0,0-.124-.143,1.386,1.386,0,0,0-1.957,0l-.979-.978a.709.709,0,0,1,.978,0l.489-.489a1.384,1.384,0,0,0-1.957,0h0l-.245-.245-.489.489.245.245a1.373,1.373,0,0,0-.4,1.122H8.632a3.112,3.112,0,0,1,6.187,0H13.807ZM7.92,21.616l-.549-.549h1.1Zm13.839-1.241H1.692v-8.3H21.759Z" transform="translate(0 0)"/>
    <path id="Path_2414" data-name="Path 2414" d="M27.692,40.806H27a1.385,1.385,0,0,0,1.384,1.384v.346h.692V42.19a1.384,1.384,0,1,0,0-2.768V38.038a.693.693,0,0,1,.692.692h.692a1.385,1.385,0,0,0-1.384-1.384V37h-.692v.346a1.384,1.384,0,1,0,0,2.768V41.5A.693.693,0,0,1,27.692,40.806Zm0-2.076a.693.693,0,0,1,.692-.692v1.384A.693.693,0,0,1,27.692,38.73Zm1.384,1.384a.692.692,0,1,1,0,1.384Z" transform="translate(-17.004 -23.545)"/>
    <path id="Path_2415" data-name="Path 2415" d="M24.806,41.612A3.806,3.806,0,1,0,21,37.806,3.81,3.81,0,0,0,24.806,41.612Zm0-6.92a3.114,3.114,0,1,1-3.114,3.114A3.117,3.117,0,0,1,24.806,34.692Z" transform="translate(-13.08 -21.583)"/>
    <path id="Path_2416" data-name="Path 2416" d="M50.5,41.574V35.346A.346.346,0,0,0,50.152,35H46v.692h3.806v5.536H46v.692h4.152A.346.346,0,0,0,50.5,41.574Z" transform="translate(-29.431 -22.237)"/>
    <path id="Path_2417" data-name="Path 2417" d="M5.346,41.92H9.5v-.692H5.692V35.692H9.5V35H5.346A.346.346,0,0,0,5,35.346v6.228A.346.346,0,0,0,5.346,41.92Z" transform="translate(-2.616 -22.237)"/>
    <path id="Path_2418" data-name="Path 2418" d="M46,49h.692v.692H46Z" transform="translate(-29.431 -31.393)"/>
    <path id="Path_2419" data-name="Path 2419" d="M50,49h.692v.692H50Z" transform="translate(-32.047 -31.393)"/>
    <path id="Path_2420" data-name="Path 2420" d="M46,39h.692v.692H46Z" transform="translate(-29.431 -24.853)"/>
    <path id="Path_2421" data-name="Path 2421" d="M50,39h.692v.692H50Z" transform="translate(-32.047 -24.853)"/>
    <path id="Path_2422" data-name="Path 2422" d="M37.26,7.843l3.914,3.914-2.691,2.691.489.489L41.908,12a.346.346,0,0,0,0-.489l-4.4-4.4a.356.356,0,0,0-.489,0L34.08,10.045l.489.489Z" transform="translate(-21.635 -3.932)"/>
    <path id="Path_2423" data-name="Path 2423" d="M0,0H.692V.692H0Z" transform="translate(15.868 9.539) rotate(-45)"/>
    <path id="Path_2424" data-name="Path 2424" d="M0,0H.692V.692H0Z" transform="translate(16.846 8.56) rotate(-45)"/>
    <path id="Path_2425" data-name="Path 2425" d="M0,0H.692V.692H0Z" transform="translate(13.422 7.092) rotate(-45)"/>
    <path id="Path_2426" data-name="Path 2426" d="M0,0H.692V.692H0Z" transform="translate(14.4 6.114) rotate(-45)"/>
    <path id="Path_2427" data-name="Path 2427" d="M12,39h.692v.692H12Z" transform="translate(-7.194 -24.853)"/>
    <path id="Path_2428" data-name="Path 2428" d="M16,39h.692v.692H16Z" transform="translate(-9.81 -24.853)"/>
    <path id="Path_2429" data-name="Path 2429" d="M12,49h.692v.692H12Z" transform="translate(-7.194 -31.393)"/>
    <path id="Path_2430" data-name="Path 2430" d="M16,49h.692v.692H16Z" transform="translate(-9.81 -31.393)"/>
  </g>
</svg>
