<svg id="feather_calender" data-name="feather / calender" xmlns="http://www.w3.org/2000/svg" xmlns:xlink="http://www.w3.org/1999/xlink" width="16" height="16" viewBox="0 0 16 16">
  <defs>
    <clipPath id="clip-path">
      <path id="Combined_Shape" data-name="Combined Shape" d="M1.8,14A1.859,1.859,0,0,1,0,12.091V3.181A1.859,1.859,0,0,1,1.8,1.273H3V.636A.6.6,0,1,1,4.2.562l0,.074v.636H7.8V.636A.6.6,0,1,1,9,.562L9,.636v.636h1.2A1.859,1.859,0,0,1,12,3.181v8.909A1.859,1.859,0,0,1,10.2,14Zm-.6-1.909a.619.619,0,0,0,.6.636h8.4a.619.619,0,0,0,.6-.636V6.364H1.2Zm9.6-7V3.181a.62.62,0,0,0-.6-.636H9v.637a.6.6,0,1,1-1.2.074l0-.074V2.545H4.2v.637A.6.6,0,1,1,3,3.256l0-.074V2.545H1.8a.62.62,0,0,0-.6.636V5.091Z" fill="#18191f"/>
    </clipPath>
  </defs>
  <g id="Group_5" data-name="Group 5" transform="translate(2 1)">
    <path id="Combined_Shape-2" data-name="Combined Shape" d="M1.8,14A1.859,1.859,0,0,1,0,12.091V3.181A1.859,1.859,0,0,1,1.8,1.273H3V.636A.6.6,0,1,1,4.2.562l0,.074v.636H7.8V.636A.6.6,0,1,1,9,.562L9,.636v.636h1.2A1.859,1.859,0,0,1,12,3.181v8.909A1.859,1.859,0,0,1,10.2,14Zm-.6-1.909a.619.619,0,0,0,.6.636h8.4a.619.619,0,0,0,.6-.636V6.364H1.2Zm9.6-7V3.181a.62.62,0,0,0-.6-.636H9v.637a.6.6,0,1,1-1.2.074l0-.074V2.545H4.2v.637A.6.6,0,1,1,3,3.256l0-.074V2.545H1.8a.62.62,0,0,0-.6.636V5.091Z" fill="#18191f"/>
    <g id="Mask_Group_5" data-name="Mask Group 5" clip-path="url(#clip-path)">
      <g id="COLOR_black" data-name="COLOR/ black" transform="translate(-1.2 -0.636)">
        <rect id="Rectangle" width="14.4" height="15.273" fill="#18191f"/>
      </g>
    </g>
  </g>
</svg>
