<svg xmlns="http://www.w3.org/2000/svg" width="37.515" height="22.555" viewBox="0 0 37.515 22.555">
  <g id="Group_11980" data-name="Group 11980" transform="translate(0.25 0.25)" opacity="0.4">
    <g id="Group_11276" data-name="Group 11276">
      <path id="Path_2431" data-name="Path 2431" d="M.578,117.145a.578.578,0,0,1,.578.578v4.053h.92a3.655,3.655,0,0,1,7.264,0H21.4V105H1.157v1.819a.578.578,0,1,1-1.157,0v-2.4a.578.578,0,0,1,.578-.578h21.4a.578.578,0,0,1,.578.578V105H29.18a2.634,2.634,0,0,1,2.63,2.63v.84a.578.578,0,0,1-.578.578h-.673l.441,5.3a2.629,2.629,0,0,1,1.966,2.535v4.888a.578.578,0,0,1-.578.578H31.217a3.756,3.756,0,0,1-7.49,0c-.005,0-.009,0-.014,0H22.556a.578.578,0,0,1-.578.578H9.289a3.656,3.656,0,0,1-7.159,0H.578A.578.578,0,0,1,0,122.357v-4.634A.578.578,0,0,1,.578,117.145Zm26.894,7.523a2.6,2.6,0,1,0-2.6-2.6A2.6,2.6,0,0,0,27.472,124.668Zm-4.916-3.47h1.157a.531.531,0,0,1,.1.02,3.755,3.755,0,0,1,7.313-.02h.684v-4.31a1.475,1.475,0,0,0-1.474-1.474h-7.78Zm0-6.94h7.276l-.434-5.205H22.556Zm0-6.362h8.1v-.261a1.475,1.475,0,0,0-1.474-1.474H22.556ZM3.213,122.331a2.5,2.5,0,0,0,2.5,2.355h0a2.5,2.5,0,0,0,2.457-2.072.52.52,0,0,1,.029-.563,2.5,2.5,0,1,0-4.982.28Z" transform="translate(4.049 -103.847)" stroke="#1f1f1f" stroke-width="0.5"/>
      <path id="Path_2432" data-name="Path 2432" d="M320.578,167.847h8.1a.578.578,0,0,1,0,1.157h-8.1a.578.578,0,0,1,0-1.157Z" transform="translate(-315.373 -163.22)" stroke="#1f1f1f" stroke-width="0.5"/>
      <path id="Path_2433" data-name="Path 2433" d="M272.578,255.847H285.3a.578.578,0,0,1,0,1.157H272.578a.578.578,0,0,1,0-1.157Z" transform="translate(-268.53 -244.858)" stroke="#1f1f1f" stroke-width="0.5"/>
      <path id="Path_2434" data-name="Path 2434" d="M344.578,207.847h6.362a.578.578,0,1,1,0,1.157h-6.362a.578.578,0,1,1,0-1.157Z" transform="translate(-339.373 -200.328)" stroke="#1f1f1f" stroke-width="0.5"/>
      <path id="Path_2435" data-name="Path 2435" d="M465.735,169h-1.157a.578.578,0,1,1,0-1.157h1.157a.578.578,0,1,1,0,1.157Z" transform="translate(-462.843 -163.22)" stroke="#1f1f1f" stroke-width="0.5"/>
      <path id="Path_2436" data-name="Path 2436" d="M472.578,255.847h1.157a.578.578,0,0,1,0,1.157h-1.157a.578.578,0,1,1,0-1.157Z" transform="translate(-471.422 -244.858)" stroke="#1f1f1f" stroke-width="0.5"/>
      <path id="Path_2437" data-name="Path 2437" d="M464.578,207.847h2.313a.578.578,0,1,1,0,1.157h-2.313a.578.578,0,1,1,0-1.157Z" transform="translate(-464 -200.328)" stroke="#1f1f1f" stroke-width="0.5"/>
    </g>
  </g>
</svg>
