<svg xmlns="http://www.w3.org/2000/svg" width="18" height="14.516" viewBox="0 0 18 14.516">
  <g id="Layer_6" data-name="Layer 6" transform="translate(-1 -7)">
    <path id="Path_7033" data-name="Path 7033" d="M18.71,18.032h-.29v-2.2a3.016,3.016,0,0,0-1.086-2.323,3.06,3.06,0,0,0-.656-.409l-.055-.29h.636a.871.871,0,0,0,.871-.871v-.581a.871.871,0,0,0-.871-.871H16.152l-.319-1.611A2.323,2.323,0,0,0,13.554,7H6.446A2.323,2.323,0,0,0,4.167,8.873l-.319,1.611H2.742a.871.871,0,0,0-.871.871v.581a.871.871,0,0,0,.871.871h.65l-.055.29a3.06,3.06,0,0,0-.671.421A3.016,3.016,0,0,0,1.581,15.84v2.192H1.29a.29.29,0,0,0-.29.29v1.161a.29.29,0,0,0,.29.29H2.742v.871a.871.871,0,0,0,.871.871H5.935a.871.871,0,0,0,.871-.871v-.871h6.387v.871a.871.871,0,0,0,.871.871h2.323a.871.871,0,0,0,.871-.871v-.871H18.71a.29.29,0,0,0,.29-.29V18.323A.29.29,0,0,0,18.71,18.032Zm-1.452-6.968a.29.29,0,0,1,.29.29v.581a.29.29,0,0,1-.29.29h-.764l-.229-1.161Zm-3.7-3.484a1.742,1.742,0,0,1,1.295.581h-9.7a1.742,1.742,0,0,1,1.295-.581ZM2.742,12.226a.29.29,0,0,1-.29-.29v-.581a.29.29,0,0,1,.29-.29h.993l-.229,1.161Zm1.995-3.24a2.151,2.151,0,0,1,.07-.244H15.194a2.152,2.152,0,0,1,.07.244l.766,3.89a3.063,3.063,0,0,0-.633-.07H4.6a3.063,3.063,0,0,0-.633.07ZM2.161,15.829A2.439,2.439,0,0,1,4.6,13.387H15.4a2.439,2.439,0,0,1,2.442,2.442v2.2H12.613V15.419a.871.871,0,0,0-.871-.871H8.258a.871.871,0,0,0-.871.871v2.613H2.161Zm9.871-.119H7.968v-.29a.29.29,0,0,1,.29-.29h3.484a.29.29,0,0,1,.29.29Zm-4.065.581h4.065v.581H7.968Zm0,1.161h4.065v.581H7.968ZM6.226,20.645a.29.29,0,0,1-.29.29H3.613a.29.29,0,0,1-.29-.29v-.871h2.9Zm10.452,0a.29.29,0,0,1-.29.29H14.065a.29.29,0,0,1-.29-.29v-.871h2.9Zm1.742-1.452H1.581v-.581H18.419Z" transform="translate(0 0)"/>
    <path id="Path_7034" data-name="Path 7034" d="M9.032,34C7.894,34,7,34.581,7,35.306s.894,1.306,2.032,1.306,2.032-.581,2.032-1.306S10.17,34,9.032,34Zm0,2.032c-.856,0-1.452-.383-1.452-.726s.6-.726,1.452-.726,1.452.383,1.452.726S9.9,36.032,9.032,36.032Z" transform="translate(-4.258 -19.161)"/>
    <path id="Path_7035" data-name="Path 7035" d="M45.032,36.613c1.138,0,2.032-.581,2.032-1.306S46.17,34,45.032,34,43,34.581,43,35.306,43.894,36.613,45.032,36.613Zm0-2.032c.871,0,1.452.383,1.452.726s-.581.726-1.452.726-1.452-.383-1.452-.726S44.176,34.581,45.032,34.581Z" transform="translate(-29.806 -19.161)"/>
    <rect id="Rectangle_26337" data-name="Rectangle 26337" width="2.465" height="0.581" transform="translate(6.602 11.729) rotate(-45)"/>
    <rect id="Rectangle_26338" data-name="Rectangle 26338" width="2.465" height="0.581" transform="translate(8.923 11.73) rotate(-45)"/>
    <rect id="Rectangle_26339" data-name="Rectangle 26339" width="2.465" height="0.581" transform="translate(11.248 11.731) rotate(-45)"/>
  </g>
</svg>
