<svg xmlns="http://www.w3.org/2000/svg" width="32.261" height="32.27" viewBox="0 0 32.261 32.27">
  <g id="pay" transform="translate(32.471 11.925) rotate(120)">
    <g id="Group_999" data-name="Group 999" transform="translate(0 0.243)">
      <g id="Group_998" data-name="Group 998" transform="translate(0 0)">
        <path id="Path_2406" data-name="Path 2406" d="M23.467,8.72l-2.64-6.864A2.518,2.518,0,0,0,17.571.412l-.056.022L4.321,5.9A2.506,2.506,0,0,0,2.929,9.111l.363.968H2.459A2.462,2.462,0,0,0,0,12.538v8.853a2.462,2.462,0,0,0,2.459,2.459H19.182a2.462,2.462,0,0,0,2.459-2.459V12.538a2.417,2.417,0,0,0-.035-.4l.457-.185A2.528,2.528,0,0,0,23.467,8.72ZM2.459,10.866H19.182a1.67,1.67,0,0,1,1.662,1.574H.8A1.67,1.67,0,0,1,2.459,10.866ZM6.414,8.5l2.63-1.315.541,1.352L6.955,9.848Zm14.44,12.9a1.674,1.674,0,0,1-1.672,1.672H2.459A1.674,1.674,0,0,1,.787,21.392V16.375H20.854Zm0-5.8H.787V13.227H20.854Zm.913-4.36-.411.166a2.46,2.46,0,0,0-2.174-1.315H8.252l2.009-1a.394.394,0,0,0,.19-.5L9.616,6.491A.394.394,0,0,0,9.1,6.272l-.03.013L5.738,7.954a.394.394,0,0,0-.189.5L6.2,10.079H4.131L3.666,8.837a1.723,1.723,0,0,1,.957-2.2L17.816,1.164a1.729,1.729,0,0,1,2.259.935l.017.041L22.732,9A1.737,1.737,0,0,1,21.767,11.228Z" transform="translate(0 -0.243)"/>
        <path id="Path_2407" data-name="Path 2407" d="M265.055,356.632a2.361,2.361,0,1,0-.855-3.227A2.361,2.361,0,0,0,265.055,356.632Zm3.03-3.519a1.574,1.574,0,1,1,0,2.956A2.351,2.351,0,0,0,268.084,353.112Zm-.658.448a1.545,1.545,0,0,1,0,2.06A1.545,1.545,0,0,1,267.426,353.56Zm-1.18-.544a1.558,1.558,0,0,1,.523.1,2.351,2.351,0,0,0,0,2.956,1.558,1.558,0,0,1-.523.1,1.574,1.574,0,1,1,0-3.148Z" transform="translate(-250.901 -334.917)"/>
        <rect id="Rectangle_91" data-name="Rectangle 91" width="0.787" height="4.108" transform="translate(16.917 8.839) rotate(-113.966)"/>
        <rect id="Rectangle_92" data-name="Rectangle 92" width="5.971" height="0.787" transform="matrix(0.908, -0.419, 0.419, 0.908, 14.092, 7.288)"/>
      </g>
    </g>
  </g>
</svg>
