<svg id="delivery-truck" xmlns="http://www.w3.org/2000/svg" width="32" height="19.019" viewBox="0 0 32 19.019">
  <g id="Group_11277" data-name="Group 11277">
    <g id="Group_11276" data-name="Group 11276">
      <path id="Path_2431" data-name="Path 2431" d="M.5,115.343a.5.5,0,0,1,.5.5v3.5h.8a3.16,3.16,0,0,1,6.28,0H18.5v-14.5H1v1.573a.5.5,0,0,1-1,0v-2.073a.5.5,0,0,1,.5-.5H19a.5.5,0,0,1,.5.5v.5h5.726a2.277,2.277,0,0,1,2.274,2.274v.726a.5.5,0,0,1-.5.5h-.581l.381,4.582a2.272,2.272,0,0,1,1.7,2.192v4.226a.5.5,0,0,1-.5.5H26.987a3.247,3.247,0,0,1-6.475,0l-.012,0h-1a.5.5,0,0,1-.5.5H8.03a3.161,3.161,0,0,1-6.189,0H.5a.5.5,0,0,1-.5-.5v-4.006A.5.5,0,0,1,.5,115.343Zm23.25,6.5a2.25,2.25,0,1,0-2.25-2.25A2.25,2.25,0,0,0,23.75,121.847Zm-4.25-3h1a.459.459,0,0,1,.087.018,3.246,3.246,0,0,1,6.323-.018H27.5v-3.726a1.276,1.276,0,0,0-1.274-1.274H19.5Zm0-6h6.29l-.375-4.5H19.5Zm0-5.5h7v-.226a1.276,1.276,0,0,0-1.274-1.274H19.5ZM2.778,119.827a2.157,2.157,0,0,0,2.157,2.036h0a2.16,2.16,0,0,0,2.124-1.791.45.45,0,0,1,.025-.487,2.157,2.157,0,1,0-4.307.242Z" transform="translate(3.5 -103.847)"/>
      <path id="Path_2432" data-name="Path 2432" d="M320.5,167.847h7a.5.5,0,0,1,0,1h-7a.5.5,0,0,1,0-1Z" transform="translate(-316 -163.847)"/>
      <path id="Path_2433" data-name="Path 2433" d="M272.5,255.847h11a.5.5,0,0,1,0,1h-11a.5.5,0,0,1,0-1Z" transform="translate(-269 -246.347)"/>
      <path id="Path_2434" data-name="Path 2434" d="M344.5,207.847H350a.5.5,0,0,1,0,1h-5.5a.5.5,0,0,1,0-1Z" transform="translate(-340 -201.347)"/>
      <path id="Path_2435" data-name="Path 2435" d="M465.5,168.847h-1a.5.5,0,0,1,0-1h1a.5.5,0,0,1,0,1Z" transform="translate(-463 -163.847)"/>
      <path id="Path_2436" data-name="Path 2436" d="M472.5,255.847h1a.5.5,0,0,1,0,1h-1a.5.5,0,0,1,0-1Z" transform="translate(-471.5 -246.347)"/>
      <path id="Path_2437" data-name="Path 2437" d="M464.5,207.847h2a.5.5,0,0,1,0,1h-2a.5.5,0,0,1,0-1Z" transform="translate(-464 -201.347)"/>
    </g>
  </g>
</svg>
