<svg xmlns="http://www.w3.org/2000/svg" xmlns:xlink="http://www.w3.org/1999/xlink" width="123.991" height="159.461" viewBox="0 0 123.991 159.461">
  <defs>
    <clipPath id="clip-path">
      <path id="Combined_Shape" data-name="Combined Shape" d="M66.437,71.575,53.08,58.215a32.721,32.721,0,1,1,5.136-5.136l13.36,13.357a3.633,3.633,0,0,1-5.138,5.138ZM7.263,32.687A25.424,25.424,0,1,0,32.687,7.263,25.452,25.452,0,0,0,7.263,32.687Z" fill="#0097fe"/>
    </clipPath>
  </defs>
  <g id="Group_12135" data-name="Group 12135" transform="translate(-126 -337.186)">
    <g id="shop" transform="translate(126 372.655)" opacity="0.5">
      <path id="Path_636" data-name="Path 636" d="M142.323,176.557,36,176.46l0,.131V255.3H142.555V176.591Z" transform="translate(-27.282 -133.727)" fill="#fff"/>
      <path id="Path_645" data-name="Path 645" d="M408.422,426a2.422,2.422,0,1,0,2.422,2.422A2.423,2.423,0,0,0,408.422,426Z" transform="translate(-307.679 -322.835)" fill="#0097fe"/>
      <path id="Path_646" data-name="Path 646" d="M108.008,11.487V7.265A7.273,7.273,0,0,0,100.743,0H23.248a7.273,7.273,0,0,0-7.265,7.265v4.222C.187,40.66,0,39.793,0,41.166v4.846A12.053,12.053,0,0,0,6.3,56.334V121.57a2.422,2.422,0,0,0,2.422,2.422H115.273a2.422,2.422,0,0,0,2.422-2.422V56.334a12.188,12.188,0,0,0,6.3-10.321V41.166C123.991,39.778,123.65,40.375,108.008,11.487ZM19.837,14.53h9.738L21.5,38.747H6.517Zm24.77,0L40.57,38.747H26.608L34.681,14.53Zm29.868,0,4.036,24.217H64.417V14.53Zm14.836,0,8.072,24.217H83.421L79.385,14.53ZM59.574,38.747H45.481L49.517,14.53H59.574Zm-33.9,4.843H40.2v2.422a7.265,7.265,0,1,1-14.53,0Zm19.374,0h14.53v2.422a7.265,7.265,0,1,1-14.53,0Zm19.374,0h14.53v2.422a7.265,7.265,0,1,1-14.53,0Zm19.374,0h14.53v2.422a7.265,7.265,0,1,1-14.53,0Zm18.7-4.843L94.416,14.53h9.738l13.319,24.217ZM20.827,7.265a2.424,2.424,0,0,1,2.422-2.422h77.495a2.424,2.424,0,0,1,2.422,2.422V9.687H20.827ZM4.843,43.591H20.827v2.422c0,3.8-3.809,7.265-7.992,7.265a8.117,8.117,0,0,1-3.164-.664,7.532,7.532,0,0,1-4.827-6.6ZM49.887,93.478H25.67V72.651H49.887ZM25.67,98.321H49.887v20.827H25.67Zm29.061,20.827V70.23a2.422,2.422,0,0,0-2.422-2.422H23.248a2.422,2.422,0,0,0-2.422,2.422v48.919H11.14V58a12.583,12.583,0,0,0,1.7.118,13.349,13.349,0,0,0,8.839-3.464A13.093,13.093,0,0,0,23.129,53.1a12.093,12.093,0,0,0,19.493.166,12.1,12.1,0,0,0,19.374,0,12.1,12.1,0,0,0,19.374,0,12.093,12.093,0,0,0,19.493-.166,13.111,13.111,0,0,0,1.455,1.553,13.349,13.349,0,0,0,8.839,3.464,12.53,12.53,0,0,0,1.7-.117v61.145Zm64.417-73.136a7.538,7.538,0,0,1-5.007,6.678,8.046,8.046,0,0,1-2.985.587c-4.183,0-7.992-3.463-7.992-7.265V43.591h15.983Z" fill="#0097fe"/>
      <path id="Path_647" data-name="Path 647" d="M307.169,305.67h-2.422V282.422A2.422,2.422,0,0,0,302.326,280h-29.06a2.422,2.422,0,0,0-2.422,2.422V305.67h-2.422a2.422,2.422,0,0,0,0,4.843h38.747a2.422,2.422,0,1,0,0-4.843Zm-31.482-20.827H299.9V305.67H275.687Z" transform="translate(-201.583 -212.192)" fill="#0097fe"/>
      <path id="Path_648" data-name="Path 648" d="M307.8,426H288.422a2.422,2.422,0,1,0,0,4.843H307.8a2.422,2.422,0,0,0,0-4.843Z" transform="translate(-216.739 -322.835)" fill="#0097fe"/>
    </g>
    <g id="Group_12033" data-name="Group 12033" transform="translate(150.392 337.186)" opacity="0.5">
      <path id="Combined_Shape-2" data-name="Combined Shape" d="M66.437,71.575,53.08,58.215a32.721,32.721,0,1,1,5.136-5.136l13.36,13.357a3.633,3.633,0,0,1-5.138,5.138ZM7.263,32.687A25.424,25.424,0,1,0,32.687,7.263,25.452,25.452,0,0,0,7.263,32.687Z" fill="#0097fe"/>
      <g id="Mask_Group_44" data-name="Mask Group 44" clip-path="url(#clip-path)">
        <g id="COLOR_black" data-name="COLOR/ black" transform="translate(-7.264 -7.264)">
          <rect id="Rectangle" width="87.166" height="87.165" fill="#0097fe"/>
        </g>
      </g>
    </g>
  </g>
</svg>
