<svg xmlns="http://www.w3.org/2000/svg" width="18" height="22.001" viewBox="0 0 18 22.001">
  <path id="Shape" d="M16.872,22a1.131,1.131,0,0,1-.65-.207L9,16.751l-7.22,5.043a1.132,1.132,0,0,1-.65.207,1.161,1.161,0,0,1-.783-.307A1.072,1.072,0,0,1,0,20.9V3.3A3.342,3.342,0,0,1,3.376,0H14.625A3.342,3.342,0,0,1,18,3.3V20.9A1.119,1.119,0,0,1,16.872,22ZM9,14.3a1.134,1.134,0,0,1,.653.2l6.1,4.258V3.3a1.113,1.113,0,0,0-1.125-1.1H3.376A1.113,1.113,0,0,0,2.251,3.3V18.762L8.345,14.5A1.143,1.143,0,0,1,9,14.3Z"/>
</svg>
