<svg id="feather_bookmark" data-name="feather / bookmark" xmlns="http://www.w3.org/2000/svg" width="14" height="18.001" viewBox="0 0 14 18.001">
  <path id="Shape" d="M13.122,18a.85.85,0,0,1-.506-.17L7,13.705,1.384,17.832A.851.851,0,0,1,.878,18a.879.879,0,0,1-.609-.251A.9.9,0,0,1,0,17.1V2.7A2.666,2.666,0,0,1,2.625,0h8.75A2.666,2.666,0,0,1,14,2.7V17.1A.892.892,0,0,1,13.122,18ZM7,11.7a.853.853,0,0,1,.508.167l4.742,3.484V2.7a.888.888,0,0,0-.875-.9H2.625a.888.888,0,0,0-.875.9V15.351l4.74-3.484A.859.859,0,0,1,7,11.7Z" fill="#18191f"/>
</svg>
