<svg xmlns="http://www.w3.org/2000/svg" xmlns:xlink="http://www.w3.org/1999/xlink" width="239.798" height="254.524" viewBox="0 0 239.798 254.524">
  <defs>
    <clipPath id="clip-path">
      <rect width="239.798" height="254.524" fill="none"/>
    </clipPath>
  </defs>
  <g id="Scroll_Group_1" data-name="Scroll Group 1" clip-path="url(#clip-path)" style="isolation: isolate">
    <g id="Group_12135" data-name="Group 12135" transform="translate(-68 -242.638)">
      <g id="person-forget" transform="translate(-35.78 92.74)">
        <g id="Forgot_password-amico_1_" data-name="Forgot password-amico (1)" transform="translate(256.062 149.898)">
          <g id="freepik--question-marks--inject-3" transform="translate(0 0)">
            <g id="freepik--question-marks--inject-3-2" data-name="freepik--question-marks--inject-3">
              <path id="Path_535" data-name="Path 535" d="M251.615,38.486a23.47,23.47,0,0,1,6.18,2.327,17.753,17.753,0,0,1,4.916,3.9,14.086,14.086,0,0,1,2.9,5.254,12.51,12.51,0,0,1,.125,6.368,12.959,12.959,0,0,1-1.939,4.654,15.824,15.824,0,0,1-3.052,3.2,24.334,24.334,0,0,1-3.64,2.339l-3.6,1.914a19.716,19.716,0,0,0-3.077,1.989,5.9,5.9,0,0,0-1.927,2.59,2.753,2.753,0,0,1-.913,1.176,1.6,1.6,0,0,1-1.376.288l-5.3-1.176a1.964,1.964,0,0,1-1.251-.863,1.614,1.614,0,0,1-.238-1.439,12.66,12.66,0,0,1,2.214-4.529,17.665,17.665,0,0,1,3.253-3.165,26.16,26.16,0,0,1,3.753-2.289c1.251-.638,2.5-1.251,3.59-1.864a16.263,16.263,0,0,0,2.84-1.939,4.516,4.516,0,0,0,1.514-2.5,5.4,5.4,0,0,0-1.251-4.854,9.7,9.7,0,0,0-5.555-3.015q-5.93-1.314-10.008,3.991a3.84,3.84,0,0,1-.976.988,1.839,1.839,0,0,1-1.389.1l-5.642-1.251a1.551,1.551,0,0,1-.988-.651,1.526,1.526,0,0,1-.213-1.251,11.185,11.185,0,0,1,2.6-4.654,17.426,17.426,0,0,1,4.866-3.753,21.03,21.03,0,0,1,6.393-2.127A18.64,18.64,0,0,1,251.615,38.486Zm-5.992,40.257a1.952,1.952,0,0,1,1.464,2.3l-1.351,6.13a1.852,1.852,0,0,1-.851,1.251,1.827,1.827,0,0,1-1.451.275l-6.055-1.389a1.814,1.814,0,0,1-1.251-.851,1.864,1.864,0,0,1-.263-1.451l1.364-6.13a1.964,1.964,0,0,1,2.3-1.476Z" transform="translate(-230.509 -38.007)" fill="#fff"/>
              <path id="Path_536" data-name="Path 536" d="M254.928,85.341a16.339,16.339,0,0,1,4.554-.088,12.51,12.51,0,0,1,4.153,1.251,10.008,10.008,0,0,1,3.2,2.627,9.47,9.47,0,0,1,1.651,7.506,10.475,10.475,0,0,1-1.138,2.84,15.809,15.809,0,0,1-1.726,2.427c-.638.751-1.251,1.464-1.814,2.152a13.579,13.579,0,0,0-1.464,2.064,3.865,3.865,0,0,0-.576,2.139,2.114,2.114,0,0,1-.288,1,1.176,1.176,0,0,1-.813.525l-3.753.6a1.339,1.339,0,0,1-1.013-.225,1.1,1.1,0,0,1-.513-.863,8.519,8.519,0,0,1,.25-3.478,12.275,12.275,0,0,1,1.251-2.852,16.6,16.6,0,0,1,1.8-2.414c.663-.751,1.251-1.451,1.826-2.127a10.647,10.647,0,0,0,1.326-1.964,3.14,3.14,0,0,0,.338-1.977,3.753,3.753,0,0,0-2.064-2.79,6.743,6.743,0,0,0-4.329-.525,6.48,6.48,0,0,0-5.417,5.142A2.827,2.827,0,0,1,250,97.2a1.326,1.326,0,0,1-.851.413l-3.953.638a1.076,1.076,0,0,1-.8-.163,1.026,1.026,0,0,1-.438-.726,7.506,7.506,0,0,1,.563-3.64,12,12,0,0,1,2.152-3.653,14.71,14.71,0,0,1,3.553-3A13.035,13.035,0,0,1,254.928,85.341Zm6.455,27.335a1.326,1.326,0,0,1,.988.238,1.251,1.251,0,0,1,.55.863l.7,4.291a1.339,1.339,0,0,1-1.1,1.526l-4.191.688a1.339,1.339,0,0,1-.988-.238,1.251,1.251,0,0,1-.538-.863l-.7-4.291a1.341,1.341,0,0,1,1.1-1.526Z" transform="translate(-227.142 -26.177)" fill="#fff"/>
              <g id="Group_342" data-name="Group 342" transform="translate(16.781 58.958)" opacity="0.2">
                <path id="Path_537" data-name="Path 537" d="M254.928,85.341a16.339,16.339,0,0,1,4.554-.088,12.51,12.51,0,0,1,4.153,1.251,10.008,10.008,0,0,1,3.2,2.627,9.47,9.47,0,0,1,1.651,7.506,10.475,10.475,0,0,1-1.138,2.84,15.809,15.809,0,0,1-1.726,2.427c-.638.751-1.251,1.464-1.814,2.152a13.579,13.579,0,0,0-1.464,2.064,3.865,3.865,0,0,0-.576,2.139,2.114,2.114,0,0,1-.288,1,1.176,1.176,0,0,1-.813.525l-3.753.6a1.339,1.339,0,0,1-1.013-.225,1.1,1.1,0,0,1-.513-.863,8.519,8.519,0,0,1,.25-3.478,12.275,12.275,0,0,1,1.251-2.852,16.6,16.6,0,0,1,1.8-2.414c.663-.751,1.251-1.451,1.826-2.127a10.647,10.647,0,0,0,1.326-1.964,3.14,3.14,0,0,0,.338-1.977,3.753,3.753,0,0,0-2.064-2.79,6.743,6.743,0,0,0-4.329-.525,6.48,6.48,0,0,0-5.417,5.142A2.827,2.827,0,0,1,250,97.2a1.326,1.326,0,0,1-.851.413l-3.953.638a1.076,1.076,0,0,1-.8-.163,1.026,1.026,0,0,1-.438-.726,7.506,7.506,0,0,1,.563-3.64,12,12,0,0,1,2.152-3.653,14.71,14.71,0,0,1,3.553-3A13.035,13.035,0,0,1,254.928,85.341Zm6.455,27.335a1.326,1.326,0,0,1,.988.238,1.251,1.251,0,0,1,.55.863l.7,4.291a1.339,1.339,0,0,1-1.1,1.526l-4.191.688a1.339,1.339,0,0,1-.988-.238,1.251,1.251,0,0,1-.538-.863l-.7-4.291a1.341,1.341,0,0,1,1.1-1.526Z" transform="translate(-243.923 -85.135)" fill="#fff"/>
              </g>
              <path id="Path_538" data-name="Path 538" d="M282.918,96.987a1.526,1.526,0,0,1,.638,1.026,1.5,1.5,0,0,1-.263,1.176l-2.977,4.191a1.526,1.526,0,0,1-1.026.638,1.5,1.5,0,0,1-1.176-.263l-4.1-2.915a1.464,1.464,0,0,1-.625-1.026,1.5,1.5,0,0,1,.263-1.176l3.015-4.191a1.589,1.589,0,0,1,2.2-.375ZM300.232,68.6a18.463,18.463,0,0,1,3.953,3.753,14.45,14.45,0,0,1,2.5,4.5,11.52,11.52,0,0,1,.513,4.879,10.2,10.2,0,0,1-1.927,4.841,10.32,10.32,0,0,1-2.952,2.877,12.322,12.322,0,0,1-3.315,1.451,20.87,20.87,0,0,1-3.478.6l-3.328.3a16.266,16.266,0,0,0-2.952.513,4.829,4.829,0,0,0-2.352,1.3,2.215,2.215,0,0,1-1.063.6A1.251,1.251,0,0,1,284.707,94l-3.628-2.577a1.652,1.652,0,0,1-.663-1.038,1.326,1.326,0,0,1,.288-1.163,10.4,10.4,0,0,1,3.115-2.7,14.287,14.287,0,0,1,3.453-1.339,20.552,20.552,0,0,1,3.54-.538q1.764-.113,3.3-.263a13.024,13.024,0,0,0,2.765-.55,3.753,3.753,0,0,0,1.927-1.464,4.441,4.441,0,0,0,.588-4.066,7.943,7.943,0,0,0-3.215-4.041q-4.053-2.89-8.845-.188a3.128,3.128,0,0,1-1.051.425,1.476,1.476,0,0,1-1.076-.363l-3.853-2.74a1.237,1.237,0,0,1-.3-1.789,9.02,9.02,0,0,1,3.44-2.69,14.55,14.55,0,0,1,4.854-1.251,17.039,17.039,0,0,1,5.5.438A15.012,15.012,0,0,1,300.232,68.6Z" transform="translate(-219.753 -31.08)" fill="#fff"/>
              <g id="Group_343" data-name="Group 343" transform="translate(53.604 34.523)" opacity="0.11">
                <path id="Path_539" data-name="Path 539" d="M282.918,96.987a1.526,1.526,0,0,1,.638,1.026,1.5,1.5,0,0,1-.263,1.176l-2.977,4.191a1.526,1.526,0,0,1-1.026.638,1.5,1.5,0,0,1-1.176-.263l-4.1-2.915a1.464,1.464,0,0,1-.625-1.026,1.5,1.5,0,0,1,.263-1.176l3.015-4.191a1.589,1.589,0,0,1,2.2-.375ZM300.232,68.6a18.463,18.463,0,0,1,3.953,3.753,14.45,14.45,0,0,1,2.5,4.5,11.52,11.52,0,0,1,.513,4.879,10.2,10.2,0,0,1-1.927,4.841,10.32,10.32,0,0,1-2.952,2.877,12.322,12.322,0,0,1-3.315,1.451,20.87,20.87,0,0,1-3.478.6l-3.328.3a16.266,16.266,0,0,0-2.952.513,4.829,4.829,0,0,0-2.352,1.3,2.215,2.215,0,0,1-1.063.6A1.251,1.251,0,0,1,284.707,94l-3.628-2.577a1.652,1.652,0,0,1-.663-1.038,1.326,1.326,0,0,1,.288-1.163,10.4,10.4,0,0,1,3.115-2.7,14.287,14.287,0,0,1,3.453-1.339,20.552,20.552,0,0,1,3.54-.538q1.764-.113,3.3-.263a13.024,13.024,0,0,0,2.765-.55,3.753,3.753,0,0,0,1.927-1.464,4.441,4.441,0,0,0,.588-4.066,7.943,7.943,0,0,0-3.215-4.041q-4.053-2.89-8.845-.188a3.128,3.128,0,0,1-1.051.425,1.476,1.476,0,0,1-1.076-.363l-3.853-2.74a1.237,1.237,0,0,1-.3-1.789,9.02,9.02,0,0,1,3.44-2.69,14.55,14.55,0,0,1,4.854-1.251,17.039,17.039,0,0,1,5.5.438A15.012,15.012,0,0,1,300.232,68.6Z" transform="translate(-273.358 -65.603)" fill="#fff"/>
              </g>
            </g>
          </g>
        </g>
        <g id="openpeeps_peep-standing-5" data-name="openpeeps / peep-standing-5" transform="translate(103.78 184.903)">
          <g id="peep-standing-10_copy" data-name="peep-standing-10 copy" transform="translate(0 0)">
            <g id="BODY" transform="translate(0 65.076)">
              <path id="_Background" data-name="ðŸŽ¨ Background" d="M172.771,396.186c1-4.02-.47-7.227-4.68-9.595-.362-.957-8.5-4.058-14.965-8.612a48.115,48.115,0,0,1-10.2-10.017,23.724,23.724,0,0,1-1.455-4.4c-.714-6.564-.3-10.867-.742-12.909,2.971-.389,10.275-192.953,9.094-199.335a19.275,19.275,0,0,0,5.831-1.961c.147-.038-.095-.464-.088-.545,4.627-9.066-2.471-39.894-6.92-48.429,3.533-.092,8.186-.571,10.374-3.516a3.582,3.582,0,0,0,2.191-1.884,30.34,30.34,0,0,0,1.6-2.834c2.354-4.88,3.806-10.3,3.021-15.676.15-.047.92-.052.958-.267a10.017,10.017,0,0,0-.565-3.735,254.873,254.873,0,0,0-15.34-41.147c-3.223-7.086-9.891-9.672-16.8-12.332a81.8,81.8,0,0,0-10.118-3.662c-.044-.242.163-.979-.291-.919-.561.117-.451,1.018-.659,1.524-8.021-6.554-2.935-9.931-7.771-13.52-5-2.593-11.109-2.7-16.627-2.137-2.036.059-3.665.975-4.145,3.02A14.529,14.529,0,0,1,84.15,11.6c-.37-.657-1.386-2.54-1.955-1.946-6.46.22-16.256,2.587-22.3,4.358-6.07,1.547-12.211,4.372-13.8,10.955-2.882,11.731,1.7,59.94,9.223,69.224l.244,0a12.72,12.72,0,0,0,5.2,3.029c-.046,4.34-1.417,8.578-2.1,12.823-1.536,7.7-2.716,15.4-4.427,23.144-.008.862-3.263,12.662-.053,10.3.662.325,1.474.679,2.187.983-3.409,7.755-4.969,20.268-4.728,29.848A69.62,69.62,0,0,1,50.18,190.86c-9.486,49.5-17.851,160.224-18.047,161.7-.181,1.415,1.02,9.094,0,11.12-.9,1.8-4.765.736-5.5,1.43-1.918,3.117-1.04,5.1-2.612,8.215a17.322,17.322,0,0,0-3.2,3.4c-1.2,1.151-21.034,14.143-20.23,16.114,0,0-.09.946-.121,1.151-1.691,9.821,1.125,9.739,10.236,11.184,13.31,2.343,23.257-2.165,34.506-8.188,3.738-2.516,9.051-7.319,7.322-13.008-.048-.348-1.073-6.332-1.48-9.37,0,0,1.1-2.433-3.164-2.13.7-.769,2.243-10.726,1.717-12.044-.334-3.393.185-6.473.02-9.965,1.787.132,33.165-148.338,52.847-157.565.122.986-.114,2.822,1.2,3.006,6.088,47.4,20.724,153.59,21.4,153.776-1.009,5.413-.978,17.961-1,23.335-.154.144-.863.775-.977.929-.024-.04-.485.42-.509.432l-.062-.143c-2.073,4.666-5.095,9.471-2.424,14.044-1.982-.144-1.664,3.663-1.753,5.414,1.129,3.428,33.222,12.677,40.394,13.116,2.356.41,13.33-3.073,15.442-3.574C176.912,402.736,174.228,397.66,172.771,396.186Z" transform="translate(0.993 0)" fill="#fff"/>
              <path id="_Ink" data-name="ðŸ– Ink" d="M159.738,406.3c-.181,0-.362-.005-.537-.015a89.556,89.556,0,0,1-20.445-4,80.074,80.074,0,0,1-18.581-8.2,5.217,5.217,0,0,1-1.931-4.67,3.949,3.949,0,0,1,2.432-3.282c-1.4-2.53-.972-4.412-.381-7.016.07-.31.15-.661.226-1.016a20.084,20.084,0,0,1,2.235-5.98.206.206,0,0,1,.179-.1.17.17,0,0,1,.179.15,40.1,40.1,0,0,1-.16,5.793l0,.034q-.023.3-.045.6l-.018.236c-.034.48-.08.891-.12,1.253a7.163,7.163,0,0,0,.194,3.3c.429,1.591,2.119,3.051,5.167,4.466a70.912,70.912,0,0,0,8.636,3.07c1.869.575,3.482,1.072,4.679,1.556,3.81,1.178,7.712,2.241,11.6,3.159l.287.063c.567.124,1.147.262,1.709.4a28.3,28.3,0,0,0,6.479,1.018,12.54,12.54,0,0,0,2.02-.159,8.072,8.072,0,0,1,2.994-1.113,7.525,7.525,0,0,0,3.3-1.332c2.785-3,.378-7.4-1.305-9.747a2.643,2.643,0,0,1-.8.126,5.724,5.724,0,0,1-3.071-1.366l0,0c-.288-.2-.56-.393-.827-.557l-.049-.03a4.33,4.33,0,0,0-2.048-.56,4.342,4.342,0,0,1-2.046-.558l-.309.058c-.98.187-1.9.376-2.721.543a25.617,25.617,0,0,1-2.675.483c-.063,0-.1-.009-.1-.026-.02-.116,1.311-.641,4.595-1.814-1.408-.878-2.674-1.674-3.924-2.526a23.92,23.92,0,0,0-3.785.9,18.793,18.793,0,0,1-4.174.917,17.852,17.852,0,0,1,5.707-3.1l.3-.119a28.589,28.589,0,0,1-3.452-3.031l-1,.25a37.185,37.185,0,0,1-5.335,1.121c-.166,0-.256-.027-.268-.081-.054-.254,1.635-1.141,5.315-2.793a10.814,10.814,0,0,1-1.7-2.941,9.657,9.657,0,0,0-1.986-3.235,21.518,21.518,0,0,0-7.872,3.5,13.282,13.282,0,0,0-2.22,2.152l-.029.033-.165.187c-1.761,2.261-4.041,3.611-6.1,3.611a4.134,4.134,0,0,1-2.776-1.023,6.525,6.525,0,0,1-1.885-3.241.1.1,0,0,1,.02-.089.146.146,0,0,1,.111-.053.09.09,0,0,1,.085.048l.006.014a4.559,4.559,0,0,0,3.954,2.561,3.478,3.478,0,0,0,1.623-.4l.066-.035a9.865,9.865,0,0,0,3.073-2.934,15.864,15.864,0,0,1,1.71-1.959,23.224,23.224,0,0,1,8.008-4.423,43.072,43.072,0,0,1-.867-10.309c-1.17.055-2.332.083-3.455.083a59.537,59.537,0,0,1-11.24-1.02,85.86,85.86,0,0,1,.472,11.048c0,2.523.006,4.906.149,6.93a1.222,1.222,0,0,1-.2,1.12,2.122,2.122,0,0,1-1.617.788,1.041,1.041,0,0,1-1.127-.848,128.42,128.42,0,0,1,1.177-19.331l-.347-.084a3.869,3.869,0,0,1-.953-.337,1.755,1.755,0,0,1-.2.011c-.919,0-1.543-.769-1.907-2.352a26.833,26.833,0,0,1-.443-4.605A17.94,17.94,0,0,0,121,342.7c-1.22-17.01-3.033-35.559-5.542-56.708-2.237-18.851-4.808-37.984-7.3-56.487l0-.02-.009-.066c-1.418-10.554-2.885-21.467-4.273-32.205-.851-.325-1.013-1.337-1.157-2.23l-.009-.053c-5.881,3.972-8.249,10.9-10.539,17.592-.8,2.334-1.552,4.539-2.451,6.64-2.563,7.1-4.95,14.419-7.3,22.362-2.091,7.078-4.1,14.5-6.149,22.678-3.8,15.2-7.149,30.794-10.385,45.875C63,323.522,60.02,337.428,56.723,351l.059.015c.028.008.028.011.027.012s0,0-.02,0l-.053,0h-.02v0a1.1,1.1,0,0,1,.837.594.843.843,0,0,1-.059.83c-.57,1.149-1.665,1.684-3.446,1.684a19.606,19.606,0,0,1-2.165-.161c-.4-.045-.773-.087-1.123-.111.091,1.6,0,3.968-.1,6.474a57.712,57.712,0,0,0,.022,8.637,2.536,2.536,0,0,1,2.34,1.424,9.029,9.029,0,0,1,.778,2.712l0,.018c.04.226.078.44.118.639l.028.182c.1.655.262,1.443.43,2.276.622,3.092,1.4,6.94.455,8.853a3.716,3.716,0,0,1,.867,2.84,5.945,5.945,0,0,1-2.272,3.869,25.85,25.85,0,0,1-4.741,2.545c-.737.332-1.5.676-2.223,1.04-2.686,1.083-5.408,2.44-8.041,3.753-6.563,3.273-13.35,6.657-20.942,6.658a25.612,25.612,0,0,1-6.069-.735l-.586-.123c-4.76-1-7.767-1.73-9.371-3.346S-.4,397.5.559,392.746a6.071,6.071,0,0,1,.308-5.639,18.347,18.347,0,0,1,5.083-3.973h0c.9-.547,1.824-1.113,2.665-1.725,1.87-1.254,3.821-2.459,5.709-3.624,2.525-1.56,5.137-3.172,7.579-4.918-.046-.04-.063-.075-.052-.1.017-.046.1-.067.178-.067a.387.387,0,0,1,.065.005c1.754-1.371,2.4-3.364,3.032-5.292a14.288,14.288,0,0,1,1.8-4.042,2.345,2.345,0,0,1,1.543-1.322,7.293,7.293,0,0,1,2.443-.387,8.01,8.01,0,0,1,.941.053c-.369-1.887.754-8.489,1.624-9.545a.311.311,0,0,1,.218-.14c.326,0,.54,1.093.618,3.161v.129c0,.285.013.725.024,1.19.047,1.872.127,5.006-.2,5.728a9.6,9.6,0,0,1,5.679,4.578,27.393,27.393,0,0,1,2.433,6.586q.091.331.18.657l.08.021.143.035c.379.092.807.2.981.538a7.707,7.707,0,0,0,2.163-2.424,8.165,8.165,0,0,1,2.03-2.341,1.461,1.461,0,0,1-.275-1.735,54.5,54.5,0,0,0,.963-5.71,49.967,49.967,0,0,1,1.654-8.641c-1.638-.245-3.312-.46-4.931-.669a92.55,92.55,0,0,1-12.955-2.3,1.476,1.476,0,0,1-1.029.408,1.265,1.265,0,0,1-.918-.363,1.2,1.2,0,0,1-.3-.906c1.685-27.257,4.573-55.834,8.828-87.363,1.894-15.972,4.678-32.084,7.37-47.666l0-.01c1.884-10.9,3.832-22.181,5.457-33.3l.033-3.707a166.841,166.841,0,0,1,.763-16.72,61.937,61.937,0,0,1,3.806-16.231c-.386-.168-.752-.335-1.088-.5a2.38,2.38,0,0,1-.89.207,1.081,1.081,0,0,1-.883-.413c-1.13-1.4-.123-6,.543-9.049.226-1.033.4-1.848.439-2.273.648-3.466,1.339-6.977,2.007-10.372,1.628-8.271,3.311-16.824,4.492-25.279a12.905,12.905,0,0,1-4.705-2.825,11.914,11.914,0,0,1-2.89-4.515A54.726,54.726,0,0,1,50.8,82.076a175.918,175.918,0,0,1-3.723-21.6c-.9-7.66-1.481-15.608-1.638-22.38-.16-6.925.141-12.157.848-14.73a13.06,13.06,0,0,1,5.415-7.8,25.9,25.9,0,0,1,8.942-3.859l.923-.26c7.861-2.207,14.5-3.761,21.353-4.172a.836.836,0,0,1,.542-.149c.282,0,.525.075.578.177A4.333,4.333,0,0,1,85.29,8.677c6.218-.713,7.571-3.494,8.659-5.729C94.625,1.559,95.208.36,96.8,0h.038a.851.851,0,0,1,.855.6,1.1,1.1,0,0,1-.365,1.217l-.029.021a3.366,3.366,0,0,0-1.218,1.5,9.1,9.1,0,0,1-3.446,4.338,9.344,9.344,0,0,1-5.243,1.607,9.287,9.287,0,0,1-1.847-.186c.748,1.393,1.386,2.784,2,4.129.645,1.408,1.312,2.863,2.1,4.3a21.953,21.953,0,0,0,3.569,5.22,23.729,23.729,0,0,0,4.757,3.984,21,21,0,0,0,11.043,3.435,13.089,13.089,0,0,0,8.824-3.135,13.337,13.337,0,0,0,3.115-4.138,19.809,19.809,0,0,0,1.772-6.046,4.729,4.729,0,0,1-2.706-1.874,11.574,11.574,0,0,1-1.824-3.6,13.168,13.168,0,0,1-.645-4.421,5.079,5.079,0,0,1,1.127-3.327l.074.347c.075.357.149.721.221,1.073l0,.01a34.823,34.823,0,0,0,1.268,4.969,11.521,11.521,0,0,0,2.677,4.341.88.88,0,0,0,.251.033c.121-.572.248-1.068.388-1.516a1.116,1.116,0,0,1,1.1-.794,1.162,1.162,0,0,1,.839.339,1.038,1.038,0,0,1,.278.782A141.752,141.752,0,0,1,141,19.151l.239.1,1.078.47A20.314,20.314,0,0,1,152.6,29.642c2.785,5.753,5.365,11.859,7.888,18.67,2.139,5.775,4.237,12.067,6.412,19.234a17.271,17.271,0,0,0,.581,2.059c.676,2.124,1.6,5.032.928,6.258a1.061,1.061,0,0,1-.681.535,24.5,24.5,0,0,1-.521,7.975,35.762,35.762,0,0,1-2.674,7.566c-.241.409-.462.845-.7,1.305-.788,1.557-1.6,3.166-3.254,3.747a8.979,8.979,0,0,1-4.39,2.818,21.142,21.142,0,0,1-5.259.88,87.491,87.491,0,0,1,3.524,10.579c1.215,4.447,2.257,9.173,3.012,13.667a92.092,92.092,0,0,1,1.379,13.655c.067,4.5-.4,8.049-1.377,10.541.133.625-.4,1.207-1.595,1.729a21.291,21.291,0,0,1-3.214.992c-.375.093-.7.174-.915.241,1.054,6.284.8,12.74.364,18.781-1.063,13.488-1.9,26.907-2.476,39.885-.6,13.489-.951,26.928-1.034,39.941-.087,13.478.107,26.917.577,39.944.485,13.451,1.278,26.872,2.357,39.893.249,3.185.529,6.527.833,9.933l.179,1.984a71.082,71.082,0,0,1,.373,7.939,1.589,1.589,0,0,1-1.555,1.528c-2.061,1.312-4.665,1.582-7.183,1.843h-.005c-.638.066-1.24.128-1.836.208.174.947.321,2.058.477,3.235v.005a32.965,32.965,0,0,0,1.267,6.522,2.588,2.588,0,0,1,.652-.087,1.476,1.476,0,0,1,1.522.941c.13.526-.218,1.064-.93,1.44a12.456,12.456,0,0,1,3.509,3.357,20.323,20.323,0,0,0,1.942,2.195,8.455,8.455,0,0,1,3.024-.713c.909,0,1.5.3,1.54.782a1.165,1.165,0,0,1-.615.949,5.106,5.106,0,0,1-2.037.734,42.212,42.212,0,0,0,3.634,2.684l.089-.013c.334-.051.736-.152,1.161-.259a10.11,10.11,0,0,1,2.294-.4,1.5,1.5,0,0,1,1.558.832.971.971,0,0,1-.108.821,2.965,2.965,0,0,1-2.095.879c.95.6,1.878,1.176,2.823,1.766.289-.127.582-.267.865-.4a15.655,15.655,0,0,1,1.618-.7,2.107,2.107,0,0,1,.454-.053.988.988,0,0,1,1.11.928c.019.687-.667,1.422-2.017,1.5a5.775,5.775,0,0,0,2.413.877,3.578,3.578,0,0,1,2.7,1.412,8.09,8.09,0,0,1,4.282,4.285,9.484,9.484,0,0,1,.622,5.975,7.385,7.385,0,0,1,2.477,4.939,3.6,3.6,0,0,1-.828,2.743,4.884,4.884,0,0,1-2.641,1.643c-2.2.73-4.6,1.459-7.328,2.228l-.256.088A18.52,18.52,0,0,1,159.738,406.3Zm-38.8-19.736a4.539,4.539,0,0,0-.193,3.594,6.634,6.634,0,0,0,3.8,3.389,123.818,123.818,0,0,0,17.179,6.535,84.657,84.657,0,0,0,18.373,3.334c1.912-.461,3.85-1.085,5.725-1.689s3.8-1.223,5.722-1.691l.167-.03c1.4-.256,2-.514,1.881-1.908l.05-.569a19.472,19.472,0,0,0,.09-3.035,7.121,7.121,0,0,1-3.207,3.331,15.079,15.079,0,0,1-4.654,1.635,10.817,10.817,0,0,1-4.729,1,30.6,30.6,0,0,1-7.492-1.289c-1.08-.279-2.1-.542-3.113-.751-1.409-.428-3.146-.908-4.984-1.417l-.013,0c-4.232-1.171-9.5-2.629-14.1-4.355-5.381-2.019-8.818-4.007-10.508-6.077ZM1.394,394.306h0c.184.889.278,1.659.362,2.339v.005a5.145,5.145,0,0,0,.974,3.07c.7.758,2.018,1.267,4.391,1.7a31.294,31.294,0,0,0,9.793,1.649c5.1,0,10.1-1.4,15.728-4.419,2.433-1.181,4.982-2.279,7.447-3.341,3.508-1.511,7.135-3.074,10.484-4.9l.077-.055c.62-.441,2.582-2.013,1.829-3.727l-.163.05-.337.105-.025.008a9.858,9.858,0,0,1-2.935.6,4.677,4.677,0,0,1-1.141-.137c-6.12,2.071-12.54,4.52-20.818,7.943a51.5,51.5,0,0,1-7.072,2.817,27.147,27.147,0,0,1-7.875,1.33,14.518,14.518,0,0,1-5.834-1.122A12.144,12.144,0,0,1,1.394,394.306ZM11.7,396.492H11.9c4.552,0,8.608-1.723,12.529-3.389,1.489-.633,3.029-1.287,4.561-1.829a59.976,59.976,0,0,0,5.734-2.256c4.887-2.067,10.969-4.64,13.478-4.64a1.2,1.2,0,0,1,1.028.345,8.7,8.7,0,0,1,1.007-.379,4.142,4.142,0,0,0,1.79-.918,42.88,42.88,0,0,0-.967-9.04l-.009-.053q-.084-.473-.167-.943c-.044-.213-.109-.438-.178-.676v0h0a5.557,5.557,0,0,1-.255-1.186,6.846,6.846,0,0,0-2.571,2.059c-1.005,1.112-2.044,2.26-3.833,2.26-.133,0-.269-.006-.407-.019a1.209,1.209,0,0,1-1.071.489,3.024,3.024,0,0,1-1.879-.713,3.918,3.918,0,0,1-1.04-2.353l0-.008c-.023-.119-.047-.242-.072-.36l-.09-.429a17.5,17.5,0,0,0-1.714-5.071,8.149,8.149,0,0,0-3.371-3.211,10.055,10.055,0,0,0-4.668-1.2,7.732,7.732,0,0,0-2.488.392,25.073,25.073,0,0,0-.092,3.091c.026,2.331.052,4.742-1.4,6.72,1.985.348,3.912.743,5.536,1.083l1.685.355c.935.2,1.873.527,1.74,1.365-.07.445-.39.67-.952.67a5.139,5.139,0,0,1-1.32-.242l-.328-.1c-2.658-.781-4.883-1.456-7.1-2.21a21.983,21.983,0,0,1-4.509,3.454l.667.077.694.077c2.084.231,4.238.47,6.324.9a.837.837,0,0,1,.647.926.746.746,0,0,1-.773.644,1.1,1.1,0,0,1-.115-.006c-.664-.173-1.346-.356-1.949-.518-2.079-.558-4.229-1.135-6.377-1.53l-1.477.977c-.86.569-1.749,1.158-2.639,1.741,1.745.252,3.524.358,5.244.46.946.056,1.924.114,2.888.2a1.342,1.342,0,0,1,1.312,1.374,1.082,1.082,0,0,1-1.169,1.044c-.046,0-.094,0-.144-.006a39.715,39.715,0,0,1-9.328-2.283l-1.586,1.041c-1.678,1.1-3.631,2.377-5.58,3.609-.263.167-.539.33-.831.5a8.6,8.6,0,0,0-2.54,1.935,3.425,3.425,0,0,0-.08,3.648,7.888,7.888,0,0,0,3.378,2.956,10.472,10.472,0,0,0,4.528,1.175ZM57.053,143.518a.356.356,0,0,1,.273.142,196.322,196.322,0,0,0,58.1,9.237,163.212,163.212,0,0,0,21.135-1.359c4.376-.545,8.916-1.316,13.879-2.357a.317.317,0,0,1,.079-.25.391.391,0,0,1,.287-.121.33.33,0,0,1,.331.24l.615-.108.019,0c.795-.141,1.615-.287,2.419-.391a1.527,1.527,0,0,1-.018-1.053,26.879,26.879,0,0,0,1.208-8.636,88,88,0,0,0-.62-8.845q-.07-.67-.137-1.332c-.6-7.137-1.906-14.288-3.167-21.2v0l0-.009c-.4-2.215-.822-4.505-1.21-6.761-2.961-.134-5.965-.409-8.869-.675-4.1-.375-8.34-.763-12.533-.763-.45,0-.9,0-1.334.013a4.9,4.9,0,0,1-4.25,3.018,3.2,3.2,0,0,1-1.54-.386c-1.3-.7-1.823-2.073-2.331-3.4l0-.012c-.094-.245-.191-.5-.29-.737-1.229-2.975-2.5-5.98-3.733-8.886l-.421.106a46.406,46.406,0,0,1-11.29,1.618c-.64,0-1.277-.02-1.892-.061a23.867,23.867,0,0,0-.468,3.119v0a28.247,28.247,0,0,1-.789,4.721c-.49,1.648-1.212,2.619-2.207,2.97a2.755,2.755,0,0,1-.958.164,2.35,2.35,0,0,1-2.18-1.168c-4.535-.08-9.163-.395-13.64-.7H81.5c-1.843-.125-3.75-.255-5.62-.366-1.025-.081-2.078-.144-3.1-.206h0A47.522,47.522,0,0,1,61.4,97.457a27.633,27.633,0,0,1,.442,8.5,184.841,184.841,0,0,1-2.968,18.79c-1.128,5.832-2.295,11.861-2.878,17.852l-.055.585-.035-.02v.008c0,.018,0,.038,0,.061.329.1.67.2,1.043.313A.239.239,0,0,1,57.053,143.518ZM83.23,7.557c-3.342.985-6.774,1.867-10.092,2.719-4.59,1.179-9.337,2.4-13.915,3.91a16,16,0,0,0-8.009,4.355,12.592,12.592,0,0,0-3.3,8.383c-.476,13.2.666,27.451,3.594,44.852l.129.668c.139.718.279,1.45.415,2.158l.009.045c1.21,6.326,2.462,12.867,4.8,18.958,3.97,1.842,8.438,2.283,12.285,2.472,5.843.3,12.062.62,18.214,1.022l4.757.308c.279.018.576.023.89.028,1.228.019,2.619.042,3.447.9a.384.384,0,0,0,.243.151.688.688,0,0,1,.178.075l.028.02a1.1,1.1,0,0,1,.132.114.531.531,0,0,0,.335.2.256.256,0,0,0,.055-.006c.324-.1.466-.7.551-1.057l.023-.1.008-.031c.267-1.045.5-2.12.717-3.16.16-.755.326-1.534.506-2.3.335-1.23.609-2.505.874-3.739a37.335,37.335,0,0,1,2-7.02,29.635,29.635,0,0,1-5.819-4.717l-2.061-.724A114.377,114.377,0,0,0,79.165,71.6a1.427,1.427,0,0,1-1.371,1.219,1.068,1.068,0,0,1-.975-.627,35.885,35.885,0,0,1-1.232-5.753c-.187-1.19-.381-2.418-.645-3.6-.429-2.528-.888-5.1-1.331-7.578-1.177-6.586-2.393-13.4-3.18-20.151a140.9,140.9,0,0,1,4.593,17.576c.7,3.224,1.424,6.558,2.225,9.683a.21.21,0,0,1,.1-.029.144.144,0,0,1,.152.149,34.4,34.4,0,0,1,25.035.311c.861.344,1.742.679,2.594,1,1.127.428,2.29.87,3.421,1.34a3.845,3.845,0,0,0,.843.3c.622.169,1.265.344,1.416.9a3.8,3.8,0,0,1,1.008-1.458,2.1,2.1,0,0,1,1.333-.475c.2,0,.443.043.5.25a95.155,95.155,0,0,1,9.948,2.1c4.9,1.221,9.975,2.483,15.107,2.483.723,0,1.444-.025,2.143-.075a42.384,42.384,0,0,1-1.023-10.722c-.006-.587-.013-1.193-.023-1.792l.023-.467q.019-.416.039-.844c.181-4,.386-8.537,1.681-11.675-.967,9.217-.058,18.393.841,25.357a13.667,13.667,0,0,1,1.716-.125c1.136,0,1.864.224,2.051.631a.765.765,0,0,1-.223.816,5.851,5.851,0,0,1-4.136,1.447c-.08,0-.161,0-.241,0-.635.046-1.286.069-1.935.069-6.531,0-12.771-2.326-18.805-4.575-1.44-.537-2.929-1.092-4.394-1.6a8.32,8.32,0,0,0-2.857-.732,1.651,1.651,0,0,0-1.264.464c-.656.687-.727,2.121-.628,4.211,0,5.164,2.213,9.911,4.35,14.5l.4.859,1.013,2.274c1.5,3.37,3.265,7.356,4.981,11.37a31.108,31.108,0,0,1,9.955-1.381c2.822,0,5.7.226,8.474.444h.007c1.374.108,2.795.22,4.164.3a35.812,35.812,0,0,0,4.471.324A16.593,16.593,0,0,0,159.5,95.181c.468-.893.987-1.79,1.488-2.658l0-.007a28.4,28.4,0,0,0,3.392-7.449,50.406,50.406,0,0,0,1.674-10.48l-.27-.985c-3.111-11.29-7.042-24.548-12.608-37.272l-.285-.663-.129-.3c-1.749-4.088-3.558-8.316-7.084-11.167a59.15,59.15,0,0,0-11.01-5.92,74.541,74.541,0,0,1-8.929-4.507l-.041.291a39.337,39.337,0,0,1-1.49,6.814,19.351,19.351,0,0,1-3.2,6.146,14.144,14.144,0,0,1-5.518,4.1,17.141,17.141,0,0,1-6.716,1.31A19.725,19.725,0,0,1,98.49,29.528a25.336,25.336,0,0,1-8.717-8.136,36.57,36.57,0,0,1-4.9-10.954l-.024-.085-.03-.106C84.6,9.449,84.068,7.579,83.23,7.557Zm19.541,74.336h0a37.2,37.2,0,0,1-.553,5.465c-.087.575-.177,1.169-.257,1.756,1.163-.229,2.342-.44,3.481-.643,2.523-.451,5.132-.917,7.669-1.6a61.821,61.821,0,0,1-10.34-4.974ZM79.232,70.867a67.226,67.226,0,0,1,9.455,1.617c2.98.691,8.077,2.053,8.737,3.422a.63.63,0,0,1-.091.712c1.433.765,2.849,1.614,4.218,2.436l.009.005c1.214.728,2.469,1.481,3.732,2.173a58.449,58.449,0,0,0,8.435,3.794l-.153-.341a45.657,45.657,0,0,1-3.118-8.785,17.518,17.518,0,0,1,.206-9.174,4.031,4.031,0,0,1-1.5.271,14.141,14.141,0,0,1-5.092-1.481c-.731-.313-1.421-.608-2.051-.817a40.35,40.35,0,0,0-8.25-2.4,31.784,31.784,0,0,0-6.15-.558,66.4,66.4,0,0,0-10.282.989c.255,1.186.531,2.384.8,3.542.345,1.5.7,3.055,1.018,4.594ZM65.643,53.522c-.829,0-2.827-2.756-4.285-4.768a15.661,15.661,0,0,0-1.495-1.922c-.839-1.077-1.785-2.1-2.7-3.089s-1.84-1.989-2.669-3.049c0-.143.068-.215.194-.215.55,0,2.106,1.331,2.941,2.047.216.185.373.319.446.373l.249.225c3,2.718,6.011,5.751,7.7,9.508a1.162,1.162,0,0,1-.165.8A.283.283,0,0,1,65.643,53.522Zm75.945-4.117a.077.077,0,0,1-.078-.042c-.063-.141.243-.633.726-1.171.527-.586,1.258-1.212,1.73-1.212a.448.448,0,0,1,.1.011.358.358,0,0,1,.051,0,.434.434,0,0,1,.4.33.276.276,0,0,1-.18.322l-.2.088-.216.093-.024.01a4.352,4.352,0,0,0-2.217,1.555A.33.33,0,0,1,141.588,49.405Z" transform="translate(0 2.143)"/>
            </g>
            <g id="Head" transform="translate(76.603 0)">
              <g id="HEAD-2" data-name="HEAD" transform="translate(0 0)">
                <path id="_Background-2" data-name="ðŸŽ¨ Background" d="M39.8,74.128A15.293,15.293,0,0,1,30.644,71.4,33.9,33.9,0,0,1,21.93,67c-.847.216-1.861-.683-2.51-1.157-4.032-3-7.2-7.4-8.135-11.809-1.448,1.824-3.508,1.9-5.482.993C1.666,52.69,1.82,47.759,3.31,44.076c-3.131-7.012-5.3-25.521-.522-32.991C3.766,9.967,5.2,9.3,6.234,8.152A21.2,21.2,0,0,1,9.1,5.335C12.36,2.856,17.98,1.536,21.5.916c14.69-3.17,25.977,2.527,39.283,7.333a23.387,23.387,0,0,1-3.039,5.279c3.3,1.231,1.786,4-.777,5.4l-1.526-.74c2.378,8.492,7.852,29.611,5.49,36.393C59.048,65.161,50.782,74.205,39.8,74.128" transform="translate(1.045 1.242)" fill="#fff"/>
                <path id="_Ink-2" data-name="ðŸ– Ink" d="M40.864,76.389a18.465,18.465,0,0,1-6.309-1.062,11.854,11.854,0,0,1-5.17-3.537.6.6,0,0,1-.013-.754.563.563,0,0,1,.448-.222.589.589,0,0,1,.291.079l.292.162A22.662,22.662,0,0,0,37.273,73.7a19.469,19.469,0,0,0,3.4.3,19.028,19.028,0,0,0,4.21-.472,19.319,19.319,0,0,0,10.974-7.175,26.7,26.7,0,0,0,5.319-13.783c.542-5.771-.627-11.453-2.093-17.749-1.582-6.8-3.143-12.737-4.771-18.156a1.294,1.294,0,0,1-.053-.5,1.968,1.968,0,0,0-.719-.131,2.933,2.933,0,0,0-.941.171,11.137,11.137,0,0,0-2.865,1.741l-.043.032c-.291.22-.593.448-.856.628a6.962,6.962,0,0,1-3.513,1.326c-.115.007-.234.011-.352.011a9.321,9.321,0,0,1-3.539-.867c-.605-.259-1.192-.523-1.842-.816l-.023-.01a35.146,35.146,0,0,0-5.3-2.047,28.668,28.668,0,0,0-7.438-.983h-.261c-5.607.051-9.69,1.783-12.134,5.148-1.392,1.918-1.823,3.673-1.316,5.366a9.923,9.923,0,0,0,1.575,2.92l.225.3a3.837,3.837,0,0,1,.767,1.491,1.915,1.915,0,0,1-.293,1.395,6.607,6.607,0,0,1-.694.883l-.008.01a7.536,7.536,0,0,0-.508.617,8.051,8.051,0,0,0-.808,1.415,8.278,8.278,0,0,0-.645,3.072,21.111,21.111,0,0,0,.307,3.728l0,.035c.124.868.251,1.766.3,2.663a.518.518,0,0,1-.106.358.511.511,0,0,1-.338.191.548.548,0,0,1-.074,0l-.053,0c.024.1.041.183.056.26-.083-.107-.175-.215-.275-.322l-.018-.009A.572.572,0,0,1,12.3,44.5a5.286,5.286,0,0,0-.434-.361,4.535,4.535,0,0,0-2.643-.95H9.175a3.55,3.55,0,0,0-2.433.934c-.8.746-1.761,2.244-1.784,5.143-.011,1.382.235,3.889,2,5.145a3.923,3.923,0,0,0,2.206.735h.026A5.467,5.467,0,0,0,11,54.722l.057-.02.038-.014c.173-.062.352-.126.528-.183a1.032,1.032,0,0,1,.317-.052.916.916,0,0,1,.261.038.939.939,0,0,1,.475.333,1.146,1.146,0,0,1,.225.559,1.114,1.114,0,0,1-.088.592c-.02.044-.042.089-.067.137l.35.575a36.36,36.36,0,0,0,4.5,6.241,26.381,26.381,0,0,0,3.312,3l.172.128c.105.077.224.174.34.268l.109.09a2.082,2.082,0,0,0,1.047.591h.043a1.855,1.855,0,0,0,.248-.02l.017,0a2.03,2.03,0,0,1,.268-.021.835.835,0,0,1,.324.058,1.018,1.018,0,0,1,.457.4.988.988,0,0,1,.161.552,1.067,1.067,0,0,1-.153.558,1.587,1.587,0,0,1-.715.646,1.511,1.511,0,0,1-.6.12,1.986,1.986,0,0,1-.364-.035,6.491,6.491,0,0,1-2.364-1.305l-.114-.088a25.03,25.03,0,0,1-3.649-3.34,20.68,20.68,0,0,1-4.393-7.3,4.175,4.175,0,0,1-2.135.615c-.074,0-.15,0-.225,0a7.391,7.391,0,0,1-3.009-.674,6.958,6.958,0,0,1-3.7-4.7,11.734,11.734,0,0,1,.383-7.135c.024-.061.048-.122.074-.184A50.688,50.688,0,0,1,.035,24.9,48.19,48.19,0,0,1,1.106,15.26a9.1,9.1,0,0,1,1.861-3.816,10.663,10.663,0,0,1,1.847-1.6l.021-.016a10.884,10.884,0,0,0,1.6-1.349l.228-.25.049-.053.1-.109a18.81,18.81,0,0,1,2.65-2.552,18.025,18.025,0,0,1,3.8-2.116A44.111,44.111,0,0,1,22.348.889,52.386,52.386,0,0,1,31.766,0,42.207,42.207,0,0,1,42.42,1.324c3.071.8,6.079,1.91,8.988,2.982l.825.3c1.971.724,3.975,1.458,5.914,2.167l1,.364,1.223.447,1.989.728a1.168,1.168,0,0,1,.589.5.832.832,0,0,1,.062.739,23.148,23.148,0,0,1-2.494,4.674,3.031,3.031,0,0,1,.875.925,3.22,3.22,0,0,1,.466,1.612A3.581,3.581,0,0,1,60.8,19.275a10.977,10.977,0,0,1-2.2,1.76,1.128,1.128,0,0,1-.409.168c1.19,4.542,2.72,10.537,4,16.618l.081.387c1.093,5.269,2.049,11.492.847,17.7a29.661,29.661,0,0,1-2.455,7.385,25.856,25.856,0,0,1-4.4,6.411,21.286,21.286,0,0,1-13.3,6.578A20.72,20.72,0,0,1,40.864,76.389Zm-9-74.447a51.5,51.5,0,0,0-10.72,1.192l-.385.083a33.276,33.276,0,0,0-7.832,2.508A13.747,13.747,0,0,0,9.6,7.977c-.431.4-.827.853-1.21,1.288l-.009.01a14.524,14.524,0,0,1-1.755,1.772l-.607.485a6.949,6.949,0,0,0-2.227,2.56A14.934,14.934,0,0,0,2.8,17.838a57.849,57.849,0,0,0-.71,9.671,85.96,85.96,0,0,0,1.9,16.05,5.145,5.145,0,0,1,3.526-2.322,4.792,4.792,0,0,1,4.122,1.483,14.858,14.858,0,0,1-.714-6.12,9.664,9.664,0,0,1,1.145-3.575,11.027,11.027,0,0,1,1.254-1.776l.162-.186.021-.024a.657.657,0,0,0,.168-.268.332.332,0,0,0-.039-.216,2.325,2.325,0,0,0-.362-.5l-.032-.037c-.091-.106-.185-.216-.265-.323-1.646-2.223-2.337-4.37-2.053-6.38a10.86,10.86,0,0,1,3.417-6.012,13.353,13.353,0,0,1,5.752-3.292,23.485,23.485,0,0,1,6.679-.882c.426,0,.864.009,1.3.027a30.776,30.776,0,0,1,8.2,1.455,31.67,31.67,0,0,1,3.819,1.521l.275.131.107.052,0,0,.332.162.032.015a14.951,14.951,0,0,0,2.961,1.2,4.335,4.335,0,0,0,1.03.129,6.462,6.462,0,0,0,3.788-1.686l.093-.068c.5-.362,1.007-.736,1.553-1.064l.111-.066a6.553,6.553,0,0,1,3.2-.929h.072a3.829,3.829,0,0,1,2.681,1.06,1.016,1.016,0,0,1,.29.479,1.32,1.32,0,0,1,.2.427c.24.9.5,1.879.82,3.084l.223-.143a4.245,4.245,0,0,0,1.7-1.631,1.428,1.428,0,0,0-.05-1.07.66.66,0,0,0-.228-.288.4.4,0,0,0-.222-.064l-.04,0a1.41,1.41,0,0,1-.178.012,1.266,1.266,0,0,1-.492-.1,1.108,1.108,0,0,1-.516-.435.991.991,0,0,1-.143-.649,1.13,1.13,0,0,1,.282-.606,18.252,18.252,0,0,0,2.792-4.271L55.993,8.06c-1.729-.638-3.419-1.261-5.1-1.876l-.93-.341a77.023,77.023,0,0,0-9.41-2.964A39.405,39.405,0,0,0,31.867,1.942ZM13.111,50.713h-.032a2.291,2.291,0,0,1-1.447-.626l-.044-.033,0,0-.12-.09a5.97,5.97,0,0,0-1.409-.792,6.543,6.543,0,0,0-2.366-.455,6.192,6.192,0,0,0-1.063.092.5.5,0,0,1-.086.008.5.5,0,0,1-.25-.068.534.534,0,0,1-.22-.25.461.461,0,0,1,.233-.608,7.433,7.433,0,0,1,3.169-.739,6.683,6.683,0,0,1,.894.06l.138.02a7.28,7.28,0,0,1,2.467.765,2.1,2.1,0,0,1,1.13,1.435,1.175,1.175,0,0,1-.21.9A.958.958,0,0,1,13.111,50.713Z" transform="translate(0)"/>
              </g>
              <g id="FACE" transform="translate(27.9 26.526)">
                <path id="_Ink-3" data-name="ðŸ– Ink" d="M18.617,39.3a9.765,9.765,0,0,1-1.116-.062l-.178-.021a6.486,6.486,0,0,1-3.507-1.343.332.332,0,0,1-.091-.338.337.337,0,0,1,.248-.255,16.23,16.23,0,0,1,2.076-.251c.471-.036.958-.074,1.43-.14a10.18,10.18,0,0,0,1.106-.241,6.815,6.815,0,0,1,1.647-.284,2.323,2.323,0,0,1,1.029.22,1.169,1.169,0,0,1,.581.787,1.083,1.083,0,0,1-.136.907,2.427,2.427,0,0,1-2.1.981C19.263,39.29,18.931,39.3,18.617,39.3Zm-2-3.286a.007.007,0,0,1-.006,0,4.114,4.114,0,0,1-.6-1.988.007.007,0,0,1,0-.005l.005,0a.008.008,0,0,1,.008.008,4.108,4.108,0,0,0,.6,1.98.007.007,0,0,1,0,.008A.009.009,0,0,1,16.621,36.019Zm3.388-9.785h0a7.747,7.747,0,0,1-4.472-1.782.98.98,0,0,1-.29-1.135,1.2,1.2,0,0,1,1.041-.835.9.9,0,0,1,.491.15l.161.124,0,0c.84.648,2.109,1.627,3.326,1.627a1.988,1.988,0,0,0,1.48-.655,2.181,2.181,0,0,0,.416-1.757,3.317,3.317,0,0,0-.883-1.56,6.488,6.488,0,0,0-1.337-1.077.413.413,0,0,1-.112-.475.616.616,0,0,1,.6-.426.843.843,0,0,1,.142.013,3.964,3.964,0,0,1,2.636,1.543,3.87,3.87,0,0,1,.678,2.589,4.132,4.132,0,0,1-1.128,2.528A3.739,3.739,0,0,1,20.009,26.234Zm6.317-8.387a1.4,1.4,0,0,1-.828-.283,2.433,2.433,0,0,1-.668-.773,4.953,4.953,0,0,1-.582-2.431,4.953,4.953,0,0,1,.582-2.431,2.429,2.429,0,0,1,.668-.773,1.353,1.353,0,0,1,1.655,0,2.429,2.429,0,0,1,.668.773A4.953,4.953,0,0,1,28.4,14.36a4.953,4.953,0,0,1-.582,2.431,2.433,2.433,0,0,1-.668.773A1.4,1.4,0,0,1,26.326,17.847ZM7.7,17.824a1.563,1.563,0,0,1-1.328-1,3.77,3.77,0,0,1-.153-1.934,2.066,2.066,0,0,1,.264-.708l.038-.058-.006-.083c0-.012,0-.023,0-.035s0-.017,0-.026c-1-.06-2.038-.16-3.185-.305l-.353-.046c-.155-.021-.322-.038-.5-.057a5.02,5.02,0,0,1-2.467-.688A.04.04,0,0,1,0,12.843a.048.048,0,0,1,.023-.037,2.379,2.379,0,0,1,1.1-.218l.159-.006.064,0c.5-.026.994-.047,1.466-.063L3.3,12.5c1.31-.037,2.634-.1,3.756-.163l.653-.039a2.077,2.077,0,0,1,.709-.163l.072,0a1.648,1.648,0,0,1,.5.077c.455-.035.916-.073,1.37-.114l.456-.043c.171-.016.347-.03.518-.044a12.817,12.817,0,0,0,1.437-.168l.11-.021a2.864,2.864,0,0,1,.512-.057,1.54,1.54,0,0,1,1.015.416.71.71,0,0,1,.268.506,1.14,1.14,0,0,1-.268.816,1.6,1.6,0,0,1-1.434.514c-.1,0-.207,0-.316,0l-.05,0c-.6.024-1.207.041-1.792.05l-.307,0h-.184a4.364,4.364,0,0,1-2,3.532A1,1,0,0,1,7.7,17.824ZM19.17,7.05h0l-.018,0A1.586,1.586,0,0,1,18.079,5.7,4.777,4.777,0,0,1,18.1,3.841,4.951,4.951,0,0,1,19.017,1.9,4.779,4.779,0,0,1,20.671.53,5.38,5.38,0,0,1,23.029,0a5.8,5.8,0,0,1,2.108.4l.094.038c1.221.506,3.18,1.848,2.782,3.667a1.336,1.336,0,0,1-1.394,1.055,1.437,1.437,0,0,1-1.524-1.234,2.752,2.752,0,0,0-2.225-1.032,2.791,2.791,0,0,0-1.46.392,4.019,4.019,0,0,0-1.459,1.851,5.554,5.554,0,0,0-.245.736,3.311,3.311,0,0,1-.493,1.162A.053.053,0,0,1,19.17,7.05Z" transform="translate(0 0)"/>
              </g>
              <g id="FACIAL_HAIR" data-name="FACIAL HAIR" transform="translate(32.853 51.568)">
                <path id="_Background-3" data-name="ðŸŽ¨ Background" d="M19.646.144a16.418,16.418,0,0,0-6.954.8C9.145-1.38,4.55.966,2.01,3.869,1.14,4.584-.685,5.533.277,6.9c-.365.964-.462,1.417.293.291,4.271.491,8.853-.436,13.079-1.31,1.439.483,2.71,1.612,4.292,1.225,1.5.317,3.115.614,4.465-.344,1.028-.042,3.316,1.8,3.279-.342C25.366,4.362,21.285.944,19.646.144Z" transform="translate(1.71 0.815)" fill="#fff"/>
                <path id="_Ink-4" data-name="ðŸ– Ink" d="M.578,9.793h0c-.37,0-.565-.174-.577-.518-.036-.963,1.35-3.06,2.658-4.7,1.53-1.919,3.01-3.34,3.52-3.378A7.839,7.839,0,0,1,10.267,0a13.664,13.664,0,0,1,4.721,1.071,2.2,2.2,0,0,0,.265.016,5.386,5.386,0,0,0,1.716-.4A7.192,7.192,0,0,1,18.257.317,7.754,7.754,0,0,1,19.337.24,8.515,8.515,0,0,1,25.3,2.895a18.182,18.182,0,0,1,3.794,5.621.623.623,0,0,1-.025.614.59.59,0,0,1-.925.117,4.109,4.109,0,0,0-2.532-.72,17.909,17.909,0,0,0-2.145.182l-.135.017a20.618,20.618,0,0,1-2.553.2,9.138,9.138,0,0,1-5.228-1.548C14.234,8.46,11.737,8.462,9.093,8.464c-2.773,0-5.915.005-8.149,1.285A1.8,1.8,0,0,1,.578,9.793ZM10.955,1.168a7.989,7.989,0,0,0-5.091,1.75,14.44,14.44,0,0,0-3.8,4.942,26.586,26.586,0,0,1,7.8-.82c.539,0,1.1-.007,1.641-.017l.159,0c.116,0,.244,0,.375,0,.149,0,.283,0,.424,0,.919,0,1.91-.1,2.285-.819a.54.54,0,0,1,.494-.31.625.625,0,0,1,.068,0,.558.558,0,0,1,.252-.061.631.631,0,0,1,.361.122,9.834,9.834,0,0,0,5.715,1.669,13.293,13.293,0,0,0,1.454-.082c.225-.025.457-.054.681-.081a17.33,17.33,0,0,1,2.1-.175,5.783,5.783,0,0,1,1.345.142A13.66,13.66,0,0,0,23.99,3.13,7.286,7.286,0,0,0,19.2,1.165a6.369,6.369,0,0,0-1.543.193c-.08.007-.435.124-.845.26a10.868,10.868,0,0,1-1.652.475c-.033,0-.052-.006-.057-.019s.018-.049.073-.093A12.65,12.65,0,0,0,10.955,1.168Z" transform="translate(0 0)"/>
              </g>
            </g>
          </g>
        </g>
      </g>
    </g>
  </g>
</svg>
