<svg xmlns="http://www.w3.org/2000/svg" width="24.687" height="23.143" viewBox="0 0 24.687 23.143">
  <g id="browser" transform="translate(0 -16.017)">
    <path id="Path_2452" data-name="Path 2452" d="M58.612,206.622H42.218A2.221,2.221,0,0,1,40,204.4v-11.67a.771.771,0,1,1,1.543,0V204.4a.676.676,0,0,0,.675.675H58.612a.676.676,0,0,0,.675-.675v-11.67a.771.771,0,0,1,1.543,0V204.4A2.221,2.221,0,0,1,58.612,206.622Z" transform="translate(-38.071 -167.462)" fill="#0097fe"/>
    <path id="Path_2453" data-name="Path 2453" d="M23.916,27.972a.769.769,0,0,1-.545-.226l-9.595-9.595a2.027,2.027,0,0,0-2.864,0L1.317,27.746A.771.771,0,1,1,.226,26.655L9.821,17.06a3.572,3.572,0,0,1,5.046,0l9.595,9.595a.772.772,0,0,1-.545,1.317Z" transform="translate(0)" fill="#0097fe"/>
    <path id="Path_2454" data-name="Path 2454" d="M182.943,298.012h-6.172a.771.771,0,0,1-.771-.771v-6.847a2.414,2.414,0,0,1,2.411-2.411H181.3a2.414,2.414,0,0,1,2.411,2.411v6.847A.771.771,0,0,1,182.943,298.012Zm-5.4-1.543h4.629v-6.075a.869.869,0,0,0-.868-.868h-2.893a.869.869,0,0,0-.868.868Z" transform="translate(-167.513 -258.852)" fill="#0097fe"/>
  </g>
</svg>
