<svg xmlns="http://www.w3.org/2000/svg" xmlns:xlink="http://www.w3.org/1999/xlink" width="225.213" height="196.048" viewBox="0 0 225.213 196.048">
  <defs>
    <clipPath id="clip-path">
      <path id="Path_2993" data-name="Path 2993" d="M238.04,162.982c-5.9-12.178-8.449-13.236-12.374-13.438s-13.191-1.355-23.516.3c0,0-28.8-.5-51.086,13-23.264,14.093-34.585,26.472-36.17,32.889s-6.993,23.135-9.558,32.721-4.311,18.029-1.041,25.789c1.976,4.692,4.082,6.1,6.786,6.081a19.48,19.48,0,0,1-1.092-2.3c-2.688-6.657-2.363-16.181.705-16.8s4.9,5.761,6.752,12.715a27.654,27.654,0,0,0,1.489,4.479c4.586-1.73,11.932-5.6,21.7-9.619a62.8,62.8,0,0,1-.062-18.432c1.445-9.558,7.553-11.668,10.213-5.851,2.2,4.793,3.018,15.521,3.236,19.137a41.088,41.088,0,0,1,9.222-2.363s33.415-7.548,58.045-8.152,36.954-1.193,36.954-1.193S243.942,175.138,238.04,162.982Z" transform="translate(-102.511 -148.965)" fill="#fff" stroke="#263238" stroke-linecap="round" stroke-linejoin="round" stroke-width="1"/>
    </clipPath>
    <clipPath id="clip-path-2">
      <path id="Path_3008" data-name="Path 3008" d="M117.8,238.3a12.7,12.7,0,0,1,2.587.789,6.764,6.764,0,0,1,1.853,1.344l2.8-3.7s-4.1-1.719-4.882-2.766l-.773-1.053Z" transform="translate(-117.8 -232.91)" fill="#fff" stroke="#263238" stroke-linecap="round" stroke-linejoin="round" stroke-width="0.75"/>
    </clipPath>
    <clipPath id="clip-path-3">
      <path id="Path_3016" data-name="Path 3016" d="M110.285,259.489s-.33,2.9-.717,3.309-10.577-8.152-11.2-8.958-.2-3.684,0-4.586-.134-1.394-1.12-.773-.722,3.208-.722,3.208-3.007-.722-3.606-.806-1.12.661-1.03,1.254.879.644.879.644a4.479,4.479,0,0,0,.162,2.587,3.23,3.23,0,0,0,2.24,2.038,18.668,18.668,0,0,0,3.494.213s5.207,4.961,6.719,6.814,4.7,4.373,6.282,3.919,3.1-8.365,3.1-8.365Z" transform="translate(-91.882 -248.204)" fill="#fff" stroke="#263238" stroke-linecap="round" stroke-linejoin="round" stroke-width="0.75"/>
    </clipPath>
    <clipPath id="clip-path-4">
      <path id="Path_3022" data-name="Path 3022" d="M103.23,231.494s.342.845.913,2.329,3.639,4.614,5.14,4.793,3.3-5.274,3.583-6.4c.1-.37.19-.963.19-.963s1.887-.89,1.45-1.965-1.321-1.568-1.741-1.237-.493,1.725-1.12,1.736-.969-.185-1.523-.924S103.823,229.657,103.23,231.494Z" transform="translate(-103.23 -227.949)" fill="#fff" stroke="#263238" stroke-linecap="round" stroke-linejoin="round" stroke-width="0.75"/>
    </clipPath>
  </defs>
  <g id="Group_12136" data-name="Group 12136" transform="translate(-75 -136)">
    <g id="Mail_sent-bro_2_" data-name="Mail sent-bro (2)" transform="translate(22.337 70.218)">
      <g id="freepik--background-simple--inject-1--inject-14" transform="translate(52.663 92.321)">
        <path id="Path_2963" data-name="Path 2963" d="M232.525,248.991s17.172-4.479,30.61-26.875c15.061-25.106,8.6-68.913-11.461-90.195-18.611-19.737-59.814-23.208-83.722-13.578-22.592,9.1-39.943,30.985-53.751,33.969s-30.985-1.864-49.647,18.662S50,237.792,71.273,253.095s52.631-2.615,79.881-14.933S182.878,252.719,232.525,248.991Z" transform="translate(-52.663 -113.181)" fill="#00efb6"/>
        <g id="Group_12009" data-name="Group 12009" opacity="0.7">
          <path id="Path_2964" data-name="Path 2964" d="M232.525,248.991s17.172-4.479,30.61-26.875c15.061-25.106,8.6-68.913-11.461-90.195-18.611-19.737-59.814-23.208-83.722-13.578-22.592,9.1-39.943,30.985-53.751,33.969s-30.985-1.864-49.647,18.662S50,237.792,71.273,253.095s52.631-2.615,79.881-14.933S182.878,252.719,232.525,248.991Z" transform="translate(-52.663 -113.181)" fill="#fff"/>
        </g>
      </g>
      <g id="freepik--Character--inject-1--inject-14" transform="translate(74.099 112.357)">
        <path id="Path_2965" data-name="Path 2965" d="M251.767,272.5v-.034c-4.569-1.517-11.579-1-12.62-.381a10.19,10.19,0,0,0-2.8,2.8,33.208,33.208,0,0,0-5.2,11.584l-49.691,4.619a26.786,26.786,0,0,0-7.363-9.636,8.018,8.018,0,0,0-2.688-1.484,4.25,4.25,0,0,0-1.3.045c-1.8-5.224-4.356-10.263-7.547-10.582-6.719-.672-18.443,1.579-21.64,8.1s-4.2,22.788-4.2,22.788l-2.24,2.24a26.024,26.024,0,0,0-6.674-8.259,7.838,7.838,0,0,0-2.688-1.484,14.634,14.634,0,0,0-5.146.957c-.1-.09-.185-.179-.286-.263-2.24-1.876-6.831-2.9-9.4,1.881s.515,13.835,2.049,15.884a10.3,10.3,0,0,0,2.755,2.648c1.808,4.479,5.039,10.19,10.011,10.453a11.9,11.9,0,0,0,9.2-3.617c3.225-3.359,3.572-8.079,2.357-12.7l.521-.761s1.159,1.652,5.6.985a6.635,6.635,0,0,0,3.511-1.456c2.083,5.313,5.448,10.638,10.795,11.433a16.164,16.164,0,0,0,12.939-3.684,14.345,14.345,0,0,0,2.66-3.051,11.87,11.87,0,0,0,7.895-3.617,11.064,11.064,0,0,0,2.99-7.307l6.612-.773a28.941,28.941,0,0,0,13.219,2.475,18.785,18.785,0,0,0,11.64-5.039l15.067-1.288c.252,5.84,2.352,11.2,7.279,14.149a15.2,15.2,0,0,0,12.654,1.349c6.948-2.329,8.595-12.654,9.042-18.93C259.784,282.465,256.571,273.926,251.767,272.5Z" transform="translate(-99.03 -201.932)" fill="#263238" stroke="#263238" stroke-linecap="round" stroke-linejoin="round" stroke-width="0.75"/>
        <path id="Path_2966" data-name="Path 2966" d="M197.746,350.94a6.243,6.243,0,0,1-2.156,1.753" transform="translate(-137.001 -237.854)" fill="none" stroke="#fff" stroke-linecap="round" stroke-linejoin="round" stroke-width="0.5"/>
        <path id="Path_2967" data-name="Path 2967" d="M202.864,327.24s.666,7.279-1.814,11.9" transform="translate(-139.404 -227.424)" fill="none" stroke="#fff" stroke-linecap="round" stroke-linejoin="round" stroke-width="0.5"/>
        <path id="Path_2968" data-name="Path 2968" d="M204.394,341.6c-.633,2.8-1.892,5.515-4.334,6.719" transform="translate(-138.968 -233.743)" fill="none" stroke="#fff" stroke-linecap="round" stroke-linejoin="round" stroke-width="0.5"/>
        <path id="Path_2969" data-name="Path 2969" d="M209.406,326.25s1.12,12.1-4.866,15.022" transform="translate(-140.94 -226.988)" fill="none" stroke="#fff" stroke-linecap="round" stroke-linejoin="round" stroke-width="0.5"/>
        <path id="Path_2970" data-name="Path 2970" d="M213.881,325.75s1.12,12.105-4.871,15.022" transform="translate(-142.907 -226.768)" fill="none" stroke="#fff" stroke-linecap="round" stroke-linejoin="round" stroke-width="0.5"/>
        <path id="Path_2971" data-name="Path 2971" d="M350.772,340.9a7.777,7.777,0,0,1-2.352,1.988" transform="translate(-204.261 -233.435)" fill="none" stroke="#fff" stroke-linecap="round" stroke-linejoin="round" stroke-width="0.5"/>
        <path id="Path_2972" data-name="Path 2972" d="M357.962,313.91s-.358,8.281-3.432,13.55" transform="translate(-206.95 -221.557)" fill="none" stroke="#fff" stroke-linecap="round" stroke-linejoin="round" stroke-width="0.5"/>
        <path id="Path_2973" data-name="Path 2973" d="M358.028,330.29c-1.008,3.186-2.62,6.276-5.168,7.62" transform="translate(-206.215 -228.766)" fill="none" stroke="#fff" stroke-linecap="round" stroke-linejoin="round" stroke-width="0.5"/>
        <path id="Path_2974" data-name="Path 2974" d="M364.153,312.81s-.6,13.8-6.853,17.1" transform="translate(-208.169 -221.073)" fill="none" stroke="#fff" stroke-linecap="round" stroke-linejoin="round" stroke-width="0.5"/>
        <path id="Path_2975" data-name="Path 2975" d="M368.613,312.27s-.6,13.79-6.853,17.1" transform="translate(-210.132 -220.835)" fill="none" stroke="#fff" stroke-linecap="round" stroke-linejoin="round" stroke-width="0.5"/>
        <path id="Path_2976" data-name="Path 2976" d="M138.9,364.31a6.063,6.063,0,0,1-1.842,1.814" transform="translate(-111.242 -243.738)" fill="none" stroke="#fff" stroke-linecap="round" stroke-linejoin="round" stroke-width="0.5"/>
        <path id="Path_2977" data-name="Path 2977" d="M141.772,343.28s1.579,6.159-.2,10.465" transform="translate(-113.227 -234.483)" fill="none" stroke="#fff" stroke-linecap="round" stroke-linejoin="round" stroke-width="0.5"/>
        <path id="Path_2978" data-name="Path 2978" d="M144.577,355.09c-.252,2.492-1.12,5-3.287,6.377" transform="translate(-113.104 -239.68)" fill="none" stroke="#fff" stroke-linecap="round" stroke-linejoin="round" stroke-width="0.5"/>
        <path id="Path_2979" data-name="Path 2979" d="M148.231,341.14s2.632,10.218-2.721,13.583" transform="translate(-114.961 -233.541)" fill="none" stroke="#fff" stroke-linecap="round" stroke-linejoin="round" stroke-width="0.5"/>
        <path id="Path_2980" data-name="Path 2980" d="M152.451,340.06s2.637,10.218-2.721,13.589" transform="translate(-116.818 -233.066)" fill="none" stroke="#fff" stroke-linecap="round" stroke-linejoin="round" stroke-width="0.5"/>
        <path id="Path_2981" data-name="Path 2981" d="M181.854,309.55c1.333,7.62.5,14.138-1.853,14.557s-5.347-5.437-6.68-13.057-.5-14.138,1.859-14.557S180.521,301.924,181.854,309.55Z" transform="translate(-126.921 -213.883)" fill="#00efb6" stroke="#263238" stroke-linecap="round" stroke-linejoin="round" stroke-width="1"/>
        <path id="Path_2982" data-name="Path 2982" d="M184.56,316.1c.37,2.923.028,5.369-.773,5.47s-1.741-2.184-2.111-5.106,0-5.375.773-5.476S184.191,313.177,184.56,316.1Z" transform="translate(-130.814 -220.269)" fill="#00efb6" stroke="#263238" stroke-linecap="round" stroke-linejoin="round" stroke-width="1"/>
        <path id="Path_2983" data-name="Path 2983" d="M176.91,305.352a19.038,19.038,0,0,1,.465-2.911" transform="translate(-128.78 -216.509)" fill="none" stroke="#263238" stroke-linecap="round" stroke-linejoin="round" stroke-width="0.75"/>
        <path id="Path_2984" data-name="Path 2984" d="M180.536,327.462a37.212,37.212,0,0,1-3.292-9.815,35.453,35.453,0,0,1-.51-7.307" transform="translate(-128.694 -219.986)" fill="none" stroke="#263238" stroke-linecap="round" stroke-linejoin="round" stroke-width="0.75"/>
        <ellipse id="Ellipse_306" data-name="Ellipse 306" cx="3.18" cy="10.297" rx="3.18" ry="10.297" transform="translate(13.417 99.319) rotate(-15.49)" fill="#00efb6" stroke="#263238" stroke-linecap="round" stroke-linejoin="round" stroke-width="1"/>
        <path id="Path_2985" data-name="Path 2985" d="M127.866,338.668c.532,2.083.5,3.886-.067,4.031s-1.456-1.428-1.988-3.505-.5-3.891.067-4.031S127.334,336.585,127.866,338.668Z" transform="translate(-106.124 -230.907)" fill="none" stroke="#263238" stroke-linecap="round" stroke-linejoin="round" stroke-width="0.75"/>
        <path id="Path_2986" data-name="Path 2986" d="M121.39,331.61a13.918,13.918,0,0,1,.073-2.15" transform="translate(-104.34 -228.401)" fill="none" stroke="#263238" stroke-linecap="round" stroke-linejoin="round" stroke-width="0.75"/>
        <path id="Path_2987" data-name="Path 2987" d="M125.814,347.319a27.134,27.134,0,0,1-3.264-6.808,25.884,25.884,0,0,1-1.03-5.241" transform="translate(-104.403 -230.958)" fill="none" stroke="#263238" stroke-linecap="round" stroke-linejoin="round" stroke-width="0.75"/>
        <path id="Path_2988" data-name="Path 2988" d="M238.04,162.982c-5.9-12.178-8.449-13.236-12.374-13.438s-13.191-1.355-23.516.3c0,0-28.8-.5-51.086,13-23.264,14.093-34.585,26.472-36.17,32.889s-6.993,23.135-9.558,32.721-4.311,18.029-1.041,25.789c1.976,4.692,4.082,6.1,6.786,6.081a19.48,19.48,0,0,1-1.092-2.3c-2.688-6.657-2.363-16.181.705-16.8s4.9,5.761,6.752,12.715a27.654,27.654,0,0,0,1.489,4.479c4.586-1.73,11.932-5.6,21.7-9.619a62.8,62.8,0,0,1-.062-18.432c1.445-9.558,7.553-11.668,10.213-5.851,2.2,4.793,3.018,15.521,3.236,19.137a41.088,41.088,0,0,1,9.222-2.363s33.415-7.548,58.045-8.152,36.954-1.193,36.954-1.193S243.942,175.138,238.04,162.982Z" transform="translate(-96.037 -148.965)" fill="#fff"/>
        <g id="Group_12011" data-name="Group 12011" transform="translate(6.474 0)" clip-path="url(#clip-path)">
          <path id="Path_2989" data-name="Path 2989" d="M198.028,278.94s-3.387,4.636-7.508,5.627c1.456,5.341,2.055,13.247,2.24,16.237a46.779,46.779,0,0,1,8.511-2.3c.3-1.747.476-2.861.476-2.861Z" transform="translate(-141.243 -206.167)" fill="#00efb6"/>
          <path id="Path_2990" data-name="Path 2990" d="M126.132,313.423c1.557.157,2.592.829,5.756.039,5.6-1.394,1.573-12.2,10.862-16.612a15.639,15.639,0,0,1,5.778-1.624,56.763,56.763,0,0,1,.56-5.907,17.317,17.317,0,0,1,1.68-5.526c-2.536-.778-3-1.523-7.318.532-9.294,4.412-7.9,15.795-13.471,17.189-4.446,1.12-4.692-.666-8.068.162,1.579,2.24,2.8,6.6,4.031,11.2A3.053,3.053,0,0,1,126.132,313.423Z" transform="translate(-111.048 -207.951)" fill="#00efb6" opacity="0.2"/>
          <g id="Group_12010" data-name="Group 12010" transform="translate(0.901 95.903)">
            <path id="Path_2991" data-name="Path 2991" d="M109.159,320.25A14.489,14.489,0,0,0,104.12,327a22.309,22.309,0,0,0,.885,2.632c1.976,4.692,4.082,6.1,6.786,6.081a19.48,19.48,0,0,1-1.092-2.3A26.5,26.5,0,0,1,109.159,320.25Z" transform="translate(-104.12 -320.25)" fill="#00efb6" opacity="0.2"/>
          </g>
          <path id="Path_2992" data-name="Path 2992" d="M272.026,149.952l-1.013-.062c-40.834,10.448-57.446,59.663-63.163,83.381.308,2.357.644,4.67,1.008,6.92.694-.134.213,1.5.745,1.473,0,0,33.415-7.548,58.045-8.152s36.954-1.193,36.954-1.193-14.3-56.774-20.2-68.93S275.951,150.131,272.026,149.952Z" transform="translate(-148.87 -149.372)" fill="#00efb6" opacity="0.2"/>
        </g>
        <path id="Path_2994" data-name="Path 2994" d="M238.04,162.982c-5.9-12.178-8.449-13.236-12.374-13.438s-13.191-1.355-23.516.3c0,0-28.8-.5-51.086,13-23.264,14.093-34.585,26.472-36.17,32.889s-6.993,23.135-9.558,32.721-4.311,18.029-1.041,25.789c1.976,4.692,4.082,6.1,6.786,6.081a19.48,19.48,0,0,1-1.092-2.3c-2.688-6.657-2.363-16.181.705-16.8s4.9,5.761,6.752,12.715a27.654,27.654,0,0,0,1.489,4.479c4.586-1.73,11.932-5.6,21.7-9.619a62.8,62.8,0,0,1-.062-18.432c1.445-9.558,7.553-11.668,10.213-5.851,2.2,4.793,3.018,15.521,3.236,19.137a41.088,41.088,0,0,1,9.222-2.363s33.415-7.548,58.045-8.152,36.954-1.193,36.954-1.193S243.942,175.138,238.04,162.982Z" transform="translate(-96.037 -148.965)" fill="none" stroke="#263238" stroke-linecap="round" stroke-linejoin="round" stroke-width="1"/>
        <path id="Path_2995" data-name="Path 2995" d="M126.27,274.742a2.62,2.62,0,0,0,2.8.353c1.764-.705,1.943-3.359,1.943-3.359l2.643-.174.532-8.292-5.823,2.29S126.8,273.684,126.27,274.742Z" transform="translate(-106.493 -199.27)" fill="#00efb6" opacity="0.2"/>
        <path id="Path_2996" data-name="Path 2996" d="M108.92,327.07a29.005,29.005,0,0,0-4.72,3.135,21.631,21.631,0,0,0,.84,2.413c1.976,4.692,4.082,6.1,6.786,6.081a19.486,19.486,0,0,1-1.092-2.3A27.178,27.178,0,0,1,108.92,327.07Z" transform="translate(-96.781 -227.349)" fill="#263238" stroke="#263238" stroke-linecap="round" stroke-linejoin="round" stroke-width="0.75"/>
        <path id="Path_2997" data-name="Path 2997" d="M127.9,308.368a.845.845,0,0,1-.739-.442.834.834,0,0,1,.336-1.12c.134-.073,11.03-6.825,20.056-11.624a.84.84,0,0,1,.789,1.484c-9.02,4.793-19.91,11.54-20.045,11.612A.8.8,0,0,1,127.9,308.368Z" transform="translate(-106.845 -213.272)" fill="#263238" stroke="#263238" stroke-miterlimit="10" stroke-width="1"/>
        <path id="Path_2998" data-name="Path 2998" d="M153.691,207.182l-.386,9.614c-.084,1.31.677,1.943,1.68,1.377l15.481-10.078a4.093,4.093,0,0,0,1.747-3.561l-.1-10.722c-.112-.974-.773-1.372-1.585-.952-2.911,1.506-8.533,6.6-15.252,11.344A4.233,4.233,0,0,0,153.691,207.182Z" transform="translate(-118.389 -168.21)" fill="#00efb6" stroke="#263238" stroke-linecap="round" stroke-linejoin="round" stroke-width="1"/>
        <line id="Line_550" data-name="Line 550" x2="7.564" y2="1.848" transform="translate(45.762 36.262)" fill="none" stroke="#263238" stroke-linecap="round" stroke-linejoin="round" stroke-width="1"/>
        <line id="Line_551" data-name="Line 551" y1="10.313" x2="4.67" transform="translate(35.415 39.694)" fill="none" stroke="#263238" stroke-linecap="round" stroke-linejoin="round" stroke-width="1"/>
        <path id="Path_2999" data-name="Path 2999" d="M154.16,207.411l6.864.857a2.62,2.62,0,0,0,2.24-1.5l8.958-12.827" transform="translate(-118.768 -168.759)" fill="none" stroke="#263238" stroke-linecap="round" stroke-linejoin="round" stroke-width="1"/>
        <path id="Path_3000" data-name="Path 3000" d="M222.6,177.113l1.59,24.076a5.123,5.123,0,0,0,5.694,4.787l53.482-6.943a5.123,5.123,0,0,0,4.345-6.478l-6.752-23.874a5.112,5.112,0,0,0-5.3-3.712c-8.667.638-29.456,2.5-49.081,6.876A5.123,5.123,0,0,0,222.6,177.113Z" transform="translate(-148.887 -156.002)" fill="#00efb6" stroke="#263238" stroke-linecap="round" stroke-linejoin="round" stroke-width="1"/>
        <line id="Line_552" data-name="Line 552" x2="24.417" y2="11.568" transform="translate(113.471 28.574)" fill="none" stroke="#263238" stroke-linecap="round" stroke-linejoin="round" stroke-width="1"/>
        <line id="Line_553" data-name="Line 553" y1="18.454" x2="20.621" transform="translate(77.335 30.461)" fill="none" stroke="#263238" stroke-linecap="round" stroke-linejoin="round" stroke-width="1"/>
        <path id="Path_3001" data-name="Path 3001" d="M222.93,178.45l29.591,12.167a6.2,6.2,0,0,0,6.64-1.271l21.092-19.916" transform="translate(-149.033 -157.972)" fill="none" stroke="#263238" stroke-linecap="round" stroke-linejoin="round" stroke-width="1"/>
        <ellipse id="Ellipse_307" data-name="Ellipse 307" cx="9.104" cy="8.947" rx="9.104" ry="8.947" transform="translate(123.452 28.774) rotate(-1.41)" fill="#263238" stroke="#263238" stroke-linecap="round" stroke-linejoin="round" stroke-width="0.75"/>
        <path id="Path_3002" data-name="Path 3002" d="M322.615,213.884h-.028a1.12,1.12,0,0,1-.907-.459l-3.578-4.938a1.121,1.121,0,0,1,1.814-1.316l2.671,3.684,6.383-8.818a1.121,1.121,0,0,1,1.814,1.316l-7.279,10.078A1.12,1.12,0,0,1,322.615,213.884Z" transform="translate(-190.824 -172.118)" fill="#fff" stroke="#263238" stroke-linecap="round" stroke-linejoin="round" stroke-width="1"/>
        <path id="Path_3003" data-name="Path 3003" d="M265.93,263.983s19.037-3.651,32.082-3.393l.784,3.135s-27.39,1.3-32.609,3.919Z" transform="translate(-167.957 -198.085)" fill="#263238" stroke="#263238" stroke-linecap="round" stroke-linejoin="round" stroke-width="0.75"/>
        <path id="Path_3004" data-name="Path 3004" d="M266.39,270.117l.56,3.135a1.355,1.355,0,0,0,1.529,1.12c4.776-.683,21.539-2.984,30.235-2.772a1.361,1.361,0,0,0,1.349-1.736l-1.041-3.645" transform="translate(-168.16 -200.569)" fill="none" stroke="#263238" stroke-linecap="round" stroke-linejoin="round" stroke-width="1"/>
        <path id="Path_3005" data-name="Path 3005" d="M133.082,242.155l-.106-12.934.644-13.3a.633.633,0,0,0-1.081-.47c-2.408,2.464-6.528,6.193-7.749,9.25-1.585,3.959-3.46,23.443-3.46,23.443Z" transform="translate(-104.319 -178.145)" fill="#263238" stroke="#263238" stroke-linecap="round" stroke-linejoin="round" stroke-width="0.75"/>
        <rect id="Rectangle_25949" data-name="Rectangle 25949" width="5.336" height="13.124" rx="2.668" transform="translate(10.247 61.413)" fill="#263238" stroke="#263238" stroke-linecap="round" stroke-linejoin="round" stroke-width="0.75"/>
        <path id="Path_3006" data-name="Path 3006" d="M117.8,238.3a12.7,12.7,0,0,1,2.587.789,6.764,6.764,0,0,1,1.853,1.344l2.8-3.7s-4.1-1.719-4.882-2.766l-.773-1.053Z" transform="translate(-102.766 -185.909)" fill="#fff"/>
        <g id="Group_12012" data-name="Group 12012" transform="translate(15.034 47.001)" clip-path="url(#clip-path-2)">
          <path id="Path_3007" data-name="Path 3007" d="M120.152,234l-.722-1-.084.056-1.545,5.263s.3.056.717.157l4-2.9A8.214,8.214,0,0,1,120.152,234Z" transform="translate(-117.8 -232.95)" fill="#00efb6" opacity="0.5"/>
        </g>
        <path id="Path_3009" data-name="Path 3009" d="M117.8,238.3a12.7,12.7,0,0,1,2.587.789,6.764,6.764,0,0,1,1.853,1.344l2.8-3.7s-4.1-1.719-4.882-2.766l-.773-1.053Z" transform="translate(-102.766 -185.909)" fill="none" stroke="#263238" stroke-linecap="round" stroke-linejoin="round" stroke-width="0.75"/>
        <path id="Path_3010" data-name="Path 3010" d="M125.671,236.92l-3.421,4.362.465,1.484,5.213-5.414Z" transform="translate(-104.724 -187.674)" fill="#00efb6" stroke="#263238" stroke-linecap="round" stroke-linejoin="round" stroke-width="1"/>
        <path id="Path_3011" data-name="Path 3011" d="M110.756,214.269c-2.312-1.792-8.337-.649-9.518,3.595a21.823,21.823,0,0,0-.325,6.534l6.864-1.456.56.845c1.12,1.68,3.544.56,4.171,0,.342-.3.319-1.17.23-1.892l.274-.062S113.062,216.066,110.756,214.269Z" transform="translate(-95.285 -177.346)" fill="#263238" stroke="#263238" stroke-linecap="round" stroke-linejoin="round" stroke-width="0.75"/>
        <path id="Path_3012" data-name="Path 3012" d="M103.855,229.373a22.032,22.032,0,0,0-8.958.851c-4.479,1.5-5.168,2.8-1.96,2.721S103.855,229.373,103.855,229.373Z" transform="translate(-90.949 -184.293)" fill="#263238" stroke="#263238" stroke-linecap="round" stroke-linejoin="round" stroke-width="0.75"/>
        <ellipse id="Ellipse_308" data-name="Ellipse 308" cx="0.946" cy="1.293" rx="0.946" ry="1.293" transform="translate(6.428 40.864)" fill="#00efb6"/>
        <path id="Path_3013" data-name="Path 3013" d="M134.248,239.616s-6.131-1.557-8.018-.123-2.368,3.8-1.764,6.674,2.077,10.425,2.077,10.425l7.811-4.043Z" transform="translate(-105.592 -188.539)" fill="#263238" stroke="#263238" stroke-linecap="round" stroke-linejoin="round" stroke-width="0.75"/>
        <path id="Path_3014" data-name="Path 3014" d="M110.285,259.489s-.33,2.9-.717,3.309-10.577-8.152-11.2-8.958-.2-3.684,0-4.586-.134-1.394-1.12-.773-.722,3.208-.722,3.208-3.007-.722-3.606-.806-1.12.661-1.03,1.254.879.644.879.644a4.479,4.479,0,0,0,.162,2.587,3.23,3.23,0,0,0,2.24,2.038,18.668,18.668,0,0,0,3.494.213s5.207,4.961,6.719,6.814,4.7,4.373,6.282,3.919,3.1-8.365,3.1-8.365Z" transform="translate(-91.359 -192.64)" fill="#fff"/>
        <g id="Group_12013" data-name="Group 12013" transform="translate(0.523 55.564)" clip-path="url(#clip-path-3)">
          <path id="Path_3015" data-name="Path 3015" d="M120.165,271.638l2.979.991a2.648,2.648,0,0,1-1.825,2.923c-1.316.437-3.679-1.058-5.358-2.318l.05.062c1.54,1.859,4.7,4.373,6.282,3.919s3.1-8.365,3.1-8.365l-4.507-.56S120.551,271.229,120.165,271.638Z" transform="translate(-102.479 -257.044)" fill="#00efb6" opacity="0.5"/>
        </g>
        <path id="Path_3017" data-name="Path 3017" d="M110.285,259.489s-.33,2.9-.717,3.309-10.577-8.152-11.2-8.958-.2-3.684,0-4.586-.134-1.394-1.12-.773-.722,3.208-.722,3.208-3.007-.722-3.606-.806-1.12.661-1.03,1.254.879.644.879.644a4.479,4.479,0,0,0,.162,2.587,3.23,3.23,0,0,0,2.24,2.038,18.668,18.668,0,0,0,3.494.213s5.207,4.961,6.719,6.814,4.7,4.373,6.282,3.919,3.1-8.365,3.1-8.365Z" transform="translate(-91.359 -192.64)" fill="none" stroke="#263238" stroke-linecap="round" stroke-linejoin="round" stroke-width="0.75"/>
        <path id="Path_3018" data-name="Path 3018" d="M105.433,261.08,104,263.308l.733.5,1.467-2.1Z" transform="translate(-96.692 -198.307)" fill="#263238" stroke="#263238" stroke-miterlimit="10" stroke-width="1"/>
        <circle id="Ellipse_309" data-name="Ellipse 309" cx="0.56" cy="0.56" r="0.56" transform="translate(7.688 63.753)" fill="#fff" stroke="#263238" stroke-linecap="round" stroke-linejoin="round" stroke-width="0.75"/>
        <path id="Path_3019" data-name="Path 3019" d="M103.23,231.494s.342.845.913,2.329,3.639,4.614,5.14,4.793,3.3-5.274,3.583-6.4c.1-.37.19-.963.19-.963s1.887-.89,1.45-1.965-1.321-1.568-1.741-1.237-.493,1.725-1.12,1.736-.969-.185-1.523-.924S103.823,229.657,103.23,231.494Z" transform="translate(-96.354 -183.726)" fill="#fff"/>
        <g id="Group_12015" data-name="Group 12015" transform="translate(6.876 44.223)" clip-path="url(#clip-path-4)">
          <path id="Path_3020" data-name="Path 3020" d="M110.111,229.433c-.56-.733-6.288.8-6.881,2.632l.325.829A24.965,24.965,0,0,1,110.61,230,3.546,3.546,0,0,1,110.111,229.433Z" transform="translate(-103.23 -228.519)" fill="#00efb6" opacity="0.5"/>
          <g id="Group_12014" data-name="Group 12014" transform="translate(8.964 0.001)">
            <path id="Path_3021" data-name="Path 3021" d="M121.48,229.137c-.459-.963-1.271-1.4-1.68-1.086a3.309,3.309,0,0,0-.56,1.12,11.619,11.619,0,0,1,2.24-.034Z" transform="translate(-119.24 -227.951)" fill="#00efb6" opacity="0.5"/>
          </g>
        </g>
        <path id="Path_3023" data-name="Path 3023" d="M103.23,231.494s.342.845.913,2.329,3.639,4.614,5.14,4.793,3.3-5.274,3.583-6.4c.1-.37.19-.963.19-.963s1.887-.89,1.45-1.965-1.321-1.568-1.741-1.237-.493,1.725-1.12,1.736-.969-.185-1.523-.924S103.823,229.657,103.23,231.494Z" transform="translate(-96.354 -183.726)" fill="none" stroke="#263238" stroke-linecap="round" stroke-linejoin="round" stroke-width="0.75"/>
        <path id="Path_3024" data-name="Path 3024" d="M106.422,234.557c.1.342.067.655-.067.694s-.33-.207-.431-.56-.067-.655.067-.694S106.321,234.227,106.422,234.557Z" transform="translate(-97.513 -186.386)" fill="#263238" stroke="#263238" stroke-miterlimit="10" stroke-width="1"/>
        <path id="Path_3025" data-name="Path 3025" d="M105,233.262c.784-.224,1.12.364,1.215.907l.146.644.487,2.492.739-.314" transform="translate(-97.133 -186.042)" fill="none" stroke="#263238" stroke-linecap="round" stroke-linejoin="round" stroke-width="0.5"/>
        <path id="Path_3026" data-name="Path 3026" d="M110.7,233.228a1.607,1.607,0,0,1,1.361-.515" transform="translate(-99.641 -185.818)" fill="none" stroke="#263238" stroke-linecap="round" stroke-linejoin="round" stroke-width="0.5"/>
        <path id="Path_3027" data-name="Path 3027" d="M110.839,230.87a1.68,1.68,0,0,0-1.3,1.293" transform="translate(-99.131 -185.011)" fill="none" stroke="#263238" stroke-linecap="round" stroke-linejoin="round" stroke-width="0.5"/>
        <path id="Path_3028" data-name="Path 3028" d="M110.81,240.229s1.624-.325,1.752-1.489" transform="translate(-99.69 -188.475)" fill="none" stroke="#263238" stroke-linecap="round" stroke-linejoin="round" stroke-width="0.5"/>
        <path id="Path_3029" data-name="Path 3029" d="M128.987,259.619l-8.2-2.284s.722-14,1.988-16.366c1.971-3.679,6.489-2.021,7.34,2.6C130.913,247.939,128.987,259.619,128.987,259.619Z" transform="translate(-104.082 -188.57)" fill="#00efb6" stroke="#263238" stroke-linecap="round" stroke-linejoin="round" stroke-width="1"/>
        <path id="Path_3030" data-name="Path 3030" d="M121.14,269s4.479,1.03,7.206,1.926" transform="translate(-104.236 -201.792)" fill="none" stroke="#263238" stroke-linecap="round" stroke-linejoin="round" stroke-width="0.5"/>
        <path id="Path_3031" data-name="Path 3031" d="M133.81,238.18a9.031,9.031,0,0,1,4.406,1.641" transform="translate(-109.812 -188.228)" fill="none" stroke="#00efb6" stroke-linecap="round" stroke-linejoin="round" stroke-width="0.5"/>
        <path id="Path_3032" data-name="Path 3032" d="M206.935,295.449s-11.937,4.21-13.029,5.358-.98,5.627,1.6,7.805,20.935-2.76,34.059-4.2,41.937-3.555,53.695-4.126,17.105.98,18.135-2.688.9-7.587-1.338-8.382S257.007,281.888,206.935,295.449Z" transform="translate(-135.972 -209.691)" fill="#263238" stroke="#263238" stroke-linecap="round" stroke-linejoin="round" stroke-width="0.75"/>
        <path id="Path_3033" data-name="Path 3033" d="M192.9,314.164s.56,4.854,3.544,5.6,38.449-5.974,59.35-6.719,39.193-1.3,39.193-1.3" transform="translate(-135.817 -220.602)" fill="none" stroke="#fff" stroke-linecap="round" stroke-linejoin="round" stroke-width="0.5"/>
        <path id="Path_3034" data-name="Path 3034" d="M223.84,314.973c13.863-3.359,42.379-8.107,90.363-6.758" transform="translate(-149.434 -218.947)" fill="none" stroke="#fff" stroke-linecap="round" stroke-linejoin="round" stroke-width="0.5"/>
        <path id="Path_3035" data-name="Path 3035" d="M203.54,324.1s3.186-.773,8.029-2.094" transform="translate(-140.5 -225.122)" fill="none" stroke="#fff" stroke-linecap="round" stroke-linejoin="round" stroke-width="0.5"/>
        <path id="Path_3036" data-name="Path 3036" d="M208.628,326.74a31.54,31.54,0,0,1-.168,6.243" transform="translate(-142.665 -227.203)" fill="none" stroke="#fff" stroke-linecap="round" stroke-linejoin="round" stroke-width="0.5"/>
        <path id="Path_3037" data-name="Path 3037" d="M205.588,166.83s-2.671,3.13-2.878,5.935" transform="translate(-140.134 -156.827)" fill="none" stroke="#263238" stroke-linecap="round" stroke-linejoin="round" stroke-width="0.75"/>
        <path id="Path_3038" data-name="Path 3038" d="M201.917,181.47a343.424,343.424,0,0,0,3.309,66.007" transform="translate(-139.622 -163.271)" fill="none" stroke="#263238" stroke-linecap="round" stroke-linejoin="round" stroke-width="0.75"/>
        <path id="Path_3039" data-name="Path 3039" d="M199.867,247.058s-4.339,1.512-4.4,3.471c-.146,5.269.409,16.512,1.557,17.6s4.714-1.8,4.714-1.8,5.039.437,5.6-.694-1.54-17.049-1.853-18.438S199.867,247.058,199.867,247.058Z" transform="translate(-136.939 -191.91)" fill="#00efb6" stroke="#263238" stroke-linecap="round" stroke-linejoin="round" stroke-width="1"/>
        <path id="Path_3040" data-name="Path 3040" d="M361.844,248.481a9.552,9.552,0,0,0,3.611.952c-1.389-5.218-2.962-11.03-4.586-16.831-1.467-.1-3.359-.1-3.32.56C357.577,234.293,360.427,247.663,361.844,248.481Z" transform="translate(-208.279 -185.752)" fill="#00efb6" stroke="#263238" stroke-linecap="round" stroke-linejoin="round" stroke-width="1"/>
        <path id="Path_3041" data-name="Path 3041" d="M202.23,250.4s.19,10.078.935,14" transform="translate(-139.923 -193.606)" fill="none" stroke="#263238" stroke-linecap="round" stroke-linejoin="round" stroke-width="0.75"/>
        <path id="Path_3042" data-name="Path 3042" d="M295.71,253.382A180.792,180.792,0,0,1,349.8,254.5" transform="translate(-181.064 -194.259)" fill="none" stroke="#263238" stroke-linecap="round" stroke-linejoin="round" stroke-width="1"/>
        <path id="Path_3043" data-name="Path 3043" d="M431.55,282.75c1.719.515,3.41,1.058,5.039,1.641" transform="translate(-240.846 -207.844)" fill="none" stroke="#263238" stroke-linecap="round" stroke-linejoin="round" stroke-width="1"/>
        <path id="Path_3044" data-name="Path 3044" d="M351.44,269.17a244.3,244.3,0,0,1,38.779,5.946" transform="translate(-205.59 -201.867)" fill="none" stroke="#263238" stroke-linecap="round" stroke-linejoin="round" stroke-width="1"/>
        <path id="Path_3045" data-name="Path 3045" d="M243.76,349.894a184.7,184.7,0,0,1,49.271-.879" transform="translate(-158.2 -236.461)" fill="none" stroke="#263238" stroke-linecap="round" stroke-linejoin="round" stroke-width="1"/>
        <path id="Path_3046" data-name="Path 3046" d="M240.1,345.468s11.724-1.467,15.537-1.758" transform="translate(-156.59 -234.672)" fill="none" stroke="#263238" stroke-linecap="round" stroke-linejoin="round" stroke-width="1"/>
        <path id="Path_3047" data-name="Path 3047" d="M380.34,152.63c1.68.241,3.359.56,4.882.924" transform="translate(-218.309 -150.578)" fill="none" stroke="#263238" stroke-linecap="round" stroke-linejoin="round" stroke-width="1"/>
        <path id="Path_3048" data-name="Path 3048" d="M337.23,151.378a134.177,134.177,0,0,1,20.716.14" transform="translate(-199.336 -149.88)" fill="none" stroke="#263238" stroke-linecap="round" stroke-linejoin="round" stroke-width="1"/>
        <path id="Path_3049" data-name="Path 3049" d="M175.89,264.823s16.73-7.923,40.934-10.123" transform="translate(-128.331 -195.499)" fill="none" stroke="#263238" stroke-linecap="round" stroke-linejoin="round" stroke-width="1"/>
        <path id="Path_3050" data-name="Path 3050" d="M226.21,244.062a144.511,144.511,0,0,1,25.537-3.522" transform="translate(-150.477 -189.267)" fill="none" stroke="#263238" stroke-linecap="round" stroke-linejoin="round" stroke-width="1"/>
        <path id="Path_3051" data-name="Path 3051" d="M175.4,346.74a17.29,17.29,0,0,0,9.238,7.839" transform="translate(-128.115 -236.005)" fill="none" stroke="#263238" stroke-linecap="round" stroke-linejoin="round" stroke-width="1"/>
        <path id="Path_3052" data-name="Path 3052" d="M174.4,351.24s2.52,3.919,5.879,5.6" transform="translate(-127.675 -237.986)" fill="none" stroke="#263238" stroke-linecap="round" stroke-linejoin="round" stroke-width="1"/>
        <path id="Path_3053" data-name="Path 3053" d="M321.9,326.24s1.68,7.839,8.4,11.2" transform="translate(-192.59 -226.983)" fill="none" stroke="#263238" stroke-linecap="round" stroke-linejoin="round" stroke-width="1"/>
        <path id="Path_3054" data-name="Path 3054" d="M323.4,338.74a12.951,12.951,0,0,0,5.319,4.479" transform="translate(-193.25 -232.485)" fill="none" stroke="#263238" stroke-linecap="round" stroke-linejoin="round" stroke-width="1"/>
        <path id="Path_3055" data-name="Path 3055" d="M125.56,365.7s1.68,2.8,7.559,2.8" transform="translate(-106.181 -244.35)" fill="none" stroke="#263238" stroke-linecap="round" stroke-linejoin="round" stroke-width="1"/>
        <path id="Path_3056" data-name="Path 3056" d="M123.56,368.7a13.511,13.511,0,0,0,7.559,3.079" transform="translate(-105.301 -245.67)" fill="none" stroke="#263238" stroke-linecap="round" stroke-linejoin="round" stroke-width="1"/>
      </g>
      <g id="freepik--Floor--inject-1--inject-14" transform="translate(68.087 228.072)">
        <path id="Path_3057" data-name="Path 3057" d="M224.087,356.048a237.063,237.063,0,0,0-44.087,6.6l.347.521s12.318-2.615,35.083,2.984S239.7,376.227,264.7,376.227s49.271-5.969,49.271-5.969l-3.035-1.68C288.487,359.077,257.715,354.167,224.087,356.048Z" transform="translate(-124.127 -355.642)" fill="#00efb6"/>
        <path id="Path_3058" data-name="Path 3058" d="M224.087,356.048a237.063,237.063,0,0,0-44.087,6.6l.347.521s12.318-2.615,35.083,2.984S239.7,376.227,264.7,376.227s49.271-5.969,49.271-5.969l-3.035-1.68C288.487,359.077,257.715,354.167,224.087,356.048Z" transform="translate(-124.127 -355.642)" fill="#fff" opacity="0.5"/>
        <path id="Path_3059" data-name="Path 3059" d="M160.9,378.823s29.395-4.479,54.87,12.6" transform="translate(-115.721 -365.607)" fill="none" stroke="#263238" stroke-linecap="round" stroke-linejoin="round" stroke-width="1"/>
        <path id="Path_3060" data-name="Path 3060" d="M215.9,390.74s12.038,3.639,19.317,11.478" transform="translate(-139.927 -371.085)" fill="none" stroke="#263238" stroke-linecap="round" stroke-linejoin="round" stroke-width="1"/>
        <path id="Path_3061" data-name="Path 3061" d="M342.9,365.24s17.077,1.68,32.474,10.918" transform="translate(-195.819 -359.862)" fill="none" stroke="#263238" stroke-linecap="round" stroke-linejoin="round" stroke-width="1"/>
        <path id="Path_3062" data-name="Path 3062" d="M438,391.08a71.02,71.02,0,0,1,8.757,6.321" transform="translate(-237.672 -371.234)" fill="none" stroke="#263238" stroke-linecap="round" stroke-linejoin="round" stroke-width="1"/>
        <path id="Path_3063" data-name="Path 3063" d="M80.21,388.689c20.408-17.357,57.284-30.235,99.959-32.648,38.952-2.212,74.086,4.765,96.863,17.357" transform="translate(-80.21 -355.635)" fill="none" stroke="#263238" stroke-linecap="round" stroke-linejoin="round" stroke-width="1"/>
        <path id="Path_3064" data-name="Path 3064" d="M302.4,364.74s17.637.84,29.395,4.759" transform="translate(-177.995 -359.642)" fill="none" stroke="#263238" stroke-linecap="round" stroke-linejoin="round" stroke-width="1"/>
      </g>
      <g id="freepik--Clouds--inject-1--inject-14" transform="translate(55.528 65.782)">
        <path id="Path_3065" data-name="Path 3065" d="M114.778,121.028s-.56-7.743-11.9-8.023-8.3,7.749-11.344,9.686-3.875-1.12-6.92.829-1.68,5.812-4.149,6.366-5.812-2.492-8.852-.56-3.046,3.595-4.429,3.595-4.149-1.12-5.806,0-3.6,2.475-3.6,2.475h69.988s.829-2.492-2.24-4.149-4.429-.28-5.532-1.68S123.076,124.628,114.778,121.028Z" transform="translate(-57.78 -86.562)" fill="#00efb6"/>
        <path id="Path_3066" data-name="Path 3066" d="M206.9,70.613s-.336-4.658-7.156-4.826-4.994,4.664-6.825,5.829-2.329-.666-4.16.5-1,3.494-2.5,3.824-3.494-1.495-5.325-.33-1.831,2.161-2.665,2.161-2.5-.661-3.494,0-2.161,1.5-2.161,1.5h42.1a2.151,2.151,0,0,0-1.333-2.5c-1.831-1-2.66-.168-3.326-1S211.9,72.78,206.9,70.613Z" transform="translate(-108.321 -65.782)" fill="#00efb6"/>
        <path id="Path_3067" data-name="Path 3067" d="M114.778,121.028s-.56-7.743-11.9-8.023-8.3,7.749-11.344,9.686-3.875-1.12-6.92.829-1.68,5.812-4.149,6.366-5.812-2.492-8.852-.56-3.046,3.595-4.429,3.595-4.149-1.12-5.806,0-3.6,2.475-3.6,2.475h69.988s.829-2.492-2.24-4.149-4.429-.28-5.532-1.68S123.076,124.628,114.778,121.028Z" transform="translate(-57.78 -86.562)" fill="#fff" opacity="0.7"/>
        <path id="Path_3068" data-name="Path 3068" d="M206.9,70.613s-.336-4.658-7.156-4.826-4.994,4.664-6.825,5.829-2.329-.666-4.16.5-1,3.494-2.5,3.824-3.494-1.495-5.325-.33-1.831,2.161-2.665,2.161-2.5-.661-3.494,0-2.161,1.5-2.161,1.5h42.1a2.151,2.151,0,0,0-1.333-2.5c-1.831-1-2.66-.168-3.326-1S211.9,72.78,206.9,70.613Z" transform="translate(-108.321 -65.782)" fill="#fff" opacity="0.8"/>
      </g>
    </g>
  </g>
</svg>
