<svg xmlns="http://www.w3.org/2000/svg" xmlns:xlink="http://www.w3.org/1999/xlink" width="223.483" height="184.963" viewBox="0 0 223.483 184.963">
  <defs>
    <clipPath id="clip-path">
      <path id="Path_2499" data-name="Path 2499" d="M289.293,296.849c-.317-1.269-6.5-4.6-6.5-4.6s-5.71-8.38-8.877-11.415a46.686,46.686,0,0,0-5.549-4.6s6.818-.634,6.818-1.742-1.586-1.269-2.7-1.586-9.194-.156-9.194-.156H217.476L172.3,275.288l-13.947.952s-.634-1.742-1.9-1.742a24.49,24.49,0,0,1-3.172-.317s-.634-1.425,1.586-3.49,13.636-9.033,13.636-9.033a4.693,4.693,0,0,0-1.269-2.855,6.949,6.949,0,0,0-2.855-1.9l-5.07-.79c-.8,0-13.169,6.656-30.755,20.292,0,0-23.781,1.9-35.514,5.866s-16.964,8.242-19.34,14.264c0,0,.317,2.065-.317,2.7s-4.914,2.059-5.866,3.645.8,13.474.8,13.474-1.9,1.269-1.113,2.544,6.183,3.645,10.625,4.435a53.413,53.413,0,0,0,8.38.8h.215A34.119,34.119,0,0,1,85.723,317a22.038,22.038,0,1,1,44.076,0c0,2.484-.081,4.693-.224,6.674h1.8l7.452-.473,89.493-.946c-.156-1.6-.239-3.34-.239-5.238a22.828,22.828,0,1,1,45.656,0,23.065,23.065,0,0,1-.242,3.3l8.165-1.712,6.662-7.135a10.325,10.325,0,0,0,.79-3.807C289.131,305.57,289.61,298.118,289.293,296.849Z" transform="translate(-66.999 -256.11)" fill="#fff" stroke="#263238" stroke-linecap="round" stroke-linejoin="round" stroke-width="1"/>
    </clipPath>
  </defs>
  <g id="By_my_car-bro" data-name="By my car-bro" transform="translate(-66 -93.055)">
    <g id="freepik--Trees--inject-36" transform="translate(71.842 104.535)">
      <path id="Path_2474" data-name="Path 2474" d="M354.216,261.534h37.83c-.724-4.627-3.7-3.813-4.094-10.984-.2-3.591,3.148-8.075,2.855-12.822-.239-3.909-4.088-7.913-4.388-12.385-.269-4.034,2.993-8.506,2.7-12.857-.305-4.106-4.19-8.051-4.555-12.325-.335-4.19,2.885-8.685,2.5-12.9s-4.352-8.087-4.789-12.235c-.437-4.274,2.682-8.871,2.2-12.953-.5-4.34-4.6-8.087-5.154-12.079-.6-4.453,2.281-9.206,1.6-13.049-.832-4.7-5.214-8.111-6.135-11.582-1.718-6.465-1.5-12.7-3.532-13.109-2.161-.431-2.658,5.68-4.3,12.51-.826,3.436-5.106,6.914-5.812,11.618-.569,3.813,2.46,8.452,1.963,12.881-.443,3.969-4.435,7.781-4.825,12.1-.365,4.058,2.873,8.536,2.556,12.774-.311,4.124-4.19,8.057-4.447,12.247s3.071,8.572,2.843,12.708c-.233,4.238-4.034,8.242-4.232,12.319-.2,4.316,3.2,8.667,3.035,12.666-.186,4.435-3.933,8.5-4.07,12.373-.168,4.7,3.286,9.05,3.178,12.63-.227,7.781-3.789,6.165-3.915,12.42Z" transform="translate(-187.147 -112.234)" fill="#00efb6"/>
      <line id="Line_537" data-name="Line 537" y2="135.099" transform="translate(183.308 12.454)" fill="none" stroke="#000" stroke-miterlimit="10" stroke-width="1"/>
      <path id="Path_2475" data-name="Path 2475" d="M384.359,155.761l-6.159,5.321-5.04-6.722" transform="translate(-195.144 -129.144)" fill="none" stroke="#000" stroke-miterlimit="10" stroke-width="1"/>
      <path id="Path_2476" data-name="Path 2476" d="M384.359,195.051l-6.159,5.315-5.04-6.716" transform="translate(-195.144 -144.916)" fill="none" stroke="#000" stroke-miterlimit="10" stroke-width="1"/>
      <path id="Path_2477" data-name="Path 2477" d="M384.359,232l-6.159,5.315-5.04-6.716" transform="translate(-195.144 -159.749)" fill="none" stroke="#000" stroke-miterlimit="10" stroke-width="1"/>
      <path id="Path_2478" data-name="Path 2478" d="M384.359,275.961l-6.159,5.315-5.04-6.716" transform="translate(-195.144 -177.396)" fill="none" stroke="#000" stroke-miterlimit="10" stroke-width="1"/>
      <path id="Path_2479" data-name="Path 2479" d="M384.359,320.391l-6.159,5.315-5.04-6.716" transform="translate(-195.144 -195.231)" fill="none" stroke="#000" stroke-miterlimit="10" stroke-width="1"/>
      <path id="Path_2480" data-name="Path 2480" d="M311.326,284.358h29.2c-.563-3.591-2.855-2.945-3.16-8.476-.156-2.789,2.424-6.237,2.2-9.9-.186-2.993-3.154-6.105-3.388-9.577-.21-3.113,2.328-6.584,2.083-9.924-.233-3.172-3.244-6.213-3.514-9.511s2.227-6.71,1.933-9.96-3.364-6.237-3.687-9.446,2.071-6.842,1.7-10c-.389-3.352-3.55-6.243-3.975-9.326-.479-3.436,1.76-7.105,1.233-10.068-.64-3.633-4.022-6.261-4.729-8.943-1.329-4.992-1.161-9.8-2.729-10.122-1.67-.335-2.053,4.388-3.316,9.661-.634,2.646-3.945,5.333-4.489,8.979-.437,2.945,1.9,6.524,1.514,9.942-.341,3.065-3.418,5.986-3.723,9.338-.281,3.131,2.221,6.584,1.975,9.865-.239,3.178-3.226,6.213-3.436,9.446s2.394,6.62,2.2,9.817-3.113,6.357-3.262,9.505c-.162,3.328,2.466,6.692,2.34,9.781-.144,3.418-3.035,6.554-3.143,9.547-.132,3.633,2.538,6.985,2.454,9.751-.18,5.986-2.927,4.759-3.023,9.577Z" transform="translate(-170.026 -135.058)" fill="#00efb6"/>
      <line id="Line_538" data-name="Line 538" y2="104.284" transform="translate(153.84 43.67)" fill="none" stroke="#000" stroke-miterlimit="10" stroke-width="1"/>
      <path id="Path_2481" data-name="Path 2481" d="M334.583,202.727l-4.753,4.106-3.891-5.184" transform="translate(-176.188 -148.128)" fill="none" stroke="#000" stroke-miterlimit="10" stroke-width="1"/>
      <path id="Path_2482" data-name="Path 2482" d="M334.583,233.053l-4.753,4.1-3.891-5.184" transform="translate(-176.188 -160.299)" fill="none" stroke="#000" stroke-miterlimit="10" stroke-width="1"/>
      <path id="Path_2483" data-name="Path 2483" d="M334.583,261.573l-4.753,4.1-3.891-5.184" transform="translate(-176.188 -171.748)" fill="none" stroke="#000" stroke-miterlimit="10" stroke-width="1"/>
      <path id="Path_2484" data-name="Path 2484" d="M334.583,295.507l-4.753,4.106-3.891-5.184" transform="translate(-176.188 -185.372)" fill="none" stroke="#000" stroke-miterlimit="10" stroke-width="1"/>
      <path id="Path_2485" data-name="Path 2485" d="M334.583,329.8l-4.753,4.106-3.891-5.19" transform="translate(-176.188 -199.137)" fill="none" stroke="#000" stroke-miterlimit="10" stroke-width="1"/>
      <path id="Path_2486" data-name="Path 2486" d="M76.335,298.729h23.781c-.461-2.909-2.328-2.394-2.574-6.9-.126-2.269,1.975-5.076,1.8-8.063-.15-2.454-2.574-4.974-2.759-7.781-.174-2.532,1.9-5.345,1.694-8.081-.192-2.58-2.646-5.064-2.861-7.746s1.8-5.459,1.574-8.111-2.735-5.082-2.993-7.692,1.688-5.573,1.389-8.141c-.317-2.724-2.891-5.082-3.238-7.59-.389-2.8,1.431-5.788,1.006-8.2-.521-2.957-3.274-5.1-3.855-7.279-1.077-4.07-.946-7.985-2.221-8.242s-1.67,3.591-2.7,7.865c-.521,2.155-3.208,4.34-3.651,7.3-.359,2.394,1.544,5.309,1.233,8.093-.281,2.5-2.789,4.9-3.035,7.608-.227,2.55,1.8,5.387,1.61,8.027s-2.628,5.064-2.8,7.7,1.927,5.387,1.8,7.985-2.538,5.184-2.658,7.746c-.132,2.712,2.011,5.447,1.9,7.961-.114,2.783-2.466,5.339-2.556,7.781-.1,2.957,2.065,5.686,2,7.937-.144,4.884-2.394,3.873-2.46,7.781Z" transform="translate(-75.76 -149.428)" fill="#00efb6"/>
      <line id="Line_539" data-name="Line 539" y2="84.914" transform="translate(10.786 63.291)" fill="none" stroke="#000" stroke-miterlimit="10" stroke-width="1"/>
      <path id="Path_2487" data-name="Path 2487" d="M95.259,232.25l-3.873,3.34-3.166-4.22" transform="translate(-80.762 -160.058)" fill="none" stroke="#000" stroke-miterlimit="10" stroke-width="1"/>
      <path id="Path_2488" data-name="Path 2488" d="M95.259,256.94l-3.873,3.346L88.22,256.06" transform="translate(-80.762 -169.969)" fill="none" stroke="#000" stroke-miterlimit="10" stroke-width="1"/>
      <path id="Path_2489" data-name="Path 2489" d="M95.259,280.16l-3.873,3.346L88.22,279.28" transform="translate(-80.762 -179.29)" fill="none" stroke="#000" stroke-miterlimit="10" stroke-width="1"/>
      <path id="Path_2490" data-name="Path 2490" d="M95.259,307.79l-3.873,3.346L88.22,306.91" transform="translate(-80.762 -190.382)" fill="none" stroke="#000" stroke-miterlimit="10" stroke-width="1"/>
      <path id="Path_2491" data-name="Path 2491" d="M95.259,335.72l-3.873,3.34-3.166-4.22" transform="translate(-80.762 -201.593)" fill="none" stroke="#000" stroke-miterlimit="10" stroke-width="1"/>
    </g>
    <g id="freepik--Car--inject-36" transform="translate(66 190.656)">
      <path id="Path_2492" data-name="Path 2492" d="M286.875,382.25c0,2.352-49.436,4.256-110.425,4.256S66,384.584,66,382.25,115.442,378,176.425,378,286.875,379.9,286.875,382.25Z" transform="translate(-66 -305.04)" fill="#00efb6"/>
      <path id="Path_2493" data-name="Path 2493" d="M286.875,382.25c0,2.352-49.436,4.256-110.425,4.256S66,384.584,66,382.25,115.442,378,176.425,378,286.875,379.9,286.875,382.25Z" transform="translate(-66 -305.04)" fill="#fff" opacity="0.5"/>
      <path id="Path_2494" data-name="Path 2494" d="M96.82,345.544l43.163-.455,98.765-1.437,38.417-3.268,6.734,1.329s3.705-3.029,3.418-10.661S281.1,310.7,263.008,309.569s-28.271,10.738-32.509,16.676-86.506,7.632-86.506,7.632S142.3,317.2,127.317,313.245s-24.589,1.131-30.24,7.327S93.12,342.9,93.12,342.9Z" transform="translate(-76.791 -277.54)" fill="#263238" stroke="#263238" stroke-linecap="round" stroke-linejoin="round" stroke-width="1"/>
      <path id="Path_2495" data-name="Path 2495" d="M212.627,279.831s3.807-.79,4.124,1.113.162,2.855-.79,3.328a7.183,7.183,0,0,1-4.6.317,2.149,2.149,0,0,1-1.113-3.49A5.483,5.483,0,0,1,212.627,279.831Z" transform="translate(-123.696 -265.567)" fill="#fff" stroke="#263238" stroke-linecap="round" stroke-linejoin="round" stroke-width="1"/>
      <path id="Path_2496" data-name="Path 2496" d="M289.293,296.849c-.317-1.269-6.5-4.6-6.5-4.6s-5.71-8.38-8.877-11.415a46.686,46.686,0,0,0-5.549-4.6s6.818-.634,6.818-1.742-1.586-1.269-2.7-1.586-9.194-.156-9.194-.156H217.476L172.3,275.288l-13.947.952s-.634-1.742-1.9-1.742a24.49,24.49,0,0,1-3.172-.317s-.634-1.425,1.586-3.49,13.636-9.033,13.636-9.033a4.693,4.693,0,0,0-1.269-2.855,6.949,6.949,0,0,0-2.855-1.9l-5.07-.79c-.8,0-13.169,6.656-30.755,20.292,0,0-23.781,1.9-35.514,5.866s-16.964,8.242-19.34,14.264c0,0,.317,2.065-.317,2.7s-4.914,2.059-5.866,3.645.8,13.474.8,13.474-1.9,1.269-1.113,2.544,6.183,3.645,10.625,4.435a53.413,53.413,0,0,0,8.38.8h.215A34.119,34.119,0,0,1,85.723,317a22.038,22.038,0,1,1,44.076,0c0,2.484-.081,4.693-.224,6.674h1.8l7.452-.473,89.493-.946c-.156-1.6-.239-3.34-.239-5.238a22.828,22.828,0,1,1,45.656,0,23.065,23.065,0,0,1-.242,3.3l8.165-1.712,6.662-7.135a10.325,10.325,0,0,0,.79-3.807C289.131,305.57,289.61,298.118,289.293,296.849Z" transform="translate(-66.401 -256.11)" fill="#fff"/>
      <g id="Group_11994" data-name="Group 11994" transform="translate(0.598 0)" clip-path="url(#clip-path)">
        <path id="Path_2497" data-name="Path 2497" d="M289.131,330.144c0-1.018.114-3.34.2-5.591-33.436-21.327-53.028-10.08-78.072-2.9-27.145,7.781-60.456-5.387-90.984-8.38-17.119-1.676-34.8,3.591-47.03,8.578-.952.676-4.831,2.035-5.734,3.538s.8,13.474.8,13.474-1.9,1.269-1.113,2.544,6.183,3.645,10.625,4.435a53.42,53.42,0,0,0,8.38.8h.215a34.119,34.119,0,0,1-.688-7.129,22.038,22.038,0,1,1,44.076,0c0,2.484-.081,4.693-.224,6.674h1.8l7.452-.473,89.493-.946c-.156-1.6-.239-3.34-.239-5.238a22.828,22.828,0,1,1,45.656,0,23.065,23.065,0,0,1-.242,3.3l8.165-1.712,6.662-7.135A10.325,10.325,0,0,0,289.131,330.144Z" transform="translate(-66.999 -278.625)" fill="#00efb6"/>
        <path id="Path_2498" data-name="Path 2498" d="M289.131,330.144c0-1.018.114-3.34.2-5.591-33.436-21.327-53.028-10.08-78.072-2.9-27.145,7.781-60.456-5.387-90.984-8.38-17.119-1.676-34.8,3.591-47.03,8.578-.952.676-4.831,2.035-5.734,3.538s.8,13.474.8,13.474-1.9,1.269-1.113,2.544,6.183,3.645,10.625,4.435a53.42,53.42,0,0,0,8.38.8h.215a34.119,34.119,0,0,1-.688-7.129,22.038,22.038,0,1,1,44.076,0c0,2.484-.081,4.693-.224,6.674h1.8l7.452-.473,89.493-.946c-.156-1.6-.239-3.34-.239-5.238a22.828,22.828,0,1,1,45.656,0,23.065,23.065,0,0,1-.242,3.3l8.165-1.712,6.662-7.135A10.325,10.325,0,0,0,289.131,330.144Z" transform="translate(-66.999 -278.625)" fill="#fff" opacity="0.5"/>
        <ellipse id="Ellipse_273" data-name="Ellipse 273" cx="11.864" cy="25.924" rx="11.864" ry="25.924" transform="translate(105.266 21.794)" opacity="0.2"/>
      </g>
      <path id="Path_2500" data-name="Path 2500" d="M289.293,296.849c-.317-1.269-6.5-4.6-6.5-4.6s-5.71-8.38-8.877-11.415a46.686,46.686,0,0,0-5.549-4.6s6.818-.634,6.818-1.742-1.586-1.269-2.7-1.586-9.194-.156-9.194-.156H217.476L172.3,275.288l-13.947.952s-.634-1.742-1.9-1.742a24.49,24.49,0,0,1-3.172-.317s-.634-1.425,1.586-3.49,13.636-9.033,13.636-9.033a4.693,4.693,0,0,0-1.269-2.855,6.949,6.949,0,0,0-2.855-1.9l-5.07-.79c-.8,0-13.169,6.656-30.755,20.292,0,0-23.781,1.9-35.514,5.866s-16.964,8.242-19.34,14.264c0,0,.317,2.065-.317,2.7s-4.914,2.059-5.866,3.645.8,13.474.8,13.474-1.9,1.269-1.113,2.544,6.183,3.645,10.625,4.435a53.413,53.413,0,0,0,8.38.8h.215A34.119,34.119,0,0,1,85.723,317a22.038,22.038,0,1,1,44.076,0c0,2.484-.081,4.693-.224,6.674h1.8l7.452-.473,89.493-.946c-.156-1.6-.239-3.34-.239-5.238a22.828,22.828,0,1,1,45.656,0,23.065,23.065,0,0,1-.242,3.3l8.165-1.712,6.662-7.135a10.325,10.325,0,0,0,.79-3.807C289.131,305.57,289.61,298.118,289.293,296.849Z" transform="translate(-66.401 -256.11)" fill="none" stroke="#263238" stroke-linecap="round" stroke-linejoin="round" stroke-width="1"/>
      <path id="Path_2501" data-name="Path 2501" d="M211.345,261.024s-15.377,8.877-22.985,19.34l124.761-6.656-7.967-.952H266.193l-45.18,2.532-13.947.952s-.634-1.742-1.9-1.742a24.49,24.49,0,0,1-3.172-.317s-.634-1.425,1.586-3.49,13.636-9.033,13.636-9.033a4.693,4.693,0,0,0-1.269-2.855,6.949,6.949,0,0,0-2.855-1.9l-5.07-.79S211.345,258.169,211.345,261.024Z" transform="translate(-115.118 -256.11)" fill="#fff" stroke="#263238" stroke-linecap="round" stroke-linejoin="round" stroke-width="1"/>
      <path id="Path_2502" data-name="Path 2502" d="M275.24,270.66a2.759,2.759,0,0,0-2.993,2.227,20.54,20.54,0,0,0-.437,3.639c0,2.394,3.49,4.124,3.49,4.124l-1.748,2.538,7.3-.317a5.584,5.584,0,0,0-.317-1.9l-.317-.635s.952-1.107-.634-4.441-2.993-5.07-4.28-5.232Z" transform="translate(-148.617 -261.945)" fill="#263238" stroke="#263238" stroke-linecap="round" stroke-linejoin="round" stroke-width="1"/>
      <path id="Path_2503" data-name="Path 2503" d="M327.66,278.721l2.394,2.538,32.5-.952,4.28-.317s1.742,0,1.107-1.425a2.885,2.885,0,0,0-2.221-1.586,7.1,7.1,0,0,0-1.425-2.538,2.993,2.993,0,0,0-1.9-.79c-.473,0-1.269-2.538-2.394-2.538a19.011,19.011,0,0,0-5.076,1.586c-.479.317-3.645-2.538-5.86-2.065s-14.743,5.71-16.329,6.345S327.66,278.721,327.66,278.721Z" transform="translate(-171.037 -261.919)" fill="#263238" stroke="#263238" stroke-linecap="round" stroke-linejoin="round" stroke-width="1"/>
      <path id="Path_2504" data-name="Path 2504" d="M345.118,275.872s-.317-7.608-1.269-8.38-2.694-1.586-3.328-1.107l-.635.473a1.7,1.7,0,0,0-2.221-.156c-1.425.8-2.059,4.435-2.059,6.022a3.591,3.591,0,0,0,1.107,2.538l-2.694,1.586,1.425,2.215Z" transform="translate(-173.59 -260.177)" fill="#263238" stroke="#263238" stroke-linecap="round" stroke-linejoin="round" stroke-width="1"/>
      <path id="Path_2505" data-name="Path 2505" d="M207.065,276.24s-.634-1.742-1.9-1.742a24.49,24.49,0,0,1-3.172-.317s-.634-1.425,1.586-3.49,13.636-9.033,13.636-9.033a4.693,4.693,0,0,0-1.269-2.855,6.949,6.949,0,0,0-2.855-1.9l-5.07-.79s3.328,2.059,3.328,4.914c0,0-15.377,8.877-22.985,19.34l20.417-1.089Z" transform="translate(-115.118 -256.11)" fill="#263238" stroke="#263238" stroke-linecap="round" stroke-linejoin="round" stroke-width="1"/>
      <path id="Path_2506" data-name="Path 2506" d="M198.074,283.544s2.394-.634,3.8.635,1.9,4.28,1.113,4.789-4.28.473-4.28.473l1.742,1.586-3.963.156-.162-1.742s-2.215-1.425-1.9-3.172S198.074,283.544,198.074,283.544Z" transform="translate(-117.542 -267.059)" fill="#fff" stroke="#263238" stroke-linecap="round" stroke-linejoin="round" stroke-width="1"/>
      <path id="Path_2507" data-name="Path 2507" d="M379.911,301.254s-8.715-6.495-24.41-4.6-28.061,7.781-33.131,32.976" transform="translate(-168.913 -272.247)" fill="none" stroke="#263238" stroke-linecap="round" stroke-linejoin="round" stroke-width="1"/>
      <path id="Path_2508" data-name="Path 2508" d="M269.145,355.838s1.425-.952.952-1.9a4.148,4.148,0,0,0-3.645-2.215c-1.9,0-81.011,2.694-81.011,2.694l.479,3.484Z" transform="translate(-113.946 -294.49)" fill="none" stroke="#263238" stroke-linecap="round" stroke-linejoin="round" stroke-width="1"/>
      <path id="Path_2509" data-name="Path 2509" d="M142.492,334.6s0-9.356-3.166-15.377-7.781-11.57-18.711-15.563S90.338,306.2,90.338,306.2a25.41,25.41,0,0,0-11.253,9.715l-.634,1.107" transform="translate(-70.998 -274.68)" fill="none" stroke="#263238" stroke-linecap="round" stroke-linejoin="round" stroke-width="1"/>
      <path id="Path_2510" data-name="Path 2510" d="M87.779,318.794c-3.244,2.993-6.74,4.5-7.781,3.346s.688-4.531,3.933-7.536,6.734-4.5,7.781-3.346S91.017,315.79,87.779,318.794Z" transform="translate(-71.497 -278.091)" fill="none" stroke="#263238" stroke-linecap="round" stroke-linejoin="round" stroke-width="1"/>
      <path id="Path_2511" data-name="Path 2511" d="M67.84,345.626c.317,3.358.8,6.656.8,6.656s4.6,1.425,6.183,1.269,2.215-.634,2.849-3.328-.79-3.651-.79-3.651l-9.038-.952Z" transform="translate(-66.739 -292.041)" fill="#263238" stroke="#263238" stroke-linecap="round" stroke-linejoin="round" stroke-width="1"/>
      <path id="Path_2512" data-name="Path 2512" d="M287.74,308.164h-1.586a2.46,2.46,0,0,1-2.454-2.454h0a2.46,2.46,0,0,1,2.454-2.46h1.586a2.46,2.46,0,0,1,2.46,2.46h0a2.46,2.46,0,0,1-2.46,2.454Z" transform="translate(-153.39 -275.033)" fill="#fff" stroke="#263238" stroke-linecap="round" stroke-linejoin="round" stroke-width="1"/>
      <path id="Path_2513" data-name="Path 2513" d="M282.671,307.488a1.131,1.131,0,1,1,0-2.263l8.56-.156a1.143,1.143,0,0,1,1.149,1.107,1.131,1.131,0,0,1-1.107,1.155l-8.56.156Z" transform="translate(-152.523 -275.764)" fill="#fff" stroke="#263238" stroke-linecap="round" stroke-linejoin="round" stroke-width="1"/>
      <circle id="Ellipse_274" data-name="Ellipse 274" cx="18.285" cy="18.285" r="18.285" transform="matrix(0.987, -0.16, 0.16, 0.987, 163.895, 46.807)" fill="#263238" stroke="#263238" stroke-linecap="round" stroke-linejoin="round" stroke-width="1.003"/>
      <circle id="Ellipse_275" data-name="Ellipse 275" cx="12.522" cy="12.522" r="12.522" transform="matrix(0.987, -0.161, 0.161, 0.987, 170.152, 50.531)" fill="#fff" stroke="#263238" stroke-linecap="round" stroke-linejoin="round" stroke-width="1"/>
      <circle id="Ellipse_276" data-name="Ellipse 276" cx="7.452" cy="7.452" r="7.452" transform="translate(173.984 60.876) rotate(-45)" fill="none" stroke="#263238" stroke-linecap="round" stroke-linejoin="round" stroke-width="1"/>
      <path id="Path_2514" data-name="Path 2514" d="M375.368,355.57a3.328,3.328,0,1,0-.977,2.355A3.334,3.334,0,0,0,375.368,355.57Z" transform="translate(-187.511 -294.695)" fill="none" stroke="#263238" stroke-linecap="round" stroke-linejoin="round" stroke-width="1"/>
      <circle id="Ellipse_277" data-name="Ellipse 277" cx="18.285" cy="18.285" r="18.285" transform="matrix(0.987, -0.16, 0.16, 0.987, 20.297, 46.558)" fill="#263238" stroke="#263238" stroke-linecap="round" stroke-linejoin="round" stroke-width="1.003"/>
      <circle id="Ellipse_278" data-name="Ellipse 278" cx="12.522" cy="12.522" r="12.522" transform="translate(26.275 51.606) rotate(-13.4)" fill="#fff" stroke="#263238" stroke-linecap="round" stroke-linejoin="round" stroke-width="1"/>
      <circle id="Ellipse_279" data-name="Ellipse 279" cx="7.452" cy="7.452" r="7.452" transform="translate(32.421 55.338) rotate(-13.36)" fill="none" stroke="#263238" stroke-linecap="round" stroke-linejoin="round" stroke-width="1"/>
      <path id="Path_2515" data-name="Path 2515" d="M136.216,355.578a3.328,3.328,0,1,0-3.328,3.328A3.328,3.328,0,0,0,136.216,355.578Z" transform="translate(-91.515 -294.703)" fill="none" stroke="#263238" stroke-linecap="round" stroke-linejoin="round" stroke-width="1"/>
      <path id="Path_2516" data-name="Path 2516" d="M297.852,291a30.874,30.874,0,0,1,1.724,13.258c-.6,7.734-5.16,23.572-5.16,23.572a3.286,3.286,0,0,1-.856,4.19" transform="translate(-157.348 -270.116)" fill="none" stroke="#263238" stroke-linecap="round" stroke-linejoin="round" stroke-width="1"/>
      <path id="Path_2517" data-name="Path 2517" d="M186.136,296.63a19.307,19.307,0,0,0-2.287,3.28c-.772,1.55-1.03,20.435-1.03,20.435" transform="translate(-112.894 -272.376)" fill="none" stroke="#263238" stroke-linecap="round" stroke-linejoin="round" stroke-width="1"/>
      <path id="Path_2518" data-name="Path 2518" d="M172.729,279.176c1.2-.521,2.993-2.993,9.314-8.278s16.425-11,16.425-11l-1.921-1.712c-4.633,2.508-14.893,8.811-28.133,19.047l-2.053,2.2S171.532,279.691,172.729,279.176Z" transform="translate(-106.287 -256.945)" fill="#263238" stroke="#263238" stroke-linecap="round" stroke-linejoin="round" stroke-width="1"/>
      <path id="Path_2519" data-name="Path 2519" d="M164.61,290c-.419.03-3.412.281-7.62.754,0,1.119,5.627,1.437,5.627,1.437Z" transform="translate(-102.526 -269.714)" fill="none" stroke="#263238" stroke-linecap="round" stroke-linejoin="round" stroke-width="1"/>
      <path id="Path_2520" data-name="Path 2520" d="M416.4,310.7a15.645,15.645,0,0,0-5.645-7.38c-4.561-3.472-8.787-2.394-9.218-.323s2.712,5.639,6.291,7.482A9.87,9.87,0,0,0,416.4,310.7Z" transform="translate(-200.675 -274.159)" fill="#263238" stroke="#263238" stroke-linecap="round" stroke-linejoin="round" stroke-width="1"/>
      <path id="Path_2521" data-name="Path 2521" d="M408.75,327.09a21.172,21.172,0,0,1,5.387,11.026s-.281,1.413,1.7,1.413a26.128,26.128,0,0,0,9.308-1.718" transform="translate(-203.588 -284.603)" fill="none" stroke="#263238" stroke-linecap="round" stroke-linejoin="round" stroke-width="1"/>
      <path id="Path_2522" data-name="Path 2522" d="M429.892,324.17s-.2.6-4.441,2.6a21.549,21.549,0,0,1-8.2,1.981" transform="translate(-207 -283.431)" fill="#00efb6"/>
      <path id="Path_2523" data-name="Path 2523" d="M67.85,333.691s1.933-2.3,8.434.808a34.46,34.46,0,0,0,7.781,2.724" transform="translate(-66.743 -286.924)" fill="none" stroke="#263238" stroke-linecap="round" stroke-linejoin="round" stroke-width="1"/>
      <path id="Path_2524" data-name="Path 2524" d="M70.14,346.843a63.194,63.194,0,0,0,12.438,1.107A27.83,27.83,0,0,1,90.773,327" transform="translate(-67.662 -284.567)" fill="none" stroke="#263238" stroke-linecap="round" stroke-linejoin="round" stroke-width="1"/>
    </g>
    <g id="freepik--Clouds--inject-36" transform="translate(95.941 93.055)">
      <path id="Path_2525" data-name="Path 2525" d="M309.171,115.87c-3.8-2.077-5.531-.347-6.908-2.077s3.795-6.219-6.584-10.709c0,0-.694-9.673-14.857-10.02s-10.367,9.673-14.168,12.091-4.819-1.359-8.619,1.036-2.071,7.255-5.184,7.943-7.255-3.107-11.056-.688-3.8,4.489-5.531,4.489-5.178-1.383-7.255,0-4.489,3.113-4.489,3.113h87.392S312.972,117.941,309.171,115.87Z" transform="translate(-159.575 -93.055)" fill="#00efb6"/>
      <path id="Path_2526" data-name="Path 2526" d="M309.171,115.87c-3.8-2.077-5.531-.347-6.908-2.077s3.795-6.219-6.584-10.709c0,0-.694-9.673-14.857-10.02s-10.367,9.673-14.168,12.091-4.819-1.359-8.619,1.036-2.071,7.255-5.184,7.943-7.255-3.107-11.056-.688-3.8,4.489-5.531,4.489-5.178-1.383-7.255,0-4.489,3.113-4.489,3.113h87.392S312.972,117.941,309.171,115.87Z" transform="translate(-159.575 -93.055)" fill="#fff" opacity="0.5"/>
      <path id="Path_2527" data-name="Path 2527" d="M175.495,188.374c-2.67-1.455-3.885-.239-4.854-1.455s2.67-4.37-4.615-7.524c0,0-.485-6.794-10.433-7.039s-7.261,6.8-9.948,8.494-3.4-.97-6.07.73-1.455,5.094-3.639,5.585-5.094-2.185-7.781-.491-2.67,3.154-3.885,3.154-3.639-.97-5.094,0-3.154,2.185-3.154,2.185h61.414S178.158,189.828,175.495,188.374Z" transform="translate(-116.02 -124.886)" fill="#fff"/>
      <path id="Path_2528" data-name="Path 2528" d="M175.495,188.374c-2.67-1.455-3.885-.239-4.854-1.455s2.67-4.37-4.615-7.524c0,0-.485-6.794-10.433-7.039s-7.261,6.8-9.948,8.494-3.4-.97-6.07.73-1.455,5.094-3.639,5.585-5.094-2.185-7.781-.491-2.67,3.154-3.885,3.154-3.639-.97-5.094,0-3.154,2.185-3.154,2.185h61.414S178.158,189.828,175.495,188.374Z" transform="translate(-116.02 -124.886)" fill="#fff" opacity="0.5"/>
    </g>
    <g id="freepik--Character--inject-36" transform="translate(167.238 164.72)">
      <path id="Path_2529" data-name="Path 2529" d="M264.871,393.591c0,2-6.3,3.627-14.061,3.627s-14.061-1.628-14.061-3.627,6.3-3.591,14.061-3.591S264.871,391.6,264.871,393.591Z" transform="translate(-235.781 -283.92)" fill="#00efb6" opacity="0.5"/>
      <path id="Path_2530" data-name="Path 2530" d="M265.1,293.27H254.6l-8.895.413s.06.9.156,2.394l.186.15-1.233-.563s-1.622,24.613-1.036,25.787,6.782,28.39,6.782,28.39-1.9,3.364-2.628,4.531,1.311,1.6,2.478,1.167,3.508-4.088,3.508-4.968-.856-28.905-.856-28.905l1.88-18.885h.174s1.024,9.751.042,34.292c-.18,4.549.916,10.96,1.047,13.306a9.1,9.1,0,0,1,.2,3.172c-.245,1.371.748,3.729,2.484,4.1s1.987-1.49,1.49-3.478-.964-3.795-.964-3.795c.94-4.789,2.43-18.346,3.591-24.667C266.514,306.75,265.1,293.27,265.1,293.27Z" transform="translate(-238.549 -245.091)" fill="#263238" stroke="#263238" stroke-linecap="round" stroke-linejoin="round" stroke-width="1"/>
      <path id="Path_2531" data-name="Path 2531" d="M266.429,243.423l-8.6-3.508-4.866-.126-9.757,3.879,2.328,22.369-.9,8.135a23.217,23.217,0,0,1,5.716,1.724c3.226,1.4,9.116,2.664,11.373,1.682a14.367,14.367,0,0,0,3.5-2.107l-.6-9.009Z" transform="translate(-238.374 -223.622)" fill="#00efb6" stroke="#263238" stroke-linecap="round" stroke-linejoin="round" stroke-width="1"/>
      <path id="Path_2532" data-name="Path 2532" d="M239.967,246.26a4.3,4.3,0,0,0-3.406,2.239c-1.143,2.143-1.718,12.3-1.287,13.444s1.431,2.287,3.43.718a11.373,11.373,0,0,0,2.891-3.274Z" transform="translate(-235.131 -226.22)" fill="#fff" stroke="#263238" stroke-linecap="round" stroke-linejoin="round" stroke-width="1"/>
      <path id="Path_2533" data-name="Path 2533" d="M280.923,245.825s2.993-.527,3.538,1.76,2.993,9.015,2.143,11.732-4.148,2.574-6.435,1.143S280.923,245.825,280.923,245.825Z" transform="translate(-252.868 -226.024)" fill="#fff" stroke="#263238" stroke-linecap="round" stroke-linejoin="round" stroke-width="1"/>
      <path id="Path_2534" data-name="Path 2534" d="M258.3,242.673l-2.718,2.58a45.878,45.878,0,0,1-1.568-5.154c0-.718,1.856-2.861,1.856-2.861l7.009-.138,2.574,3.143-2.143,4.866-2.993-2.293Z" transform="translate(-242.709 -222.543)" fill="#fff" stroke="#263238" stroke-linecap="round" stroke-linejoin="round" stroke-width="1"/>
      <path id="Path_2535" data-name="Path 2535" d="M264.625,237.45l-3.6,5.076-3.532-5.076v-8.41h7.135Z" transform="translate(-244.106 -219.307)" fill="#fff" stroke="#263238" stroke-linecap="round" stroke-linejoin="round" stroke-width="1"/>
      <path id="Path_2536" data-name="Path 2536" d="M255.392,225.268s-1.323-.347-1.2.6.533,2.646,1.2,3.047l.664.4Z" transform="translate(-242.78 -217.768)" fill="#fff" stroke="#263238" stroke-linecap="round" stroke-linejoin="round" stroke-width="1"/>
      <path id="Path_2537" data-name="Path 2537" d="M270.554,225.268s1.323-.347,1.2.6-.533,2.646-1.2,3.047l-.664.4Z" transform="translate(-249.084 -217.768)" fill="#fff" stroke="#263238" stroke-linecap="round" stroke-linejoin="round" stroke-width="1"/>
      <path id="Path_2538" data-name="Path 2538" d="M265.256,219.372a5.028,5.028,0,1,0-9.817,1.538l1.281,6.022,2.334,3.28h2.257l2.269-2.861,1.389-6.3A5.041,5.041,0,0,0,265.256,219.372Z" transform="translate(-243.187 -213.41)" fill="#fff" stroke="#263238" stroke-linecap="round" stroke-linejoin="round" stroke-width="1"/>
      <path id="Path_2539" data-name="Path 2539" d="M269.877,221.6a6.406,6.406,0,0,0-.527,1.987,9.2,9.2,0,0,0,.658,2.394s1.592-3.31,1.455-4.5S269.739,221.209,269.877,221.6Z" transform="translate(-248.867 -216.037)" fill="#263238" stroke="#263238" stroke-linecap="round" stroke-linejoin="round" stroke-width="1"/>
      <path id="Path_2540" data-name="Path 2540" d="M255.6,222.447s0-.2.03-.515c.078-.85.275-2.5.76-2.789.664-.4.6-2.484.6-2.484s-.922,1.042,2.257,2.1,5.752.646,7.47-1.6.138-3.837-.132-3.041-.79,1.85-1.718,1.059a7.244,7.244,0,0,0-5.028-2.394A4.531,4.531,0,0,0,256,215.174a2.592,2.592,0,0,0-1.455,2.245A25.17,25.17,0,0,0,255.6,222.447Z" transform="translate(-242.926 -212.78)" fill="#263238" stroke="#263238" stroke-linecap="round" stroke-linejoin="round" stroke-width="1"/>
      <path id="Path_2541" data-name="Path 2541" d="M266.609,218.9c-1.874.072-3.472-1.2-5.094-2.3a2.113,2.113,0,0,0-2.735,0,2.819,2.819,0,0,1,2.6-2.233c2.209-.144,2.933,2.891,4.986,3.16" transform="translate(-244.624 -213.415)" fill="none" stroke="#fff" stroke-linecap="round" stroke-linejoin="round" stroke-width="0.5"/>
      <line id="Line_540" data-name="Line 540" x1="0.221" y1="2.161" transform="translate(12.055 7.398)" fill="#fff" stroke="#263238" stroke-linecap="round" stroke-linejoin="round" stroke-width="1"/>
      <line id="Line_541" data-name="Line 541" y1="2.053" x2="0.503" transform="translate(21.614 7.506)" fill="#fff" stroke="#263238" stroke-linecap="round" stroke-linejoin="round" stroke-width="1"/>
      <path id="Path_2542" data-name="Path 2542" d="M260.47,227.65h-4.19l.443,1.377a.641.641,0,0,0,.6.449h2.155a.647.647,0,0,0,.6-.491Z" transform="translate(-243.621 -218.749)" fill="#263238"/>
      <path id="Path_2543" data-name="Path 2543" d="M268.19,227.65H264l.443,1.377a.653.653,0,0,0,.6.449h2.149a.647.647,0,0,0,.628-.491Z" transform="translate(-246.72 -218.749)" fill="#263238"/>
      <path id="Path_2544" data-name="Path 2544" d="M263.9,228.071h-2.035a.281.281,0,0,1-.287-.287.287.287,0,0,1,.287-.293H263.9a.293.293,0,0,1,.293.293.287.287,0,0,1-.293.287Z" transform="translate(-245.748 -218.685)" fill="#263238"/>
      <path id="Path_2545" data-name="Path 2545" d="M264.025,233s-.335.5-.724.5-.73-.5-.73-.5" transform="translate(-246.146 -220.897)" fill="none" stroke="#263238" stroke-linecap="round" stroke-linejoin="round" stroke-width="0.75"/>
      <path id="Path_2546" data-name="Path 2546" d="M262.6,235.186a3.939,3.939,0,0,0,2.143-.856" transform="translate(-246.158 -221.431)" fill="none" stroke="#263238" stroke-linecap="round" stroke-linejoin="round" stroke-width="0.75"/>
      <path id="Path_2547" data-name="Path 2547" d="M271.179,262.239s.862,3.143-1.287,4.286c-.808.431-4.573-.281-9.009-1.431s-6.866-2.005-6.866-2.005l-12.444-.287s-1.143-2.287.6-3.591,8.015.569,8.015.569l12.869.287a9.523,9.523,0,0,1,6.441-.144" transform="translate(-237.569 -231.233)" fill="#fff" stroke="#263238" stroke-linecap="round" stroke-linejoin="round" stroke-width="1"/>
      <path id="Path_2548" data-name="Path 2548" d="M237.467,263.025a24.693,24.693,0,0,1,5.291-3.292c2.3-.862,15.018-1.143,15.018-1.143s3.591,1.143,2.861,1.431-3.591.6-4.86,1.143-8.727,5.722-17.736,7.009c-1.975.281-2.436.144-2.861-1.856" transform="translate(-235.151 -231.169)" fill="#fff" stroke="#263238" stroke-linecap="round" stroke-linejoin="round" stroke-width="1"/>
      <path id="Path_2549" data-name="Path 2549" d="M269.45,258.776l.239,2.053h.844l.12-2.179Z" transform="translate(-248.907 -231.193)" fill="#263238" stroke="#263238" stroke-linecap="round" stroke-linejoin="round" stroke-width="1"/>
      <path id="Path_2550" data-name="Path 2550" d="M253.36,301.55a12.893,12.893,0,0,1,4.878,4.435" transform="translate(-242.448 -248.414)" fill="none" stroke="#fff" stroke-linecap="round" stroke-linejoin="round" stroke-width="0.75"/>
      <path id="Path_2551" data-name="Path 2551" d="M248.54,302.289a10.655,10.655,0,0,1,5.77,1.993" transform="translate(-240.514 -248.711)" fill="none" stroke="#fff" stroke-linecap="round" stroke-linejoin="round" stroke-width="0.75"/>
    </g>
  </g>
</svg>
