<svg xmlns="http://www.w3.org/2000/svg" width="230.708" height="132.838" viewBox="0 0 230.708 132.838">
  <g id="Group_12135" data-name="Group 12135" transform="translate(-73 -167)">
    <g id="By_my_car-rafiki_2_" data-name="By my car-rafiki (2)" transform="translate(27.775 -24.722)">
      <g id="freepik--Shadow--inject-41" transform="translate(51.356 311.808)">
        <ellipse id="freepik--path--inject-41" cx="109.211" cy="6.376" rx="109.211" ry="6.376" transform="translate(0 0)" fill="#f5f5f5"/>
      </g>
      <g id="freepik--Car--inject-41" transform="translate(45.225 230.332)">
        <path id="Path_2831" data-name="Path 2831" d="M223.368,374.846c7.058,0,12.78-11.333,12.78-25.313s-5.723-25.313-12.78-25.313H207v50.626Z" transform="translate(-115.879 -288.2)" fill="#263238"/>
        <ellipse id="Ellipse_294" data-name="Ellipse 294" cx="12.78" cy="25.313" rx="12.78" ry="25.313" transform="translate(78.257 36.02)" fill="#263238"/>
        <path id="Path_2832" data-name="Path 2832" d="M389.717,374.846c7.058,0,12.775-11.333,12.775-25.313S396.8,324.22,389.717,324.22h-16.4v50.626Z" transform="translate(-188.517 -288.2)" fill="#263238"/>
        <ellipse id="Ellipse_295" data-name="Ellipse 295" cx="12.78" cy="25.313" rx="12.78" ry="25.313" transform="translate(171.961 36.02)" fill="#263238"/>
        <path id="Path_2833" data-name="Path 2833" d="M68.947,355.426l-8.753-2.157a10.443,10.443,0,0,1-6.883-5.526h0a10.472,10.472,0,0,0-2.428-3.182l-2.152-1.915a10.465,10.465,0,0,1-3.458-8.815l1.183-12.392A10.465,10.465,0,0,1,53.9,312.4l6.258-1.848,22.575-1.611Z" transform="translate(-45.225 -281.526)" fill="#00efb6"/>
        <path id="Path_2834" data-name="Path 2834" d="M108.521,374.846c7.058,0,12.78-11.333,12.78-25.313s-5.723-25.313-12.78-25.313H92.13v50.626Z" transform="translate(-65.71 -288.2)" fill="#263238"/>
        <ellipse id="Ellipse_296" data-name="Ellipse 296" cx="12.78" cy="25.313" rx="12.78" ry="25.313" transform="translate(13.577 36.02)" fill="#263238"/>
        <ellipse id="Ellipse_297" data-name="Ellipse 297" cx="8.967" cy="20.007" rx="8.967" ry="20.007" transform="translate(17.391 41.326)" fill="#00efb6"/>
        <path id="Path_2835" data-name="Path 2835" d="M212.816,334.17l22.069-49.319s-33.018-24.581-74.914-24.581c-67.9,0-65.569,9.153-88.291,29.025l9.919,7c17.647,0,19.117,27.972,21.939,35.84a3.059,3.059,0,0,0,2.884,2.039H212.816" transform="translate(-56.779 -260.27)" fill="#00efb6"/>
        <path id="Path_2836" data-name="Path 2836" d="M274.887,374.846c7.058,0,12.775-11.333,12.775-25.313s-5.717-25.313-12.775-25.313h-16.4v50.626Z" transform="translate(-138.366 -288.2)" fill="#263238"/>
        <ellipse id="Ellipse_298" data-name="Ellipse 298" cx="12.78" cy="25.313" rx="12.78" ry="25.313" transform="translate(107.281 36.02)" fill="#263238"/>
        <ellipse id="Ellipse_299" data-name="Ellipse 299" cx="8.967" cy="20.007" rx="8.967" ry="20.007" transform="translate(111.095 41.326)" fill="#00efb6"/>
        <path id="Path_2837" data-name="Path 2837" d="M270.927,349.144c-2.033-9.237-11.755-33.8-23.409-33.8L234.89,303.88h71.275c4.934,0,26.851,3.03,39.271,11.44,10.032,6.793,11.265,17.106,12.707,32.173.3,3.075-2.394,5.717-5.8,5.723-28.557,0-63.119.107-75.7.146A5.665,5.665,0,0,1,270.927,349.144Z" transform="translate(-128.059 -279.316)" fill="#00efb6"/>
        <path id="Path_2838" data-name="Path 2838" d="M295.714,286.877H249.25a6.579,6.579,0,0,1-5.458-2.867c-5.171-7.66-14.324-15.422-21.032-19.1C269.736,264.91,295.714,286.877,295.714,286.877Z" transform="translate(-122.762 -262.297)" fill="#fff" opacity="0.8"/>
        <path id="Path_2839" data-name="Path 2839" d="M169.685,267.208c5.633,4.078,12.043,10.4,15.642,16.678a1.983,1.983,0,0,1-1.69,2.98H107.489c-8.077,0-5.4-20.12,36.8-21.629,3.977-.344,13.248-.355,18.374-.332A12.059,12.059,0,0,1,169.685,267.208Z" transform="translate(-70.835 -262.291)" fill="#fff" opacity="0.8"/>
        <path id="Path_2840" data-name="Path 2840" d="M311.921,372l24.406,1.842a1.51,1.51,0,0,1,1.4,1.509v1.69a1.51,1.51,0,0,1-1.51,1.51H311.825a1.515,1.515,0,0,1-1.515-1.51V373.53A1.515,1.515,0,0,1,311.921,372Z" transform="translate(-160.998 -309.065)" fill="#263238"/>
        <path id="Path_2841" data-name="Path 2841" d="M444.76,372.574l-6.7,1.352a1.51,1.51,0,0,0-1.217,1.481v1.831a1.51,1.51,0,0,0,1.515,1.51h7.1a1.51,1.51,0,0,0,1.5-1.69l-.377-3.177a1.515,1.515,0,0,0-1.819-1.307Z" transform="translate(-216.259 -309.303)" fill="#263238"/>
        <path id="Path_2842" data-name="Path 2842" d="M322.407,320.3l-34.077-1.656s-.349,6.038,12.279,7.322A33.232,33.232,0,0,0,322.407,320.3Z" transform="translate(-151.398 -285.763)" fill="#fff" opacity="0.8"/>
        <path id="Path_2843" data-name="Path 2843" d="M47.011,328.832a10.375,10.375,0,0,1,.7-2.884l2.309-.068s.107,8.86-3.239,8.3a1.644,1.644,0,0,1-.276-.068Z" transform="translate(-45.786 -288.925)" opacity="0.3"/>
        <path id="Path_2844" data-name="Path 2844" d="M420.01,320.62a38.877,38.877,0,0,1,3.351,2.022,24.083,24.083,0,0,1,4.478,3.875,13.447,13.447,0,0,1-1.448.327c-7.565,1.3-13.062-5.683-13.062-5.683Z" transform="translate(-205.991 -286.627)" fill="#fff" opacity="0.8"/>
        <path id="Path_2845" data-name="Path 2845" d="M363.816,338.48h24.113a4.14,4.14,0,0,1,2.36.755l4.213,2.957a4.219,4.219,0,0,1,1.774,2.878l1.076,7.981a3.594,3.594,0,0,1-3.6,4.146H367.967a4.241,4.241,0,0,1-3.717-2.309l-4.816-9.39a3.8,3.8,0,0,1,.3-4.095l1.205-1.549A3.6,3.6,0,0,1,363.816,338.48Z" transform="translate(-182.252 -294.427)" fill="#263238"/>
        <path id="Path_2846" data-name="Path 2846" d="M140.831,373.05h47.156a1.126,1.126,0,0,1,1.127,1.222l-.242,2.743a1.126,1.126,0,0,1-1.127,1.025H140.583a1.126,1.126,0,0,1-1.127-1.222l.242-2.749A1.127,1.127,0,0,1,140.831,373.05Z" transform="translate(-86.378 -309.525)" opacity="0.1"/>
        <path id="Path_2847" data-name="Path 2847" d="M164.205,264.486l2.822-.546-5.773,25.347h-2.7Z" transform="translate(-94.719 -261.873)" fill="#00efb6"/>
        <path id="Path_2848" data-name="Path 2848" d="M179.138,314h-9.66l-.248,1.014a1.442,1.442,0,0,0,1.436,1.9h5.841a2.591,2.591,0,0,0,2.377-1.9Z" transform="translate(-99.35 -283.736)" fill="#263238"/>
        <path id="Path_2849" data-name="Path 2849" d="M120.153,314H110.5l-.248,1.014a1.442,1.442,0,0,0,1.436,1.9h5.841a2.591,2.591,0,0,0,2.377-1.9Z" transform="translate(-73.591 -283.736)" fill="#263238"/>
        <path id="Path_2850" data-name="Path 2850" d="M160.661,341a.321.321,0,0,1-.321-.316l-.71-33.187a.332.332,0,0,1,.315-.332h0a.321.321,0,0,1,.321.315l.7,33.193a.327.327,0,0,1-.315.327Z" transform="translate(-95.19 -280.749)" opacity="0.1"/>
      </g>
      <g id="freepik--Character--inject-41" transform="translate(99.402 191.722)">
        <path id="Path_2851" data-name="Path 2851" d="M192.076,404.157l-3.329-.051-.958-7.717,3.329.051Z" transform="translate(-161.666 -281.108)" fill="#ff8b7b"/>
        <path id="Path_2852" data-name="Path 2852" d="M157.072,403.174l-3.042-1.7,2.27-7.159,3.042,1.7Z" transform="translate(-146.921 -280.204)" fill="#ff8b7b"/>
        <path id="Path_2853" data-name="Path 2853" d="M148.231,405.6l3.526,2.005a.282.282,0,0,1,.135.332l-.89,2.9a.484.484,0,0,1-.715.27c-1.126-.659-1.915-1.2-3.346-2.011-.879-.5-3.582-1.91-4.793-2.6s-.693-1.983-.135-1.808a13.165,13.165,0,0,0,5.633.822.817.817,0,0,1,.586.085Z" transform="translate(-141.409 -284.73)" fill="#263238"/>
        <path id="Path_2854" data-name="Path 2854" d="M183.126,409.41l3.633.056a.287.287,0,0,1,.282.231l.608,2.968a.479.479,0,0,1-.484.563c-1.312-.039-3.2-.146-4.85-.175-1.926-.028-3.594.051-5.852,0-1.363,0-1.69-1.408-1.127-1.526,2.614-.529,4.737-.563,7.007-1.909a1.532,1.532,0,0,1,.783-.208Z" transform="translate(-156.112 -286.795)" fill="#263238"/>
        <path id="Path_2855" data-name="Path 2855" d="M170.926,232.838a69.8,69.8,0,0,1-5.959,4.371c-1.036.67-2.09,1.335-3.211,1.943a21.534,21.534,0,0,1-3.678,1.65,9.671,9.671,0,0,1-1.16.293c-.214.039-.462.068-.7.09a4.829,4.829,0,0,1-.805,0,4.4,4.4,0,0,1-1.69-.49,4.546,4.546,0,0,1-1.318-1.059,6.315,6.315,0,0,1-1.228-2.338,11.648,11.648,0,0,1-.389-2.118,23.831,23.831,0,0,1,.727-7.621l2.473.344a32.618,32.618,0,0,0,.653,6.663,7.609,7.609,0,0,0,.445,1.352,2.084,2.084,0,0,0,.513.772c.068.045.1.039.1,0s0-.028,0-.039a4.782,4.782,0,0,0,.834-.265,19.345,19.345,0,0,0,2.766-1.47c.946-.563,1.9-1.222,2.816-1.887,1.881-1.318,3.779-2.737,5.588-4.134Z" transform="translate(-145.483 -207.374)" fill="#ff8b7b"/>
        <path id="Path_2856" data-name="Path 2856" d="M177.143,230.489c-1.515,3.419-7.356,6.956-10.595,8.449-.958.439-.834,1.724-1.4,1.166,0,0-2.5-4.579-2.5-5.514s.828-.377,1.5-1.008c2.433-2.253,7.525-7.2,10.7-7.75C179.013,225.1,178.562,227.3,177.143,230.489Z" transform="translate(-150.686 -206.557)" fill="#00efb6"/>
        <path id="Path_2857" data-name="Path 2857" d="M161.592,240.328c-.321-.473-1.65.766-2.073,1.284s.738,2.4,1.087,3.38-.338,2.022.732,2.174c.563.079,2.169-.13,2.478-.563C164.543,245.673,162.364,241.466,161.592,240.328Z" transform="translate(-149.279 -212.904)" fill="#263238"/>
        <path id="Path_2858" data-name="Path 2858" d="M176.84,239.628c2.726-1.718,5.52-3.982,6.506-6.2.062-.152.135-.293.192-.439l.056-.563C179.893,233.061,177.381,236.8,176.84,239.628Z" transform="translate(-156.883 -209.501)" opacity="0.2"/>
        <path id="Path_2859" data-name="Path 2859" d="M153.774,226.423l2.146-3.182-3.5-1.431s-1.983,2.253-.563,4.219Z" transform="translate(-145.747 -204.862)" fill="#ff8b7b"/>
        <path id="Path_2860" data-name="Path 2860" d="M157.655,218.127l-3.222-.107-1.183,2.107,3.5,1.431Z" transform="translate(-146.581 -203.207)" fill="#ff8b7b"/>
        <path id="Path_2861" data-name="Path 2861" d="M187.79,396.39l.5,3.977,3.329.056-.5-3.977Z" transform="translate(-161.666 -281.108)" opacity="0.2"/>
        <path id="Path_2862" data-name="Path 2862" d="M160.2,396.015l-3.042-1.7-1.166,3.7,3.036,1.7Z" transform="translate(-147.777 -280.204)" opacity="0.2"/>
        <path id="Path_2863" data-name="Path 2863" d="M200.779,226.722c-3.588,12.64-2.861,26.051-3.188,28.766-2.6-.186-12.392-.918-17.743-1.318-1.69-19.01,2.332-28.664,2.332-28.664s1.127-.22,2.692-.377c.484-.051,1.008-.1,1.555-.124.3,0,.608-.028.918-.034a65.742,65.742,0,0,1,7.548.563c.473.056.952.13,1.419.2s.856.152,1.256.231C199.377,226.327,200.779,226.722,200.779,226.722Z" transform="translate(-158.016 -206.242)" fill="#00efb6"/>
        <path id="Path_2864" data-name="Path 2864" d="M192.575,225c-1.493.8-1.926,3.729.963,3.841a8.368,8.368,0,0,0,6.585-3.284Z" transform="translate(-163.245 -206.256)" fill="#263238"/>
        <path id="Path_2865" data-name="Path 2865" d="M210.517,237.71c-.315,1.222.045,6.8,1.324,8.179.175-1.786.406-3.656.715-5.559Z" transform="translate(-171.544 -211.807)" opacity="0.2"/>
        <path id="Path_2866" data-name="Path 2866" d="M200.424,210.79c-.653,2.388-1.459,6.8.118,8.545a7.787,7.787,0,0,1-5.937,1.955c-2.89-.113-2.445-1.521-1.611-2.512,2.76-.445,2.816-2.461,2.507-4.382Z" transform="translate(-163.665 -200.05)" fill="#ff8b7b"/>
        <path id="Path_2867" data-name="Path 2867" d="M200.848,213.4l-2.918,2.135a8.032,8.032,0,0,1,.135,1.357,3.383,3.383,0,0,0,2.737-2.18A3.672,3.672,0,0,0,200.848,213.4Z" transform="translate(-166.094 -201.189)" opacity="0.2"/>
        <path id="Path_2868" data-name="Path 2868" d="M192.127,204.393s-2.039-2.867-1.442-5.109C191.451,196.418,196.07,199.932,192.127,204.393Z" transform="translate(-162.882 -194.571)" fill="#263238"/>
        <path id="Path_2869" data-name="Path 2869" d="M200.2,200.309c-.451,3.273-.563,5.21-2.326,6.759a4.379,4.379,0,0,1-7.17-2.816c-.49-3,.321-7.852,3.639-8.916a4.506,4.506,0,0,1,5.858,4.974Z" transform="translate(-162.883 -193.202)" fill="#ff8b7b"/>
        <path id="Path_2870" data-name="Path 2870" d="M192.525,210.274c0,.5-.462.62-.834.845a2.208,2.208,0,0,0-.636.682s-.479-.158-.282-1.008S192.525,209.806,192.525,210.274Z" transform="translate(-162.948 -199.708)" fill="#263238"/>
        <path id="Path_2871" data-name="Path 2871" d="M194.33,210.277c0,.862.952.743,1.69.98a3.064,3.064,0,0,1,1.51,1.048,1.228,1.228,0,0,0-.208-1.318C196.4,209.775,194.33,209.809,194.33,210.277Z" transform="translate(-164.522 -199.694)" fill="#263238"/>
        <path id="Path_2872" data-name="Path 2872" d="M197.631,195.872c-2.05.608-7.8,1.245-7.1-1.69.98-4.106,3.571-1.966,3.943-1.38,1.65-1.194,8.933-.152,7.48,2.208,1.583.242,2.5,1.966,1.363,2.816s-2.518,4.32-3.278,4.219a10.206,10.206,0,0,1-2.67-.749l1.566-2.1S197.04,197.4,197.631,195.872Z" transform="translate(-162.838 -191.722)" fill="#263238"/>
        <path id="Path_2873" data-name="Path 2873" d="M209.55,197.608a3.067,3.067,0,0,1,3.092.445C212.575,196.633,210.631,196.436,209.55,197.608Z" transform="translate(-171.169 -193.959)" fill="#263238"/>
        <path id="Path_2874" data-name="Path 2874" d="M207.273,209.213a3.115,3.115,0,0,1-2.05,1.234c-1.093.158-1.493-.851-1.07-1.8.377-.862,1.4-1.977,2.439-1.69a1.414,1.414,0,0,1,.682,2.259Z" transform="translate(-168.739 -198.354)" fill="#ff8b7b"/>
        <path id="Path_2875" data-name="Path 2875" d="M180.847,347.38l5.633.084s-3.25-22.254-2.743-32.607c.152-3.149-.355-7.553.479-12.273,1.053-5.954,1.56-8.325,2.918-15.844.969-5.362,1.831-9.012,1.831-9.012L177.3,276.86s-3.813,26.817-3.7,36.972C173.716,324.36,180.847,347.38,180.847,347.38Z" transform="translate(-155.466 -228.905)" fill="#00efb6"/>
        <path id="Path_2876" data-name="Path 2876" d="M180.847,347.38l5.633.084s-3.25-22.254-2.743-32.607c.152-3.149-.355-7.553.479-12.273,1.053-5.954,1.56-8.325,2.918-15.844.969-5.362,1.831-9.012,1.831-9.012L177.3,276.86s-3.813,26.817-3.7,36.972C173.716,324.36,180.847,347.38,180.847,347.38Z" transform="translate(-155.466 -228.905)" opacity="0.6"/>
        <path id="Path_2877" data-name="Path 2877" d="M184.222,322.53a40.153,40.153,0,0,0-.49,7.469c-.969,2.737-1.814,5.334-2.405,7.643-1.031,4.039-2.664,10.167-4.253,16.053-1.729-6.894-3.413-14.864-3.464-19.945Z" transform="translate(-155.473 -248.851)" opacity="0.2"/>
        <path id="Path_2878" data-name="Path 2878" d="M175.325,277.64s-8.381,21.179-11.558,30.416c-3.481,10.094-9.1,37.339-9.1,37.339l5.3,3s8.257-22.457,11.676-32.286c3.9-11.2,14.645-28.89,15.129-37.592Z" transform="translate(-147.201 -229.246)" fill="#00efb6"/>
        <path id="Path_2879" data-name="Path 2879" d="M175.325,277.64s-8.381,21.179-11.558,30.416c-3.481,10.094-9.1,37.339-9.1,37.339l5.3,3s8.257-22.457,11.676-32.286c3.9-11.2,14.645-28.89,15.129-37.592Z" transform="translate(-147.201 -229.246)" opacity="0.6"/>
        <path id="Path_2880" data-name="Path 2880" d="M153.43,395.59l6.241,3.543,1.059-1.864-6.911-4.078Z" transform="translate(-146.659 -279.711)" fill="#00efb6"/>
        <path id="Path_2881" data-name="Path 2881" d="M184.625,400.488l6.714.107.034-2.169-7.5-.237Z" transform="translate(-159.953 -281.895)" fill="#00efb6"/>
        <path id="Path_2882" data-name="Path 2882" d="M199.4,204.917c0,.27-.18.473-.355.462s-.3-.242-.276-.507.175-.473.349-.462S199.421,204.652,199.4,204.917Z" transform="translate(-166.459 -197.263)" fill="#263238"/>
        <path id="Path_2883" data-name="Path 2883" d="M193.079,204.517c0,.27-.175.473-.349.462s-.3-.242-.282-.507.175-.473.349-.462S193.1,204.252,193.079,204.517Z" transform="translate(-163.699 -197.088)" fill="#263238"/>
        <path id="Path_2884" data-name="Path 2884" d="M193.873,205.28a9.575,9.575,0,0,1-1.453,2.191,1.549,1.549,0,0,0,1.262.338Z" transform="translate(-163.688 -197.643)" fill="#ff5652"/>
        <path id="Path_2885" data-name="Path 2885" d="M194.165,212.132a2.191,2.191,0,0,0,1.577-.766.078.078,0,0,0-.107-.113,2.129,2.129,0,0,1-1.791.7.084.084,0,0,0-.084.073.073.073,0,0,0,.073.084A2.431,2.431,0,0,0,194.165,212.132Z" transform="translate(-164.272 -200.243)" fill="#263238"/>
        <path id="Path_2886" data-name="Path 2886" d="M199.907,202.953a.186.186,0,0,0,.073,0,.158.158,0,0,0,.045-.22,1.56,1.56,0,0,0-1.228-.743.152.152,0,0,0-.158.158.158.158,0,0,0,.158.158h0a1.25,1.25,0,0,1,.963.6A.158.158,0,0,0,199.907,202.953Z" transform="translate(-166.404 -196.206)" fill="#263238"/>
        <path id="Path_2887" data-name="Path 2887" d="M191.119,202.155a.169.169,0,0,0,.141-.056,1.245,1.245,0,0,1,1.042-.456.159.159,0,0,0,.039-.315,1.566,1.566,0,0,0-1.318.563.158.158,0,0,0,0,.225A.191.191,0,0,0,191.119,202.155Z" transform="translate(-163.057 -195.915)" fill="#263238"/>
        <path id="Path_2888" data-name="Path 2888" d="M150.911,405.474a3.6,3.6,0,0,0,.817.321.068.068,0,0,0,.079,0,.09.09,0,0,0,0-.09c-.068-.124-.676-1.228-1.093-1.245a.253.253,0,0,0-.225.13.462.462,0,0,0-.062.439A1.025,1.025,0,0,0,150.911,405.474Zm.67.113c-.563-.18-.912-.411-1-.631a.321.321,0,0,1,.045-.3.1.1,0,0,1,.09-.056C150.934,404.607,151.328,405.153,151.582,405.587Z" transform="translate(-145.335 -284.633)" fill="#00efb6"/>
        <path id="Path_2889" data-name="Path 2889" d="M152.485,405.5h.039a.073.073,0,0,0,.068-.045c0-.039.422-.913.242-1.374a.44.44,0,0,0-.242-.259h0a.27.27,0,0,0-.321.056c-.242.293,0,1.25.186,1.583A.068.068,0,0,0,152.485,405.5Zm.079-1.5a.282.282,0,0,1,.124.152,1.9,1.9,0,0,1-.175,1.1c-.169-.394-.265-1.081-.118-1.25,0,0,.039-.056.135,0h0Z" transform="translate(-146.109 -284.339)" fill="#00efb6"/>
        <path id="Path_2890" data-name="Path 2890" d="M187.223,409.631a.077.077,0,0,0,.011-.141c-.146-.084-1.476-.783-1.881-.563a.259.259,0,0,0-.135.208h0a.462.462,0,0,0,.141.389c.36.327,1.318.208,1.853.113Zm-1.769-.563a3.244,3.244,0,0,1,1.5.462,2.118,2.118,0,0,1-1.487-.113.293.293,0,0,1-.09-.253.09.09,0,0,1,.051-.084Z" transform="translate(-160.541 -286.565)" fill="#00efb6"/>
        <path id="Path_2891" data-name="Path 2891" d="M187.851,409.042h0a.09.09,0,0,0,.034-.073,2.253,2.253,0,0,0-.5-1.29.563.563,0,0,0-.434-.141h0c-.214,0-.282.124-.293.214-.068.377.715,1.126,1.127,1.3a.1.1,0,0,0,.068-.006ZM186.9,407.7h.084a.411.411,0,0,1,.315.1,1.819,1.819,0,0,1,.422,1.036c-.406-.253-.935-.828-.9-1.053a.1.1,0,0,1,.073-.084ZM186.978,407.611Z" transform="translate(-161.169 -285.976)" fill="#00efb6"/>
        <path id="Path_2892" data-name="Path 2892" d="M215.3,231.65c.732,1.363,1.363,2.709,2.016,4.078s1.222,2.766,1.8,4.174,1.093,2.816,1.571,4.326l.344,1.127.3,1.127c.1.383.18.789.27,1.177l.068.3.062.406a7.357,7.357,0,0,1,.073.743,15.479,15.479,0,0,1-.107,2.552c-.09.8-.2,1.571-.338,2.332-.276,1.521-.614,3-.991,4.467a87.96,87.96,0,0,1-2.7,8.618l-2.405-.665c.5-2.884.986-5.807,1.414-8.685.208-1.436.4-2.873.529-4.292.068-.7.118-1.4.141-2.084a12.68,12.68,0,0,0-.051-1.887,1.265,1.265,0,0,0-.056-.355l-.034-.146-.068-.237c-.1-.321-.18-.642-.293-.969l-.332-.98-.366-.986c-.5-1.324-1.065-2.642-1.633-3.943s-1.2-2.636-1.825-3.943-1.267-2.636-1.887-3.909Z" transform="translate(-171.719 -209.16)" fill="#ff8b7b"/>
        <path id="Path_2893" data-name="Path 2893" d="M213.441,227.857c2.388.744,5.548,10.646,6.8,14.859a2.133,2.133,0,0,1,.394,2.022l-4.861,2.146c-1.127-.563-1.825-1.74-1.4-2.321-2.546-4.8-4.546-8.4-5.509-11.265C207.437,229.051,209.768,226.679,213.441,227.857Z" transform="translate(-170.683 -207.372)" fill="#00efb6"/>
        <path id="Path_2894" data-name="Path 2894" d="M219.275,258.211c-.49.293,1.014,1.836,1.5,2.287s2.1-.727,3.109-1.02,2,.462,2.214-.6a4.116,4.116,0,0,0-.389-2.512C224.789,255.592,220.458,257.512,219.275,258.211Z" transform="translate(-175.374 -219.876)" fill="#263238"/>
        <path id="Path_2895" data-name="Path 2895" d="M217.837,290.85l-2.6,2.163,3.233,2.332s2.124-2.253,1.172-3.594Z" transform="translate(-173.654 -235.015)" fill="#ff8b7b"/>
        <path id="Path_2896" data-name="Path 2896" d="M212.61,297.715l3.2,1.555,1.515-2.247-3.233-2.332Z" transform="translate(-172.505 -236.692)" fill="#ff8b7b"/>
      </g>
    </g>
  </g>
</svg>
