<svg id="feather_mail" data-name="feather / mail" xmlns="http://www.w3.org/2000/svg" xmlns:xlink="http://www.w3.org/1999/xlink" width="24" height="24" viewBox="0 0 24 24">
  <defs>
    <clipPath id="clip-path">
      <path id="Combined_Shape" data-name="Combined Shape" d="M3,18a3,3,0,0,1-3-3V3.01C0,3,0,2.99,0,2.98A3,3,0,0,1,3,0H19a3,3,0,0,1,3,3V15a3,3,0,0,1-3,3ZM2,15a1,1,0,0,0,1,1H19a1,1,0,0,0,1-1V4.921l-8.427,5.9a1,1,0,0,1-1.147,0L2,4.921ZM11,8.78l8.895-6.226A1,1,0,0,0,19,2H3a1,1,0,0,0-.895.553Z" transform="translate(1 3)" fill="#18191f"/>
    </clipPath>
  </defs>
  <g id="Group_36" data-name="Group 36">
    <path id="Combined_Shape-2" data-name="Combined Shape" d="M3,18a3,3,0,0,1-3-3V3.01C0,3,0,2.99,0,2.98A3,3,0,0,1,3,0H19a3,3,0,0,1,3,3V15a3,3,0,0,1-3,3ZM2,15a1,1,0,0,0,1,1H19a1,1,0,0,0,1-1V4.921l-8.427,5.9a1,1,0,0,1-1.147,0L2,4.921ZM11,8.78l8.895-6.226A1,1,0,0,0,19,2H3a1,1,0,0,0-.895.553Z" transform="translate(1 3)" fill="#18191f"/>
    <g id="Mask_Group_36" data-name="Mask Group 36" clip-path="url(#clip-path)">
      <g id="COLOR_black" data-name="COLOR/ black">
        <rect id="Rectangle" width="24" height="24" fill="#18191f"/>
      </g>
    </g>
  </g>
</svg>
