<svg id="feather_map-pin" data-name="feather / map-pin" xmlns="http://www.w3.org/2000/svg" xmlns:xlink="http://www.w3.org/1999/xlink" width="18" height="18" viewBox="0 0 18 18">
  <defs>
    <clipPath id="clip-path">
      <path id="Combined_Shape" data-name="Combined Shape" d="M7,18a.665.665,0,0,1-.388-.126c-.061-.043-.159-.117-.292-.219-.221-.171-.47-.373-.74-.6A22.47,22.47,0,0,1,3.342,14.86C1.124,12.351,0,9.875,0,7.5A7.271,7.271,0,0,1,7,0a7.271,7.271,0,0,1,7,7.5c0,2.375-1.124,4.852-3.342,7.36a22.372,22.372,0,0,1-2.238,2.192c-.248.212-.5.415-.74.6-.157.122-.254.192-.29.218A.669.669,0,0,1,7,18ZM7,1.5a5.817,5.817,0,0,0-5.6,6c0,1.979,1,4.108,2.958,6.328a20.9,20.9,0,0,0,2.093,2.05c.183.157.367.309.548.452.182-.144.367-.3.548-.452a20.9,20.9,0,0,0,2.093-2.05C11.6,11.609,12.6,9.48,12.6,7.5A5.817,5.817,0,0,0,7,1.5Zm0,9a2.909,2.909,0,0,1-2.8-3A2.908,2.908,0,0,1,7,4.5a2.908,2.908,0,0,1,2.8,3A2.909,2.909,0,0,1,7,10.5ZM7,6A1.454,1.454,0,0,0,5.6,7.5,1.454,1.454,0,0,0,7,9,1.454,1.454,0,0,0,8.4,7.5,1.454,1.454,0,0,0,7,6Z" transform="translate(0)" fill="#3f454b"/>
    </clipPath>
  </defs>
  <g id="Group_21" data-name="Group 21" transform="translate(2 0)">
    <path id="Combined_Shape-2" data-name="Combined Shape" d="M7,18a.665.665,0,0,1-.388-.126c-.061-.043-.159-.117-.292-.219-.221-.171-.47-.373-.74-.6A22.47,22.47,0,0,1,3.342,14.86C1.124,12.351,0,9.875,0,7.5A7.271,7.271,0,0,1,7,0a7.271,7.271,0,0,1,7,7.5c0,2.375-1.124,4.852-3.342,7.36a22.372,22.372,0,0,1-2.238,2.192c-.248.212-.5.415-.74.6-.157.122-.254.192-.29.218A.669.669,0,0,1,7,18ZM7,1.5a5.817,5.817,0,0,0-5.6,6c0,1.979,1,4.108,2.958,6.328a20.9,20.9,0,0,0,2.093,2.05c.183.157.367.309.548.452.182-.144.367-.3.548-.452a20.9,20.9,0,0,0,2.093-2.05C11.6,11.609,12.6,9.48,12.6,7.5A5.817,5.817,0,0,0,7,1.5Zm0,9a2.909,2.909,0,0,1-2.8-3A2.908,2.908,0,0,1,7,4.5a2.908,2.908,0,0,1,2.8,3A2.909,2.909,0,0,1,7,10.5ZM7,6A1.454,1.454,0,0,0,5.6,7.5,1.454,1.454,0,0,0,7,9,1.454,1.454,0,0,0,8.4,7.5,1.454,1.454,0,0,0,7,6Z" transform="translate(0)" fill="#3f454b"/>
    <g id="Mask_Group_21" data-name="Mask Group 21" clip-path="url(#clip-path)">
      <g id="COLOR_black" data-name="COLOR/ black" transform="translate(-1.4 0)">
        <rect id="Rectangle" width="16.8" height="18" fill="#3f454b"/>
      </g>
    </g>
  </g>
</svg>
