<svg id="feather_map-pin" data-name="feather / map-pin" xmlns="http://www.w3.org/2000/svg" xmlns:xlink="http://www.w3.org/1999/xlink" width="20" height="20" viewBox="0 0 20 20">
  <defs>
    <clipPath id="clip-path">
      <path id="Combined_Shape" data-name="Combined Shape" d="M8,20a.775.775,0,0,1-.444-.14c-.069-.048-.182-.13-.334-.244-.252-.19-.537-.415-.846-.67a25.357,25.357,0,0,1-2.557-2.436C1.285,13.723,0,10.972,0,8.333A8.181,8.181,0,0,1,8,0a8.181,8.181,0,0,1,8,8.333c0,2.639-1.285,5.391-3.819,8.177a25.246,25.246,0,0,1-2.557,2.436c-.284.235-.568.461-.846.67-.18.136-.29.213-.332.242A.779.779,0,0,1,8,20ZM8,1.667A6.545,6.545,0,0,0,1.6,8.333c0,2.2,1.138,4.564,3.381,7.031a23.587,23.587,0,0,0,2.393,2.278c.209.174.42.343.626.5.208-.16.419-.329.626-.5a23.587,23.587,0,0,0,2.393-2.278C13.262,12.9,14.4,10.533,14.4,8.333A6.545,6.545,0,0,0,8,1.667Zm0,10A3.272,3.272,0,0,1,4.8,8.333,3.272,3.272,0,0,1,8,5a3.272,3.272,0,0,1,3.2,3.333A3.273,3.273,0,0,1,8,11.667Zm0-5A1.668,1.668,0,1,0,9.6,8.333,1.636,1.636,0,0,0,8,6.667Z" transform="translate(0)" fill="#18191f"/>
    </clipPath>
  </defs>
  <g id="Group_21" data-name="Group 21" transform="translate(2 0)">
    <path id="Combined_Shape-2" data-name="Combined Shape" d="M8,20a.775.775,0,0,1-.444-.14c-.069-.048-.182-.13-.334-.244-.252-.19-.537-.415-.846-.67a25.357,25.357,0,0,1-2.557-2.436C1.285,13.723,0,10.972,0,8.333A8.181,8.181,0,0,1,8,0a8.181,8.181,0,0,1,8,8.333c0,2.639-1.285,5.391-3.819,8.177a25.246,25.246,0,0,1-2.557,2.436c-.284.235-.568.461-.846.67-.18.136-.29.213-.332.242A.779.779,0,0,1,8,20ZM8,1.667A6.545,6.545,0,0,0,1.6,8.333c0,2.2,1.138,4.564,3.381,7.031a23.587,23.587,0,0,0,2.393,2.278c.209.174.42.343.626.5.208-.16.419-.329.626-.5a23.587,23.587,0,0,0,2.393-2.278C13.262,12.9,14.4,10.533,14.4,8.333A6.545,6.545,0,0,0,8,1.667Zm0,10A3.272,3.272,0,0,1,4.8,8.333,3.272,3.272,0,0,1,8,5a3.272,3.272,0,0,1,3.2,3.333A3.273,3.273,0,0,1,8,11.667Zm0-5A1.668,1.668,0,1,0,9.6,8.333,1.636,1.636,0,0,0,8,6.667Z" transform="translate(0)" fill="#18191f"/>
    <g id="Mask_Group_21" data-name="Mask Group 21" transform="translate(0)" clip-path="url(#clip-path)">
      <g id="COLOR_black" data-name="COLOR/ black" transform="translate(-1.6 0)">
        <rect id="Rectangle" width="19.2" height="20" fill="#18191f"/>
      </g>
    </g>
  </g>
</svg>
