<svg xmlns="http://www.w3.org/2000/svg" xmlns:xlink="http://www.w3.org/1999/xlink" width="246" height="243.5" viewBox="0 0 246 243.5">
  <defs>
    <filter id="Rectangle_5_Copy" x="0" y="0" width="246" height="243.5" filterUnits="userSpaceOnUse">
      <feOffset dy="7" input="SourceAlpha"/>
      <feGaussianBlur stdDeviation="32" result="blur"/>
      <feFlood flood-opacity="0.071"/>
      <feComposite operator="in" in2="blur"/>
      <feComposite in="SourceGraphic"/>
    </filter>
  </defs>
  <g id="Group_11312" data-name="Group 11312" transform="translate(68 -364)">
    <g transform="matrix(1, 0, 0, 1, -68, 364)" filter="url(#Rectangle_5_Copy)">
      <path id="Rectangle_5_Copy-2" data-name="Rectangle 5 Copy" d="M10,0H42c5.523,0,10,5.683,10,12.692V36.808C52,43.817,47.523,49.5,42,49.5H10c-5.523,0-10-5.683-10-12.692V12.692C0,5.683,4.477,0,10,0Z" transform="translate(97 90)" fill="#fff" stroke="#0097fe" stroke-width="2"/>
    </g>
    <g id="explorer" transform="translate(40.998 465)">
      <path id="Path_1841" data-name="Path 1841" d="M13.557,0A13.556,13.556,0,1,0,27.113,13.556,13.571,13.571,0,0,0,13.557,0Zm0,24.95A11.394,11.394,0,1,1,24.951,13.556,11.407,11.407,0,0,1,13.557,24.95Z" transform="translate(0)" fill="#0097fe"/>
      <path id="Path_1842" data-name="Path 1842" d="M57.078,50.851A6.227,6.227,0,1,0,63.3,57.078,6.234,6.234,0,0,0,57.078,50.851Zm0,10.292a4.065,4.065,0,1,1,4.065-4.065A4.07,4.07,0,0,1,57.078,61.143Z" transform="translate(-43.521 -43.522)" fill="#0097fe"/>
      <circle id="Ellipse_268" data-name="Ellipse 268" cx="2.339" cy="2.339" r="2.339" transform="translate(11.218 11.217)" fill="#0097fe"/>
    </g>
  </g>
</svg>
