<svg xmlns="http://www.w3.org/2000/svg" xmlns:xlink="http://www.w3.org/1999/xlink" width="37" height="37" viewBox="0 0 37 37">
  <defs>
    <clipPath id="clip-path">
      <circle id="mask" cx="18.5" cy="18.5" r="18.5" fill="#f5f5f5"/>
    </clipPath>
  </defs>
  <g id="normal" clip-path="url(#clip-path)">
    <path id="bg" d="M18.5,0A18.5,18.5,0,1,1,0,18.5,18.5,18.5,0,0,1,18.5,0Z" fill="#ade9f2" stroke="#3f454b" stroke-width="1"/>
    <g id="openpeeps_peep-06" data-name="openpeeps / peep-06" transform="translate(3.618 5.611)">
      <g id="BODY" transform="translate(0 17.485)">
        <path id="_Background" data-name="ðŸŽ¨ Background" d="M31.416,33.885c-1.534,0-3.025.057-4.564.062-6.254.021-12.566-.01-18.843-.263-1.774-.072-2.217-.07-3.983-.181-1.043,0-4.176-.09-4.019-1.511.069-2.647.724-5.283.931-7.922.4-4.963.733-10.08,2.722-14.722A5.96,5.96,0,0,1,6.085,6.862c.981-.7,1.222-1.484,2.128-2.278.192-.168,1.279-.236,1.864-.662.852-.62,1.274-1.635,1.592-1.808.234-.127.23-1,.7-1.315A10.745,10.745,0,0,1,15.729.014,7.176,7.176,0,0,1,18.3.331a3.726,3.726,0,0,1,2.014,2.294c6.371,1.97,12.194,5.305,14,12.033a47.564,47.564,0,0,1,1.014,17.478c-.121.423-.036,1.087-.4,1.367C36.2,33.576,31.588,33.838,31.416,33.885Z" transform="translate(0.45 0)" fill="#fff"/>
        <path id="_Ink" data-name="ðŸ– Ink" d="M21.189,0h0c-1.568,0-3.1.062-4.8.136-.743.032-1.358.081-1.936.153a8.374,8.374,0,0,1-1.024.08A3.741,3.741,0,0,1,12.675.3L12.541.27h0a5.56,5.56,0,0,0-.859-.132c-.041,0-.083,0-.126,0a5.626,5.626,0,0,0-.677.055L10.787.2c-.319.039-.668.071-1.1.1a24.57,24.57,0,0,0-.9,7.052c-.018.591-.037,1.2-.066,1.8a.194.194,0,0,1-.326.125.164.164,0,0,1-.042-.125c.03-.6.048-1.217.067-1.814A25.3,25.3,0,0,1,9.293.324L8.92.346C8.37.377,7.811.405,7.27.432h0C6.548.469,5.8.506,5.074.552L4.7.574h0C4.186.6,3.656.637,3.135.685,3.012.7,2.878.7,2.715.7c-.1,0-.207,0-.307,0H2.383c-.1,0-.2,0-.3,0H2.03A1.149,1.149,0,0,0,1.951.513a.428.428,0,0,0-.377-.2.362.362,0,0,0-.344.2c-.159.35-.3.677-.416,1a13.139,13.139,0,0,0-.591,2.1A12.216,12.216,0,0,0,0,5.779C-.006,6.37.026,6.97.058,7.551c.009.158.017.32.025.479l0,.073c.036.723.073,1.47.121,2.2.044.677.072,1.366.1,2.033.034.829.069,1.685.134,2.526A20.993,20.993,0,0,0,1.2,19.139a27.113,27.113,0,0,0,1.659,4.092l.066.137A11.928,11.928,0,0,0,5.02,26.7a7.129,7.129,0,0,0,1.563,1.174,1.7,1.7,0,0,1,.631.5c.044.064.086.132.127.2a2.656,2.656,0,0,0,.356.481,1.353,1.353,0,0,0,.848.369.917.917,0,0,1,.613.312l.1.1h0a2.937,2.937,0,0,0,.509.453,2.391,2.391,0,0,0,.96.291,15.349,15.349,0,0,1,3.713,1.261L14.8,32a1.993,1.993,0,0,0,.524.166.958.958,0,0,0,.137.008l.093,0,.095,0a.991.991,0,0,1,.119.006c.162.02.251.2.329.362a1.472,1.472,0,0,0,.087.161.816.816,0,0,0,.224.217.762.762,0,0,0,.393.282,1.527,1.527,0,0,0,.55.112.653.653,0,0,0,.591-.283.345.345,0,0,0,.021-.042c.319-.068.642-.144.955-.217.712-.166,1.448-.338,2.188-.437a13.915,13.915,0,0,1,1.8-.12h.046c.293,0,.587.009.874.027.061,0,.125.012.187.02a2.24,2.24,0,0,0,.272.023h0a.874.874,0,0,0,.754.509.66.66,0,0,0,.37-.113.771.771,0,0,0,.3-.472,1.306,1.306,0,0,0,.264-.413c.065-.159.116-.33.165-.5.019-.064.038-.129.058-.192.01-.032.02-.067.03-.1a.983.983,0,0,1,.222-.465.783.783,0,0,1,.47-.136,1.336,1.336,0,0,0,.3-.045,3.232,3.232,0,0,0,.712-.371l.028-.018a1.677,1.677,0,0,1-.636-.338.162.162,0,0,1-.044-.184.2.2,0,0,1,.182-.128.177.177,0,0,1,.123.051,1.324,1.324,0,0,0,.512.257l.042.014a.176.176,0,0,1,.123.14l1.554-.963a11.989,11.989,0,0,0,2.69-2.135,7.908,7.908,0,0,0,1.687-2.813,5.169,5.169,0,0,0,.194-.832c.013-.089.023-.18.032-.268a3.241,3.241,0,0,1,.087-.536,2.284,2.284,0,0,1,.212-.47c.048-.088.1-.18.14-.273a2.428,2.428,0,0,0,.191-.812c.034-.413.05-.835.065-1.243.008-.217.016-.441.027-.662,0-.067.005-.136.007-.2a2.833,2.833,0,0,1,.089-.749,2.244,2.244,0,0,1,.183-.4,3.043,3.043,0,0,0,.145-.293,2.5,2.5,0,0,0,.035-1.395c-.012-.072-.024-.147-.035-.221a1.627,1.627,0,0,1,.04-.782c.038-.11.085-.218.131-.323a3.454,3.454,0,0,0,.15-.383,2.367,2.367,0,0,0-.018-1.152,4.571,4.571,0,0,1-.083-.62,7.2,7.2,0,0,1,.157-1.528c.016-.092.033-.187.048-.28.218-1.3.406-2.474.491-3.7a24.81,24.81,0,0,0,0-3.5.17.17,0,0,1-.126.051,1.528,1.528,0,0,1-.649-.1.153.153,0,0,1-.08-.1.2.2,0,0,1,.014-.155.173.173,0,0,1,.155-.088.236.236,0,0,1,.1.022.866.866,0,0,0,.356.055h.107a.166.166,0,0,1,.156.094l.013-.035a.961.961,0,0,1,.055-.126c.033-.062.07-.123.106-.183a1.729,1.729,0,0,0,.207-.426.83.83,0,0,0-.1-.688,1.127,1.127,0,0,0-.8-.423C34.883.935,33.734.8,32.72.684c-.27,1.84-.423,3.755-.558,5.446a.191.191,0,0,1-.2.177.177.177,0,0,1-.131-.052.159.159,0,0,1-.038-.124c.163-2.04.308-3.739.563-5.488L31.738.568c-.15-.018-.3-.04-.454-.061A8.89,8.89,0,0,0,30.058.391c-.083,0-.164,0-.242.007a6.529,6.529,0,0,0-.693.093,5.11,5.11,0,0,1-.86.1,2.33,2.33,0,0,1-.285-.017c-.33-.04-.664-.1-.986-.153-.305-.052-.62-.106-.932-.146C25.463.2,24.832.136,24.183.092,23.254.03,22.275,0,21.189,0ZM14.022,2.575a.213.213,0,0,1-.095-.023l-.038-.019a1.6,1.6,0,0,1-.4-.249.162.162,0,0,1-.044-.184.2.2,0,0,1,.182-.128.177.177,0,0,1,.123.052,1.12,1.12,0,0,0,.288.175l.072.035a.162.162,0,0,1,.082.1.193.193,0,0,1-.015.15A.177.177,0,0,1,14.022,2.575Zm4.754.165a.172.172,0,0,1-.162-.154.183.183,0,0,1,.124-.211,2.612,2.612,0,0,1,.764-.166h.005a.169.169,0,0,1,.172.177.178.178,0,0,1-.178.191,2.229,2.229,0,0,0-.647.146l-.02.007A.191.191,0,0,1,18.777,2.74ZM3.539,4.167H3.532a.186.186,0,0,1-.181-.162.185.185,0,0,1-.162-.181.188.188,0,0,1,.178-.184h.006a.358.358,0,0,1,.343.343.186.186,0,0,1-.177.184Zm21.53.556h0a3.94,3.94,0,0,1-.438-.04,3.952,3.952,0,0,0-.436-.04.177.177,0,0,1-.178-.189.17.17,0,0,1,.174-.179h0a3.939,3.939,0,0,1,.437.04,3.939,3.939,0,0,0,.437.04.177.177,0,0,1,.178.189A.17.17,0,0,1,25.069,4.724Zm8.57,1.828a.167.167,0,0,1-.169-.174.182.182,0,0,1,.177-.194A.878.878,0,0,0,34,6.064l.028-.014a.191.191,0,0,1,.086-.021.2.2,0,0,1,.189.157.155.155,0,0,1-.089.182,1.384,1.384,0,0,1-.57.184Zm-12.71.636a.169.169,0,0,1-.173-.178.178.178,0,0,1,.178-.191.258.258,0,0,0,.238-.147.16.16,0,0,1,.144-.092.208.208,0,0,1,.172.1.175.175,0,0,1,0,.178.634.634,0,0,1-.556.33h-.005Zm-7.672-.316a.2.2,0,0,1,.132-.051.178.178,0,0,1,.126.052.193.193,0,0,1,.053.14.165.165,0,0,1-.053.12.752.752,0,0,1-.528.134.184.184,0,0,1,0-.368h.077a.839.839,0,0,0,.113-.006.364.364,0,0,0,.047-.009l.018-.007.013-.005h0ZM30.3,9.563a.182.182,0,0,1-.153-.082,1.012,1.012,0,0,0-.605-.392.169.169,0,0,1-.129-.194.183.183,0,0,1,.175-.168.2.2,0,0,1,.051.007,1.409,1.409,0,0,1,.825.561.153.153,0,0,1,.016.164A.209.209,0,0,1,30.3,9.563ZM5.922,9.254H5.916a.357.357,0,0,1-.343-.343.186.186,0,0,1,.177-.184h.007a.186.186,0,0,1,.181.162A.185.185,0,0,1,6.1,9.07.188.188,0,0,1,5.922,9.254Zm11.919,1.43a.2.2,0,0,1-.18-.126.165.165,0,0,1,.042-.187.9.9,0,0,1,.607-.292h.006a.168.168,0,0,1,.171.176.181.181,0,0,1-.178.192.539.539,0,0,0-.347.185A.175.175,0,0,1,17.842,10.684Zm8.025.16H25.86a.188.188,0,0,1-.184-.184s0-.007,0-.01A.17.17,0,0,1,25.6,10.5a.188.188,0,0,1,.178-.184h.006a.253.253,0,0,1,.234.153.485.485,0,0,1,.029.19.189.189,0,0,1-.052.127A.171.171,0,0,1,25.867,10.844Zm-15.9,1.033a.188.188,0,0,1-.134-.06.169.169,0,0,1-.049-.124.188.188,0,0,1,.184-.184h.01a.171.171,0,0,1,.142-.079h.007a.186.186,0,0,1,.184.184.253.253,0,0,1-.153.234.483.483,0,0,1-.19.029Zm21.794,1.747a.214.214,0,0,1-.161-.075.183.183,0,0,1-.039-.155,2.476,2.476,0,0,0,0-1.015.175.175,0,0,1,.032-.154.209.209,0,0,1,.16-.076.159.159,0,0,1,.162.132,2.952,2.952,0,0,1,0,1.211A.151.151,0,0,1,31.761,13.624ZM3.214,12.673h0a.184.184,0,0,1,0-.368h.014a.862.862,0,0,0,.37-.054.228.228,0,0,1,.1-.022.176.176,0,0,1,.156.088.2.2,0,0,1,.014.154.155.155,0,0,1-.08.1,1.3,1.3,0,0,1-.57.1Zm10.012.947a.174.174,0,0,1-.184-.178.591.591,0,0,0-.054-.3.189.189,0,0,1,.066-.252.183.183,0,0,1,.093-.024.174.174,0,0,1,.159.09,1.057,1.057,0,0,1,.1.49.169.169,0,0,1-.057.133A.193.193,0,0,1,13.226,13.62Zm12.789,1.036a.173.173,0,0,1-.155-.088.2.2,0,0,1-.014-.156.153.153,0,0,1,.08-.1.877.877,0,0,1,.742,0,.153.153,0,0,1,.08.1.2.2,0,0,1-.014.156.173.173,0,0,1-.155.088.236.236,0,0,1-.1-.022.479.479,0,0,0-.371,0A.233.233,0,0,1,26.015,14.656Zm-5.244.559a.178.178,0,0,1-.127-.053l-.239-.239a.189.189,0,0,1-.053-.137.169.169,0,0,1,.053-.123.2.2,0,0,1,.133-.053.178.178,0,0,1,.127.053l.238.238a.188.188,0,0,1,.053.137.17.17,0,0,1-.053.123A.2.2,0,0,1,20.771,15.215Zm13.073.791a.2.2,0,0,1,.123-.044.179.179,0,0,1,.127.052.192.192,0,0,1,.053.138.168.168,0,0,1-.053.122.639.639,0,0,1-.448.133.184.184,0,0,1,0-.368h.08l.03,0h0l.058-.013h.005l0,0h0l.017-.013,0,0ZM30.157,17.12a.2.2,0,0,1-.188-.157.155.155,0,0,1,.089-.182l.477-.238a.191.191,0,0,1,.086-.021.2.2,0,0,1,.188.157.155.155,0,0,1-.089.182l-.477.239A.191.191,0,0,1,30.157,17.12ZM8.3,18.151a.174.174,0,0,1-.184-.178,2.2,2.2,0,0,0-.073-.667.161.161,0,0,1,.021-.15.2.2,0,0,1,.16-.076.175.175,0,0,1,.174.128,2.56,2.56,0,0,1,.086.764.169.169,0,0,1-.057.133A.193.193,0,0,1,8.3,18.151Zm5.88.722a.184.184,0,0,1,0-.368h.4a.184.184,0,0,1,0,.368Zm-9.523.958a.191.191,0,0,1-.06-.01,1.86,1.86,0,0,1-.717-.365.162.162,0,0,1-.045-.184.2.2,0,0,1,.182-.128.177.177,0,0,1,.123.052,1.324,1.324,0,0,0,.514.257l.041.014a.183.183,0,0,1,.124.212A.171.171,0,0,1,4.656,19.83Zm14.206.546a.186.186,0,0,1-.134-.053.167.167,0,0,1-.045-.125.8.8,0,0,1,.213-.528.167.167,0,0,1,.122-.057.2.2,0,0,1,.174.122.173.173,0,0,1-.036.194.428.428,0,0,0-.1.267A.18.18,0,0,1,18.862,20.376Zm7.712-.074a.174.174,0,0,1-.129-.053.187.187,0,0,1,0-.26l0,0,.006-.006.016-.025c.008-.014.015-.028.022-.041l.009-.018a.619.619,0,0,1,.1-.143.18.18,0,0,1,.131-.053.175.175,0,0,1,.129.053.187.187,0,0,1,0,.26l-.01.01-.016.025c-.009.015-.016.03-.024.045l-.007.015a.618.618,0,0,1-.1.143A.18.18,0,0,1,26.574,20.3ZM11.888,22.136a.19.19,0,0,1-.061-.011,2.939,2.939,0,0,1-.68-.337.192.192,0,0,1,.09-.349.172.172,0,0,1,.1.031,2.554,2.554,0,0,0,.592.3.186.186,0,0,1,.124.213A.17.17,0,0,1,11.888,22.136Zm17.066.632a.169.169,0,0,1-.172-.178.178.178,0,0,1,.178-.191.258.258,0,0,0,.238-.147.16.16,0,0,1,.144-.092.208.208,0,0,1,.172.1.175.175,0,0,1,0,.178.633.633,0,0,1-.556.33ZM22.991,24.2a.167.167,0,0,1-.17-.174A.183.183,0,0,1,23,23.83a.873.873,0,0,0,.354-.119l.03-.015a.191.191,0,0,1,.086-.021.2.2,0,0,1,.189.157.155.155,0,0,1-.089.182A1.382,1.382,0,0,1,23,24.2Zm-13.012.56a.192.192,0,0,1-.06-.01c-.131-.043-.266-.082-.4-.119s-.266-.076-.4-.119A.181.181,0,0,1,9,24.3a.172.172,0,0,1,.163-.155.192.192,0,0,1,.06.01c.131.043.266.082.4.119s.266.076.4.119a.181.181,0,0,1,.125.21A.172.172,0,0,1,9.979,24.758Zm5.384.076a.184.184,0,0,1,0-.367h0l.023,0,.03-.006.054-.015.051-.015a1.084,1.084,0,0,1,.252-.039h.006a.168.168,0,0,1,.171.176.181.181,0,0,1-.177.192.837.837,0,0,0-.2.04.888.888,0,0,1-.193.04Zm15.264,1.113a.184.184,0,0,1,0-.368,3.539,3.539,0,0,0,.825-.073A.2.2,0,0,1,31.5,25.5a.187.187,0,0,1,.181.174.164.164,0,0,1-.13.187A3.962,3.962,0,0,1,30.627,25.947Zm-6.92,2.3a.176.176,0,0,1-.123-.052,1.323,1.323,0,0,0-.387-.228c-.044-.02-.089-.04-.132-.061a.153.153,0,0,1-.089-.18.2.2,0,0,1,.19-.158.192.192,0,0,1,.085.021l.115.055a1.7,1.7,0,0,1,.478.292.163.163,0,0,1,.044.185A.2.2,0,0,1,23.707,28.25Zm-13.017.081h-.006a1.58,1.58,0,0,1-.649-.184.153.153,0,0,1-.09-.179.2.2,0,0,1,.19-.159.193.193,0,0,1,.085.02,1.155,1.155,0,0,0,.463.134.181.181,0,0,1,.178.192A.168.168,0,0,1,10.69,28.331Zm5.321.635a.2.2,0,0,1-.182-.151.162.162,0,0,1,.085-.19.921.921,0,0,0,.331-.411.156.156,0,0,1,.142-.093.208.208,0,0,1,.17.1.178.178,0,0,1,0,.18,1.21,1.21,0,0,1-.463.543A.186.186,0,0,1,16.01,28.966Z" transform="translate(36.92 34.363) rotate(180)"/>
      </g>
      <g id="HEAD" transform="translate(7.428 0)">
        <path id="_Background-2" data-name="ðŸŽ¨ Background" d="M.358,7.13a21.288,21.288,0,0,0-.038-2.8c-.054-.7.273-3.457.891-3.2A6.565,6.565,0,0,1,4.923.039c2.684-.18,5.539.233,7.611,2.04A5.113,5.113,0,0,1,14.477,5.8C15.408,7.15,16.721,9,15.561,10.572a7.3,7.3,0,0,1-1.517,1.071c-1,.8-1.622,1.958-2.628,2.757-2.665,2.4-7.191,2.9-9.809.171C-.417,12.6-.09,9.646.266,7.13.506,5.439.165,8.828.358,7.13Z" transform="translate(0.509 3.864)" fill="#fff"/>
        <path id="_Ink-2" data-name="ðŸ– Ink" d="M11.51,0a6.166,6.166,0,0,0-.875.064A4.857,4.857,0,0,0,9.647.3a1.889,1.889,0,0,0-.84.607.289.289,0,0,0-.031.29.178.178,0,0,0,.167.109l.029,0a5.43,5.43,0,0,0,.967-.19L9.984,1.1a4.789,4.789,0,0,1,.991-.213c.17-.016.342-.025.512-.025a5.075,5.075,0,0,1,1.534.234,4.576,4.576,0,0,1,1.476.8,4.951,4.951,0,0,1,1.115,1.256,6.731,6.731,0,0,1,.773,3.711c-.011,1.374-.055,2.813-.133,4.276l-.013.237c-.049.886-.083,1.564-.113,2.2-.012.267-.03.487-.056.691a1.822,1.822,0,0,0-.658.634,6.467,6.467,0,0,0-.94-.3,5.623,5.623,0,0,0-1.342-.165,5.294,5.294,0,0,0-.79.059c-.19-.079-.387-.149-.585-.209l-.161-.07a9.762,9.762,0,0,0-1.468-.5L10,13.685a5.041,5.041,0,0,0-.837-.15,1.239,1.239,0,0,0-.151-.047,2.462,2.462,0,0,0-.58-.069c-.069,0-.14,0-.209.009a.389.389,0,0,0-.313.2.325.325,0,0,0,.012.323c.1.174.207.353.313.531A9.88,9.88,0,0,0,7.111,14.1c-.338-.1-.709-.186-1.168-.284l-.318-.065-.31-.064c-.034-.007-.071-.014-.11-.02a.888.888,0,0,1-.39-.127.775.775,0,0,1-.19-.4c-.011-.042-.022-.082-.034-.116-.072-.217-.133-.417-.187-.61a12.587,12.587,0,0,1-.281-1.244A11.951,11.951,0,0,1,3.974,9.9c-.011-.175-.016-.353-.02-.526-.006-.246-.013-.5-.039-.75a.262.262,0,0,0-.442-.183l-.063.056-.031.028a3.183,3.183,0,0,0-.422.449c-.022.031-.043.062-.063.094a.014.014,0,0,0-.009,0l-.034.025a1.646,1.646,0,0,1-.907.4.548.548,0,0,1-.449-.22,1.43,1.43,0,0,1-.224-.513l-.086-.322A5.638,5.638,0,0,1,1.047,7.8a1.715,1.715,0,0,1,.3-1.424.845.845,0,0,1,.519-.294.649.649,0,0,1,.089-.006,1.579,1.579,0,0,1,.206.018L2.2,6.1a.687.687,0,0,0,.085,0l.091,0,.092,0c.026,0,.049,0,.071,0h.021a.182.182,0,0,0,.159-.091.263.263,0,0,0,.014-.247A.832.832,0,0,0,2.6,5.574a1.5,1.5,0,0,0,.114-.109.566.566,0,0,0,.276-.206A.469.469,0,0,0,3.088,5c.006-.02.011-.042.017-.069l.1-.16.065-.1a5,5,0,0,1,.876-1.046c.124-.113.253-.223.379-.329a8.44,8.44,0,0,0,.629-.572l.037-.039a1.249,1.249,0,0,0,.485-1.128.216.216,0,0,0-.2-.15.157.157,0,0,0-.094.03A2.308,2.308,0,0,0,4.9,1.99a3.507,3.507,0,0,1-.307.4c-.149.159-.309.312-.464.46s-.306.293-.451.446a3.59,3.59,0,0,0-.665.995.535.535,0,0,0-.369-.151.54.54,0,0,0-.472.3,1.72,1.72,0,0,0-.2-.074.4.4,0,0,0-.116-.018.342.342,0,0,0-.289.165.443.443,0,0,0-.031.421,1.4,1.4,0,0,0,.267.4,1.693,1.693,0,0,0-.911.443,1.871,1.871,0,0,0-.515.991,3.1,3.1,0,0,0,0,1.13A5.6,5.6,0,0,0,.71,9.052c.029.071.057.134.085.192a.06.06,0,0,0-.045.022c-.035.047-.072.092-.109.136a1.329,1.329,0,0,0-.192.272L.4,9.766a3.479,3.479,0,0,0-.156.343,4.243,4.243,0,0,0-.2.969A7.3,7.3,0,0,0,.1,13.045a7.968,7.968,0,0,0,1.2,3.116.545.545,0,0,0-.095.063l-.015.013-.024.022a.393.393,0,0,0-.125.286.453.453,0,0,0,.125.327l.05.05a1.325,1.325,0,0,0,.221.182l.046.029a.441.441,0,0,0-.035.344.572.572,0,0,0,.612.366,1.365,1.365,0,0,0,.569-.13,7.364,7.364,0,0,0,1.492,1.035,15.962,15.962,0,0,0,4.174,1.43,9.7,9.7,0,0,0,1.924.213c.088,0,.177,0,.264,0l.057,0a3.445,3.445,0,0,0,1.731-.392.105.105,0,0,0,.074.032.09.09,0,0,0,.039-.009,13.7,13.7,0,0,1,1.664-.622l.138-.045a8.152,8.152,0,0,1,1.849-.376.39.39,0,0,0,.309-.209.289.289,0,0,0-.02-.3c-.037-.056-.072-.112-.1-.165l.058.006.115.012h.025a.339.339,0,0,0,.24-.115.356.356,0,0,0,.1-.255,3.422,3.422,0,0,0-.038-.345h.012a.509.509,0,0,0,.2-.039c.362-.153.325-.595.3-.887a2.1,2.1,0,0,0-.509-1.243,2.008,2.008,0,0,0,.489-.862,2.208,2.208,0,0,0,.09-.767l-.006-.077a1.233,1.233,0,0,0-.272-.789.427.427,0,0,0-.308-.131l-.043,0c.074-.651.122-1.312.164-1.934l.021-.308c.087-1.322.174-2.888.153-4.481a8.1,8.1,0,0,0-.26-2.038,5.377,5.377,0,0,0-.888-1.841A5.533,5.533,0,0,0,12.7.132,5.351,5.351,0,0,0,11.51,0ZM2.9,7.014H2.89c-.26.007-.406.2-.548.4-.023.032-.047.064-.071.1a.317.317,0,0,0-.077-.094L2.173,7.4A.387.387,0,0,0,1.942,7.3H1.929a.453.453,0,0,0-.189.051.382.382,0,0,0-.172.423A.4.4,0,0,0,1.724,8L1.7,8.022a.554.554,0,0,0-.156.149l-.01.015h0a.149.149,0,0,0,.086.22.447.447,0,0,0,.139.021,1.518,1.518,0,0,0,.587-.182h0L2.4,8.22a3.143,3.143,0,0,0,.734-.509.409.409,0,0,0,.1-.4l0-.018,0-.024A.356.356,0,0,0,2.9,7.014Z" transform="translate(17.307 20.39) rotate(180)"/>
      </g>
      <g id="FACE" transform="translate(8.583 9.522)">
        <path id="_Ink-3" data-name="ðŸ– Ink" d="M3.432,0a.021.021,0,0,0-.02.017.02.02,0,0,0,.01.023A5.641,5.641,0,0,0,4.485.414l.031.009c.457.127.838.224,1.2.3C6.107.81,6.5.872,6.8.916A.194.194,0,0,0,6.8.938a1.7,1.7,0,0,0-.05.4c0,.033,0,.065,0,.1l-.006.087a1.081,1.081,0,0,0,.049.519.029.029,0,0,0,.024.013c.058,0,.149-.178.2-.285.018-.035.032-.063.04-.074l0,0a1.319,1.319,0,0,0,.285-.68c0-.007,0-.014,0-.02.225.031.467.065.709.1a.22.22,0,0,0,.136.043.468.468,0,0,0,.207-.058A.28.28,0,0,0,8.531.75.3.3,0,0,0,8.241.5H8.234l-.2,0A18.061,18.061,0,0,1,5.956.343L5.814.326C5.426.281,5.009.23,4.588.163c-.1-.015-.2-.033-.293-.05A6.781,6.781,0,0,0,3.432,0ZM5.619,2.024h0a2.155,2.155,0,0,0-1.245.5.274.274,0,0,0-.081.317.333.333,0,0,0,.29.233.251.251,0,0,0,.137-.042l.046-.035a1.739,1.739,0,0,1,.927-.455.553.553,0,0,1,.412.183.61.61,0,0,1,.116.491A1.337,1.337,0,0,1,5.6,3.95a.116.116,0,0,0-.031.133.172.172,0,0,0,.167.119.234.234,0,0,0,.039,0,1.1,1.1,0,0,0,.734-.431A1.083,1.083,0,0,0,6.7,3.044a1.155,1.155,0,0,0-.314-.705A1.04,1.04,0,0,0,5.619,2.024ZM2.478,4.369a.319.319,0,0,0-.317.2,1.013,1.013,0,0,0,.024.7l0,.016c-.347.083-.7.156-1.046.228-.371.077-.754.156-1.126.247A.027.027,0,0,0,0,5.786a.022.022,0,0,0,.018.022,7.84,7.84,0,0,0,1.191.084c.179,0,.368,0,.563-.015.3-.015.61-.038.909-.068.157-.016.316-.033.473-.053.036,0,.077-.014.121-.024A1,1,0,0,1,3.485,5.7a.243.243,0,0,1,.064.008.438.438,0,0,0,.116.016.453.453,0,0,0,.357-.181A.438.438,0,0,0,4.1,5.158a.429.429,0,0,0-.424-.32.481.481,0,0,0-.3.1c-.12.042-.239.082-.354.117a.474.474,0,0,0-.041-.11c-.025-.048-.044-.085-.061-.121,0,0-.012-.032-.024-.062l0-.01L2.867,4.69a.463.463,0,0,0-.214-.282A.4.4,0,0,0,2.478,4.369Zm4.5.079h0a.335.335,0,0,0-.237.114.242.242,0,0,0-.065.189c0,.02,0,.041.007.062,0,.039.009.079.015.119a.471.471,0,0,0-.148-.023.532.532,0,0,0-.416.2.519.519,0,0,0-.091.424.453.453,0,0,0,.231.312,1.787,1.787,0,0,0,.457.145c.055.012.113.025.169.039.211.054.422.116.627.185.181.061.364.127.542.19l.067.024c.105.038.2.07.3.1.017,0,.036.013.056.021a.4.4,0,0,0,.1.032.094.094,0,0,0,.083.057.113.113,0,0,0,.09-.052c.1-.145-.106-.35-.219-.46L8.522,6.1l-.01-.011A4.23,4.23,0,0,0,7.7,5.479c-.052-.032-.108-.064-.182-.106a.627.627,0,0,0,.03-.07.639.639,0,0,0,.005-.392A.617.617,0,0,0,6.977,4.448Z" transform="translate(8.795 6.635) rotate(180)"/>
      </g>
      <g id="FACIAL_HAIR" data-name="FACIAL HAIR" transform="translate(7.198 11.316)">
        <path id="_Ink-4" data-name="ðŸ– Ink" d="M8.825,0h0A11.2,11.2,0,0,0,6.779.192a11.325,11.325,0,0,0-1.97.553A7.951,7.951,0,0,0,1.682,2.787a3.231,3.231,0,0,0-1.1,1.239A5.19,5.19,0,0,0,.092,5.656,14.846,14.846,0,0,0,.123,9.14c.026.231.046.472.065.705A6.766,6.766,0,0,0,.707,12.32a.24.24,0,0,0,.058.2.258.258,0,0,0,.188.093.182.182,0,0,0,.17-.12A13.735,13.735,0,0,1,3.016,9.112,4.292,4.292,0,0,1,4.12,8.1a2.732,2.732,0,0,1,1.4-.5,1.03,1.03,0,0,1,.695.241,1.482,1.482,0,0,1,.435.823A2.209,2.209,0,0,0,7.985,9.752a5.686,5.686,0,0,0,1.916.312A5.478,5.478,0,0,0,10.774,10a1.691,1.691,0,0,0,1.209-1.131c.2-.435.372-.811,1.029-.811a2.056,2.056,0,0,1,.212.012.166.166,0,0,1,.046-.006h.012a1.687,1.687,0,0,1,.173.333c.02.047.039.091.06.134,0,.011,0,.023-.007.035a.515.515,0,0,0-.012.067.347.347,0,0,0,.288.166.406.406,0,0,0,.143-.028.245.245,0,0,0,.017-.05,15.5,15.5,0,0,0,.369-3.64,8.958,8.958,0,0,0-.767-3.544A5.639,5.639,0,0,0,11.424.369,8.75,8.75,0,0,0,8.825,0ZM9.8,8.569a2.121,2.121,0,0,1-1.658-.632,1.052,1.052,0,0,1-.12-.981.785.785,0,0,1,.6-.5.378.378,0,0,1,.117.019c.145.047.224.214.3.376a1.1,1.1,0,0,0,.147.256.662.662,0,0,0,.464.226c.3,0,.568-.272.822-.534.082-.085.16-.165.237-.233a.325.325,0,0,1,.18-.061.3.3,0,0,1,.214.1.654.654,0,0,1,.163.449,2.075,2.075,0,0,1-.264.81,1.394,1.394,0,0,1-.619.642A2.759,2.759,0,0,1,9.8,8.569Z" transform="translate(14.318 12.608) rotate(180)"/>
      </g>
      <g id="ACCESORIES" transform="translate(6.189 8.51)">
        <path id="_Ink-5" data-name="ðŸ– Ink" d="M9.857,0A2.791,2.791,0,0,0,8.767.227a2.822,2.822,0,0,0-.92.636,2.593,2.593,0,0,0-.548.858A2.647,2.647,0,0,0,7.126,2.8c-.258.044-.305.2-.36.379a.682.682,0,0,1-.658.558,1,1,0,0,0-.428.284,11.729,11.729,0,0,1-1.247.07A8.211,8.211,0,0,1,1.61,3.627c-.081-.034-.168-.066-.251-.1-.309-.113-.6-.219-.707-.456a.694.694,0,0,1,.035-.546.274.274,0,0,0-.268-.26.231.231,0,0,0-.168.072A1.256,1.256,0,0,0,.079,3.5c.3.617,1.4.791,2.286.931l.086.014a9.208,9.208,0,0,0,1.94.2l.2,0c.084,0,.172,0,.265-.006a3.079,3.079,0,0,0,.8-.077h0c.069.209.463.4,1.109.533a11.331,11.331,0,0,0,2.209.2,10.093,10.093,0,0,0,2.443-.263,3.072,3.072,0,0,0,.866-.349.878.878,0,0,0,.419-.513h.071c.133,0,.255-.009.39-.02h.015c.119-.01.231-.019.344-.019a1.364,1.364,0,0,1,.443.066c.031.281.271.684,1.233,1a7.59,7.59,0,0,0,2.244.335,4.7,4.7,0,0,0,1-.092,1.8,1.8,0,0,0,.275-.048.343.343,0,0,0,.1-.038l.114-.018a.307.307,0,0,0,.244-.274.336.336,0,0,0-.161-.357.451.451,0,0,1-.266-.511.316.316,0,0,0-.141-.356A6.468,6.468,0,0,0,18.4,2.248,2.938,2.938,0,0,0,17.6.87,2.448,2.448,0,0,0,16.267.43a1.868,1.868,0,0,0-1.439.678,2.489,2.489,0,0,0-.508,1.033,3.489,3.489,0,0,0-.034,1.375.235.235,0,0,0-.07.075.691.691,0,0,0-.034.062,1.119,1.119,0,0,1-.516.1,1.573,1.573,0,0,1-.215-.015.956.956,0,0,1-.637-.357l-.075-.077a.233.233,0,0,0-.165-.123l-.01-.057A4.332,4.332,0,0,0,11.59.684,2.5,2.5,0,0,0,9.857,0ZM10.9,4.212a.193.193,0,0,1-.185-.178.161.161,0,0,1,.131-.183.618.618,0,0,0,.4-.259l.01-.015a.174.174,0,0,1,.151-.086.206.206,0,0,1,.177.1.162.162,0,0,1-.009.171.987.987,0,0,1-.627.444A.206.206,0,0,1,10.9,4.212Zm6.721.242h0a.2.2,0,0,1-.165-.093.188.188,0,0,1,.058-.247l.008-.006a.349.349,0,0,0,.147-.228V3.869a.182.182,0,0,1,.191-.178A.184.184,0,0,1,18,3.744a.167.167,0,0,1,.044.126.719.719,0,0,1-.33.559.149.149,0,0,1-.087.026Z" transform="translate(19.189 5.528) rotate(180)"/>
      </g>
    </g>
    <circle id="outline" cx="18.5" cy="18.5" r="18.5" fill="none"/>
  </g>
</svg>
