<svg xmlns="http://www.w3.org/2000/svg" width="21.322" height="22.704" viewBox="0 0 21.322 22.704">
  <path id="Path_2449" data-name="Path 2449" d="M36.472,4.854,26.483.032a.322.322,0,0,0-.28,0L16.214,4.854a.322.322,0,0,0-.182.29V16.855a.322.322,0,0,0,.182.29L26.2,21.967a.322.322,0,0,0,.28,0l9.989-4.822a.322.322,0,0,0,.182-.29V5.144A.322.322,0,0,0,36.472,4.854ZM26.343.68l9.248,4.464L32.91,6.438a.32.32,0,0,0-.055-.034L23.671,1.97Zm-3.4,1.655,9.234,4.458-1.891.913-9.23-4.456ZM32.393,7.4v3.375l-1.767.853V8.256Zm3.617,9.249-9.344,4.511v-11l2.229-1.076a.322.322,0,1,0-.28-.58l-2.271,1.1-.894-.431a.322.322,0,0,0-.28.58l.852.411v11l-9.344-4.511v-11l7.116,3.435a.322.322,0,0,0,.28-.58L17.1,5.144,20.3,3.6l9.681,4.673,0,.006v3.867a.322.322,0,0,0,.462.29l2.411-1.164a.322.322,0,0,0,.182-.29V7.092L36.01,5.657Z" transform="translate(-15.682 0.354)" stroke="#000" stroke-width="0.7"/>
</svg>
