<svg xmlns="http://www.w3.org/2000/svg" width="17" height="25" viewBox="0 0 17 25">
  <g id="qr-code-scan" transform="translate(-3.5 0.5)">
    <path id="Path_493" data-name="Path 493" d="M14.25,4H9.75A1.752,1.752,0,0,1,8,2.25a.752.752,0,0,0-.75-.75h-.5a.75.75,0,0,1,0-1.5h.5A2.253,2.253,0,0,1,9.5,2.25a.25.25,0,0,0,.25.25h4.5a.25.25,0,0,0,.25-.25A2.253,2.253,0,0,1,16.75,0h.5a.75.75,0,0,1,0,1.5h-.5a.752.752,0,0,0-.75.75A1.752,1.752,0,0,1,14.25,4Z" fill="#3f454b"/>
    <path id="Path_494" data-name="Path 494" d="M17.25,24H6.75A2.752,2.752,0,0,1,4,21.25V2.75A2.752,2.752,0,0,1,6.75,0h10.5A2.752,2.752,0,0,1,20,2.75v18.5A2.752,2.752,0,0,1,17.25,24ZM6.75,1.5A1.252,1.252,0,0,0,5.5,2.75v18.5A1.252,1.252,0,0,0,6.75,22.5h10.5a1.252,1.252,0,0,0,1.25-1.25V2.75A1.252,1.252,0,0,0,17.25,1.5Z" fill="#3f454b" stroke="#3f454b" stroke-width="1"/>
  </g>
</svg>
