<svg xmlns="http://www.w3.org/2000/svg" width="142.415" height="219.913" viewBox="0 0 142.415 219.913">
  <g id="openpeeps_peep-standing-4" data-name="openpeeps / peep-standing-4" transform="translate(-12.199 -3.087)">
    <g id="BODY" transform="translate(12.199 82.074)">
      <path id="_Background" data-name="ðŸŽ¨ Background" d="M131.35,62.566c-.6-1.646.276-3.287.761-4.879a99.672,99.672,0,0,1,6.27-16.193,2.309,2.309,0,0,0-2.574-3.35,50.136,50.136,0,0,1-9.986-.11c-1.206-3.122-4.426-4.417-6.96-6.215-2.875-1.8-5.672-3.857-8.663-5.431-.166-1.487-1.969-1.856-3.071-.792-3.028-1.884-6.658-1.534-9.9-2.769-2.466-3.988-2.651-8.181-3.3-12.028-.285-1.677.018-3.295-1.128-4.79C88.944.6,73.74-1.752,68.135,1.456c-3.017-1.883-3.09,1.527-3.569,3.631a6.679,6.679,0,0,0-.732,3.5c-3.241,6.772-10.656,9.834-17.3,12.314a2.08,2.08,0,0,0-2.816-.037,43.775,43.775,0,0,0-16.165,6.888c-5.479,1.6-9.337,6.061-12.128,10.841a2.067,2.067,0,0,0-.29,1.49C6.559,52.665,2.464,67.728,1.889,82.941c-5.518,3.313,2.623,33.072,4.517,39.25l.006,0c1.229,2.177,2.625,8.39,5.7,7.91,2.11,2.387,5.474,1.918,8.338,2.1a10.486,10.486,0,0,0,.318,5.607c.657,2.106,3.879,2.177,4.336-.119,28.52,5.543,57.784,1.12,86.625,1.952,8.339.059,16.677.317,25,.912a2.291,2.291,0,0,0,2.279-2.281c-1.789-19.036-3.468-44.077-5.468-62.926C133.063,71.047,132.688,66.7,131.35,62.566Z" transform="translate(1.337 0)" fill="#fff"/>
      <path id="_Ink" data-name="ðŸ– Ink" d="M140.787,138.446a.867.867,0,0,1-.684-.322,3.351,3.351,0,0,1-.9-2.242c-.026-.435-.041-.879-.055-1.309-.01-.3-.02-.6-.034-.9-.07-1.553-.161-3.165-.271-4.792-.221-3.317-.469-6.536-.738-9.567-.579-6.551-1.478-13.181-2.348-19.592-.614-4.525-1.248-9.2-1.765-13.81-.641-5.725-1.082-11.409-1.313-16.9-.116-2.767-.161-5.615-.133-8.466.01-.971.053-2,.132-3.151-1.872,4.255-3.855,8.5-5.893,12.615l-.488.984a85.817,85.817,0,0,1-4.207,7.736l-.269.422c-.067.106-.136.217-.207.334-.6.967-1.415,2.291-2.45,2.575a3.93,3.93,0,0,1-1.049.117c-.295,0-.6-.018-.886-.036-.239-.014-.464-.028-.681-.032l-.742-.012c-.563-.008-1.146-.017-1.718-.04a12.023,12.023,0,0,1-2.684-.4,3.116,3.116,0,0,1-.414-.137,8.528,8.528,0,0,1-3.97,3.23,27.466,27.466,0,0,1-3.858,1.208l-.461.115c-.2.05-.409.1-.61.143-1.233.279-2.507.567-3.185,1.727l-.183.314A7.934,7.934,0,0,1,96.6,90.85a11.336,11.336,0,0,1-3.522,1.634c-1.018.311-2.072.567-3.091.814l-.754.184-.35.087c-.282.071-.578.143-.84.206-.562.137-1.142.277-1.707.432-.388.106-.736.2-1.078.322a3.73,3.73,0,0,0-1.039.6,2.475,2.475,0,0,1-2.4,1.515c-.06,0-.121,0-.179-.006a3.2,3.2,0,0,1-1.467-.49c-.5.428-1.043.83-1.566,1.22-.277.206-.562.419-.837.631-1.132.877-2.246,1.729-3.313,2.533-2.452,1.849-4.717,3.516-6.925,5.1-3.952,2.831-8.211,5.7-12.658,8.513-1.611,1.02-3.515,2.219-5.417,3.374l.194.072.386.146c1.7.635,2.015,1.419,2.1,1.954a1.316,1.316,0,0,1-.206,1.026,1.361,1.361,0,0,1-.958.5,1.854,1.854,0,0,1-.226.014,3.145,3.145,0,0,1-2.151-1.259c-.115-.125-.237-.247-.356-.366-.162-.163-.33-.331-.481-.506a1.85,1.85,0,0,1-.26-.416c-2,1.177-3.783,2.172-5.46,3.041l-.462.238c-1.987,1.017-3.985,2.094-5.916,3.135l0,0h0c-2.515,1.356-5.116,2.758-7.725,4.044a25.275,25.275,0,0,1-4.2,1.673,19.432,19.432,0,0,1,.409,4.7v.2a1.11,1.11,0,0,1-.311.811,1.281,1.281,0,0,1-.909.354,1.252,1.252,0,0,1-.9-.356,1.08,1.08,0,0,1-.289-.809l.025-.749a19.162,19.162,0,0,1,.417-3.789,14.965,14.965,0,0,1-2.441.194,18.2,18.2,0,0,1-7.409-1.56,10.755,10.755,0,0,1-2.465-2.2A22.759,22.759,0,0,1,6.41,121.8a70.063,70.063,0,0,1-4.393-13.863A91.939,91.939,0,0,1,.3,81.292a98.079,98.079,0,0,1,5.694-26.1,100.562,100.562,0,0,1,5.4-12.18l.257-.486A57.975,57.975,0,0,1,18.92,31.458a36.3,36.3,0,0,1,10.856-8.2A57.739,57.739,0,0,1,35.9,20.579c.291-.109.6-.215,1.013-.344,2.857-1.821,5.183-2.67,7.321-2.67l.153,0a.639.639,0,0,1,.434.174,3.644,3.644,0,0,1,.383.087.737.737,0,0,1,.539.708l-.014.106a.829.829,0,0,1-.033.15,1.563,1.563,0,0,1,.279.068c1.668-.472,3.341-1.116,4.958-1.739.834-.321,1.7-.653,2.538-.954l.562-.2.228-.08A17.363,17.363,0,0,0,59.929,13.1a15.005,15.005,0,0,0,3.877-5.279,33.336,33.336,0,0,0,1.58-4.555c.3-1.027.612-2.089.988-3.11A.222.222,0,0,1,66.586,0a.2.2,0,0,1,.208.208,26.847,26.847,0,0,1-1.086,8.405,14.753,14.753,0,0,1-4.4,7.1,20.7,20.7,0,0,1-6.61,3.265c-.382.135-.777.275-1.161.416l-.3.111-4.714,1.757c-.179.067-.362.139-.539.209a6.232,6.232,0,0,1-2.155.58,1.915,1.915,0,0,1-1.009-.265c.267.661.525,1.339.774,1.995a47.031,47.031,0,0,0,1.958,4.637,33.069,33.069,0,0,0,5,7.306,28.817,28.817,0,0,0,10.73,7.4,34.132,34.132,0,0,0,12.79,2.4,37.313,37.313,0,0,0,8.273-.932c6.731-1.534,11.921-4.361,15.424-8.4a20.6,20.6,0,0,0,3.551-5.95,24.314,24.314,0,0,0,1.6-6.794,1.007,1.007,0,0,1-.162.013.975.975,0,0,1-.21-.023,14.591,14.591,0,0,1-4.124-1.827l-.121-.072a11.742,11.742,0,0,1-3.335-2.692c-.854-1.113-1.756-4.749-1.765-4.785a35.525,35.525,0,0,1-.437-5.51c0-.081.228-.144.42-.144.124,0,.207.026.227.072a13.269,13.269,0,0,1,.669,2.833,16.093,16.093,0,0,0,.458,2.173l.084.245c.079.228.154.46.234.706a8.814,8.814,0,0,0,1.51,3.179c1.463,1.652,3.554,2.5,5.577,3.311.355.143.723.291,1.078.441a1.754,1.754,0,0,1,1.84-1.615,1.88,1.88,0,0,1,1.344.528,1.668,1.668,0,0,1,.455,1.234c0,.083,0,.166-.008.249q0,.062,0,.124c.29.16.564.34.794.495l.243.166a32.335,32.335,0,0,0,2.829,1.753c1.217.66,2.5,1.241,3.741,1.8.7.315,1.413.64,2.112.976a29.634,29.634,0,0,1,5.526,3.42,28.63,28.63,0,0,1,2.315,2.024l.2.2c.113.112.233.228.348.34a7.114,7.114,0,0,1,1.657,2.048c.09.206.527.671.766.687,4.058.266,7.675.625,11.055,1.1a1.288,1.288,0,0,1,1.016.524.981.981,0,0,1-.041.891c-1.2,2.7-5.955,13.649-7.193,16.523.075,1.1.06,2.313.045,3.489-.014,1.121-.029,2.279.035,3.327.188,3.037.441,6.194.752,9.383.849,8.724,2.06,17.558,3.231,26.1.328,2.393.667,4.867.993,7.3.777,5.806,1.489,11.671,2.1,16.713.357,2.97.634,5.739.847,8.466.095,1.206.179,2.4.249,3.538l.063,1.047c.009.137.02.273.03.409a4.62,4.62,0,0,1-.555,3.3A1.32,1.32,0,0,1,140.787,138.446ZM3.5,100.128c.4,3.013.952,6.01,1.637,8.909l.153.642A70.264,70.264,0,0,0,8.757,120.75a19.332,19.332,0,0,0,2.95,4.837,13.669,13.669,0,0,0,1.987,1.9,9.248,9.248,0,0,0,5.08,1.526,10.336,10.336,0,0,0,4.3-.648l.011,0a40.338,40.338,0,0,0,5.709-2.672l.012-.006c.418-.223.85-.453,1.273-.674l.235-.122c.923-.478,1.906-.994,3-1.579a4.3,4.3,0,0,1,.625-2.814,1.013,1.013,0,0,1,.9-.554,1.231,1.231,0,0,1,1.195,1.083l0,.04a5.368,5.368,0,0,0,.1.712c6.284-3.443,12.706-7.253,19.634-11.647,4.186-2.655,8.315-5.386,12.274-8.116,2.039-1.406,4.057-2.837,6-4.253,1.022-.745,2.064-1.515,3.1-2.289.217-.162.433-.331.643-.493s.421-.327.634-.487c-.1-.125-.2-.25-.3-.389a17.559,17.559,0,0,1-3.16-7.181,28.592,28.592,0,0,1-.51-4.762l-.02-.691a16.81,16.81,0,0,1,.175-3.507l-.3.161-.005,0c-.193.1-.39.211-.584.322-1.184.671-2.182,1.234-3.2,1.806-1.9,1.064-4.147,2.315-6.457,3.525-4.443,2.329-8.2,4.142-11.824,5.7l-1.958.844a103.568,103.568,0,0,1-10.359,3.986c-1.868.575-3.838,1.1-6.024,1.6l.817.959a1.6,1.6,0,0,1,.4,1.184,1.351,1.351,0,0,1-.54.945,1.391,1.391,0,0,1-.855.3,1.487,1.487,0,0,1-1.24-.7l-.846-1.3a2.339,2.339,0,0,1-.342-.813c-.91.191-1.827.375-2.8.563l-1.77.338a25.061,25.061,0,0,0-7.237,2.691.827.827,0,0,1-.387.119.289.289,0,0,1-.3-.2c-.068-.216.063-.591.512-.9a26.246,26.246,0,0,1,8.2-3.472l.144-.04c1.073-.294,2.155-.6,3.216-.919a4.558,4.558,0,0,1-.172-1.354c.019-.688.065-1.389.11-2.067.026-.391.052-.795.074-1.193.117-2.2.267-4.435.457-6.818.071-.9.15-1.785.236-2.631-.192-.1-.379-.219-.559-.332a5.06,5.06,0,0,0-1.15-.586l-.107-.031a.509.509,0,0,1-.417-.541.663.663,0,0,1,.571-.6,4.717,4.717,0,0,1,.578-.036,5.091,5.091,0,0,1,1.063.115c.087.019.166.04.24.062.1-.839.216-1.656.336-2.428.063-.4.123-.815.181-1.214V75a29.646,29.646,0,0,1,1.078-5.2.218.218,0,0,1,.2-.143.173.173,0,0,1,.157.1,14.027,14.027,0,0,1,1.128,5.865v.016q.013.26.026.517l.014.254c.118,2.043.149,4.27.1,7.008-.042,2.26-.119,4.614-.234,7.2-.009.209-.017.423-.024.63a16.448,16.448,0,0,1-.182,2.262,134.588,134.588,0,0,0,17.514-7.041c3.985-1.951,7.963-3.994,11.822-6.074.863-.465,1.742-.934,2.592-1.388l.018-.01c1.069-.571,2.174-1.161,3.258-1.748l2.05-1.114,1.024-.559.326-.18a5.4,5.4,0,0,1,2.549-.9h.032a1.087,1.087,0,0,1,.811.382,3.47,3.47,0,0,1,2-.681h.023c1.294-1.788,2.364-3.213,3.364-4.484l.855-1.087a28.63,28.63,0,0,1,4.931-5.209,12.022,12.022,0,0,1,2.733-1.51,1.443,1.443,0,0,1-.648-.351,5.363,5.363,0,0,1-1.172-3.21c-.022-.148-.042-.29-.064-.427a10.953,10.953,0,0,1,.072-3.579.554.554,0,0,1,.576-.42.5.5,0,0,1,.486.281c.135.307.275.614.41.912.272.6.554,1.217.8,1.846l.11.283a10.737,10.737,0,0,0,.467,1.012,4.852,4.852,0,0,1,.725,2.3,1.477,1.477,0,0,1-.284.808c.571-.19,1.155-.367,1.719-.539l.03-.009L94.4,60.6c2.3-.712,4.99-1.526,7.7-2.164.7-.165,1.4-.317,2.083-.452a35.188,35.188,0,0,1,1.526-5.112,4.26,4.26,0,0,1-1.048-.845c-.141-.141-.287-.286-.443-.424a6.651,6.651,0,0,1-.846-.963c-.119-.154-.242-.314-.371-.468a.815.815,0,0,1-.11-.854.621.621,0,0,1,.584-.368h.031l.189.008a4.726,4.726,0,0,1,1.992.427l.223.116a7.581,7.581,0,0,1,.942.557c.353-.812.737-1.662,1.209-2.675l.534-1.141.413-.889a71.458,71.458,0,0,1,4.086-7.932,4.106,4.106,0,0,1,3.274-2.116c.379-.031.78-.045,1.227-.045.719,0,1.454.039,2.164.077.4.022.821.044,1.227.058,1.892.067,3.621.142,5.286.23-.2-.215-.4-.443-.6-.664-.232-.266-.472-.541-.72-.789a27.344,27.344,0,0,0-2.383-2.125,29.519,29.519,0,0,0-5.362-3.307c-.488-.239-.986-.473-1.467-.7a35.231,35.231,0,0,1-4.14-2.178,16.072,16.072,0,0,1-3.041-2.621,26.172,26.172,0,0,1-8.086,16.334c-5.323,5.124-12.447,7.2-17.486,8.038a41.848,41.848,0,0,1-6.844.572,36.562,36.562,0,0,1-12.53-2.137,33.886,33.886,0,0,1-8.965-4.887,2.276,2.276,0,0,1-.136.526,3.606,3.606,0,0,1-.344.616l-.237.347c-.143.209-.3.432-.473.638a2.026,2.026,0,0,1-1.613.7h-.011a1.849,1.849,0,0,1-1.474-.747,1.83,1.83,0,0,1-.317-1.6,2.113,2.113,0,0,1,1.319-1.462c.21-.089.42-.162.654-.241l.165-.056a4.727,4.727,0,0,1,.673-.192A30.1,30.1,0,0,1,49.3,35.975a30.383,30.383,0,0,1-4.459-7.3,14.341,14.341,0,0,1-1.095-8.33.231.231,0,0,1,.2-.171,1.8,1.8,0,0,1,.558-1.022,4.969,4.969,0,0,0-.579-.116c-.465.1-.974.208-1.6.327-.492.264-.989.535-1.47.8l-.011.006c-1.492.813-3.036,1.655-4.621,2.388a73.037,73.037,0,0,0-6.559,3.34,34.906,34.906,0,0,0-10.7,9.8A83.885,83.885,0,0,0,7.511,58.73c-.679,2.056-1.3,4.181-1.848,6.314a9.791,9.791,0,0,1,3.38-1.906.977.977,0,0,1,.338-.058,1.415,1.415,0,0,1,1.151.665,1.145,1.145,0,0,1,.18.666,1.339,1.339,0,0,1-.968,1.273,24.466,24.466,0,0,0-3.3.937l-.01,0c-.233.078-.465.156-.7.232a.712.712,0,0,1-.223.038.575.575,0,0,1-.285-.074A94.612,94.612,0,0,0,2.815,83.691a90.063,90.063,0,0,0,.439,14.468A6.834,6.834,0,0,1,4.513,97.7c.551-.128,1.115-.287,1.722-.486a1.346,1.346,0,0,1,.419-.07,1.315,1.315,0,0,1,1.227,1.241,1.225,1.225,0,0,1-.934,1.41c-.66.162-1.277.285-1.886.375a4.266,4.266,0,0,1-.626.046A5.737,5.737,0,0,1,3.5,100.128ZM111.858,59.145c-4.67,0-9.366,1.288-13.4,2.5l-.99.3c-2.029.611-3.726,1.142-5.417,1.75A12.811,12.811,0,0,0,86.968,67.1c-.494.52-.991,1.053-1.472,1.568-1.108,1.187-2.251,2.411-3.431,3.569-.972.954-2.03,1.966-3.236,3.095a3.374,3.374,0,0,0-.579,1.115,5.369,5.369,0,0,0-.09,2.246c.094.848.158,1.714.22,2.552.082,1.109.166,2.255.323,3.374a20.1,20.1,0,0,0,1.367,5.4A9.994,9.994,0,0,0,81.2,91.922l.357.466c.138.179.32.412.513.631a1.259,1.259,0,0,1,.972-.5,1.184,1.184,0,0,1,.138.008A8.7,8.7,0,0,0,84.2,92.6a7.018,7.018,0,0,0,1.64-.2c.484-.113.972-.241,1.445-.365.246-.065.491-.129.735-.191.4-.1.8-.2,1.191-.3,1.019-.253,2.069-.513,3.087-.815l.242-.073a9.189,9.189,0,0,0,2.981-1.406,5.49,5.49,0,0,0,1.371-1.785,9.631,9.631,0,0,1,.713-1.13c1.213-1.585,3.512-1.955,5.54-2.281.679-.109,1.32-.212,1.9-.354a10.441,10.441,0,0,0,5.312-2.714l.08-.087a.618.618,0,0,1,.279-.686l.052-.029a.581.581,0,0,1,.284-.072h.01a6.83,6.83,0,0,0,.366-.591.141.141,0,0,1,.125-.081.174.174,0,0,1,.13.064.17.17,0,0,1,.039.141c-.015.081-.034.16-.053.237l-.015.061a12.24,12.24,0,0,1,3.015-.284l.6,0h0l.554,0,1.767-.007a7.231,7.231,0,0,0,.8-.037l.042-.018.038-.016h-.013c-.008,0-.013,0-.016-.007s0-.025.021-.049c.08-.106.162-.218.25-.342.254-.355.514-.743.842-1.259a77.072,77.072,0,0,1-9.047,1.615,77,77,0,0,1-9.8.715.651.651,0,0,1-.673-.667.688.688,0,0,1,.673-.728c3.292-.126,6.824-.305,10.35-.76,1.732-.224,3.52-.512,5.313-.855.664-.126,1.349-.265,2.036-.414l.507-.11c.065-.015.156-.03.261-.049a4.115,4.115,0,0,0,1.4-.417l.258-.444c-.024-.3-.486-.454-1.372-.454h-.56c-.483,0-.972,0-1.446,0l-.93,0h-.681c-1.4,0-2.823-.011-4.195-.022l-.394,0c-.892-.007-1.8-.021-2.678-.034-1.32-.02-2.682-.04-4.021-.04-1.433,0-2.689.024-3.841.073h-.033a.93.93,0,0,1-.852-.787.762.762,0,0,1,.429-.9c3.3-1.411,6.952-1.843,10.481-2.261l.016,0q.656-.078,1.309-.157a49.02,49.02,0,0,0,6.212-1.072l.5-.128a11.1,11.1,0,0,0,3.775-1.512,13,13,0,0,0-4.308-.632c-.352-.012-.684-.024-1.01-.042l-.128-.007c-2.338-.144-4.716-.219-7.068-.223h-.267c-4.079,0-8.459.121-14.2.393h-.005a.1.1,0,0,1-.1-.1.1.1,0,0,1,.076-.113,76.475,76.475,0,0,1,15.055-1.683c.621-.01,1.25-.015,1.87-.015,1.732,0,3.485.039,5.211.116l.865.04.342.014c1.964.081,4,.165,5.583,1.311a.925.925,0,0,1,.413.672c2.051-4.091,3.988-8.32,5.861-12.409l.02-.043.552-1.2c.552-1.2,1.106-2.431,1.642-3.618,1.044-2.311,2.123-4.7,3.237-7.027l.546-1.139c.816-1.7,1.521-3.113,2.311-4.5-2.816-.376-5.879-.679-9.363-.925-2.227-.157-8.349-.464-11.628-.464a13.087,13.087,0,0,0-1.895.083c-1.282.249-1.923,1.59-2.489,2.773-.113.237-.22.46-.329.669-1.489,2.847-2.886,5.8-4.238,8.647l-.116.245c-.317.668-.633,1.351-.938,2.011l-.349.755a1.416,1.416,0,0,1-.1.215c-.98,2.11-1.837,3.861-2.834,5.554.988-.185,1.968-.339,2.91-.457a6.23,6.23,0,0,1,.693-2.452c.072-.168.14-.324.2-.465l.026-.065c.063-.16.126-.334.192-.518.34-.942.763-2.114,1.6-2.544a.516.516,0,0,1,.238-.06.486.486,0,0,1,.475.469,4.716,4.716,0,0,1-1.057,2.535c-.168.258-.326.5-.453.726-.32.567-.63,1.136-.921,1.689-.038.071-.073.142-.108.212-.071.142-.137.273-.212.4.6-.065,1.085-.108,1.51-.138l.328-.022c.451-.03,1.044-.064,1.638-.064a7.93,7.93,0,0,1,3.906.828,3.234,3.234,0,0,1,1.507,4.344c-1.032,1.993-3.2,2.326-5.512,2.514-2.49.2-5.016.562-7.459.911l-.31.044A34.852,34.852,0,0,0,99.6,66.769c-1.118.311-2.274.633-3.433.856a.257.257,0,0,1-.048,0,.236.236,0,0,1-.226-.173.207.207,0,0,1,.1-.241,26.97,26.97,0,0,1,6.233-2.458l.669-.2.187-.058c.262-.08.528-.165.784-.246l.005,0a22.065,22.065,0,0,1,2.993-.8c1.245-.21,2.524-.384,3.8-.516l.123-.011c.155-.013.338-.024.533-.036,1.267-.077,3.182-.194,3.958-1.081a1.363,1.363,0,0,0,.331-1.034c-.106-1.459-2.59-1.614-3.348-1.627C112.13,59.146,111.994,59.145,111.858,59.145Zm6.7,14.788a6.64,6.64,0,0,1,2.393.328,2.188,2.188,0,0,1,.581.336c.942-1.677,1.873-3.419,2.844-5.326a10.748,10.748,0,0,1-4.81,2.407,42.149,42.149,0,0,1-6.078,1.232c-.546.077-1.1.153-1.627.226h-.006c-1.4.193-2.845.392-4.254.625l1.359.015h.012c1,.011,2.03.022,3.043.04,1.961.036,3.577.073,5.083.117.125,0,.262.005.419.005.173,0,.346,0,.523,0h.015C118.222,73.934,118.39,73.932,118.559,73.932Zm-2.184,62.73a1.656,1.656,0,0,1-1.679-1.63,6.4,6.4,0,0,1,2.38-4.893.675.675,0,0,1,.409-.141,1.045,1.045,0,0,1,.873.664,6.365,6.365,0,0,1-.557,5.211A1.679,1.679,0,0,1,116.376,136.662Zm8.549-.2a.612.612,0,0,1-.582-.452,22.452,22.452,0,0,1-.883-4.8v-.009c-.036-.328-.073-.668-.113-1-.192-1.612-.32-3.261-.443-4.855l-.048-.619-.043-.548c-.322-4.051-.578-8.109-.76-12.062-.183-3.937-.3-8-.344-12.076-.02-1.765.008-3.613.081-5.494l.023-.548c.019-.432.031-.879.042-1.311a22.791,22.791,0,0,1,.4-4.41.194.194,0,0,1,.2-.147.2.2,0,0,1,.2.147,23.577,23.577,0,0,1,.457,4.193c.022.437.044.888.073,1.325l.015.2c.158,2.165.276,4.141.358,6.042.165,3.789.371,7.789.612,11.888.112,1.926.237,3.908.37,5.891a11.465,11.465,0,0,1,1.275-.609,4.757,4.757,0,0,1,1.837-.29h.17a1.419,1.419,0,0,1,1.4,1.61,1.381,1.381,0,0,1-1.462,1.207,2.031,2.031,0,0,1-.311-.024c-.347-.055-.7-.121-1.04-.185-.577-.109-1.175-.222-1.765-.28.114,1.646.22,3.135.327,4.552.067.887.145,1.789.219,2.661.095,1.1.193,2.241.27,3.362.012.183.026.366.04.549l0,.027a8.1,8.1,0,0,1,1.674-.583l.156-.042.175-.049.229-.067h0a5.632,5.632,0,0,1,1.544-.305,1.9,1.9,0,0,1,1.156.361,1.241,1.241,0,0,1,.534.85,1.166,1.166,0,0,1-.308.905,2.324,2.324,0,0,1-1.9.713c-.236,0-.479-.013-.714-.026l-.339-.017-.569-.021a6.765,6.765,0,0,1-1.526-.19,20.367,20.367,0,0,1-.021,3.911A.68.68,0,0,1,124.924,136.466Zm-82.807-1.923a2.365,2.365,0,0,1-.977-.222,5.246,5.246,0,0,1-1.931-1.63l-.152-.193-.016-.02a2.9,2.9,0,0,1-.575-.949,2.951,2.951,0,0,1-.021-1.03l.006-.062a.561.561,0,0,1,.485-.54.406.406,0,0,1,.052,0c.13.017.262.022.391.028a3.8,3.8,0,0,1,.46.038,2.307,2.307,0,0,1,.661.253c.112.057.227.115.346.163a9.32,9.32,0,0,0,1.059.327c.224.06.455.121.676.192a1.969,1.969,0,0,1,1.195,1.039,1.824,1.824,0,0,1,.017,1.486A1.751,1.751,0,0,1,42.117,134.542Zm54.517-4.449a5.473,5.473,0,0,1-2.773-1.128c-.2-.125-.384-.243-.572-.355l-.063-.037c-.151-.088-.3-.175-.453-.261a6.815,6.815,0,0,1-2.635-2.155.669.669,0,0,1-.014-.613.52.52,0,0,1,.393-.316,4.48,4.48,0,0,1,.624-.044,8.381,8.381,0,0,1,2.8.643l.284.1.1.034c.234.081.484.156.749.236,1.155.347,2.462.739,2.985,1.786a1.542,1.542,0,0,1,.034,1.323,1.269,1.269,0,0,1-.862.713A2.468,2.468,0,0,1,96.633,130.094Zm-23.84-7.288a2.18,2.18,0,0,1-1.858-1.175,1.9,1.9,0,0,1,.04-2,6.648,6.648,0,0,1,3.521-2.218l.461-.173a26.087,26.087,0,0,0,3.419-1.7l.452-.253a.666.666,0,0,1,.326-.088.7.7,0,0,1,.629.439.629.629,0,0,1-.143.7l-.808.808a22.561,22.561,0,0,0-2.121,2.374l-.156.21-.165.225a6.69,6.69,0,0,1-3.045,2.761A1.869,1.869,0,0,1,72.794,122.805Zm-52.551-5.792a2.141,2.141,0,0,1-1.469-.587,2.045,2.045,0,0,1-.31-2.4,5.9,5.9,0,0,1,1.674-1.827c.256-.213.5-.414.718-.621l.072-.068c.309-.3.631-.572.943-.835a9.832,9.832,0,0,0,1.574-1.547.7.7,0,0,1,.566-.264.656.656,0,0,1,.539.248.524.524,0,0,1,.039.5c-.215.583-.4,1.208-.586,1.869-.579,2.007-1.179,4.082-2.827,5.258A1.592,1.592,0,0,1,20.243,117.013Zm92.138-.168a1.709,1.709,0,0,1-1.182-2.874,8.911,8.911,0,0,1,3.027-1.773c.183-.078.372-.158.553-.237l.284-.126a6.309,6.309,0,0,1,2.147-.518,1.1,1.1,0,0,1,.91.325.374.374,0,0,1,.064.084.77.77,0,0,1,0,.782,8.939,8.939,0,0,1-2.176,2.322l-.1.075c-.185.136-.371.279-.55.417a7.521,7.521,0,0,1-2.521,1.462A1.736,1.736,0,0,1,112.381,116.845ZM54.21,102.828a1.8,1.8,0,0,1-.814-.208,9.841,9.841,0,0,1-4.3-4.236.573.573,0,0,1,.013-.58.586.586,0,0,1,.495-.3.547.547,0,0,1,.288.084,19.9,19.9,0,0,0,4.769,2.03,1.674,1.674,0,0,1,1.2,1.583l-.007.109a1.291,1.291,0,0,1-.217.72A1.8,1.8,0,0,1,54.21,102.828Zm42.333-.687c-1.125,0-2.328-1.089-3.134-1.908l-.04-.04a6.256,6.256,0,0,1-1.881-3.313.3.3,0,0,1,.06-.245.264.264,0,0,1,.206-.091.346.346,0,0,1,.065.006,9.634,9.634,0,0,1,3.41,1.5c.291.189.582.39.863.584.265.184.538.373.81.551a1.984,1.984,0,0,1,1.059,1.667,1.258,1.258,0,0,1-.919,1.207A1.618,1.618,0,0,1,96.543,102.141Zm36.68-1.354a4.327,4.327,0,0,1-2.676-1.564l-.058-.065c-.094-.109-.19-.217-.292-.332a8.1,8.1,0,0,1-1.113-1.455,11.278,11.278,0,0,1-.635-1.531c-.049-.137-.1-.272-.147-.406a.745.745,0,0,1,.091-.7,1.011,1.011,0,0,1,.808-.419.8.8,0,0,1,.414.11c.21.124.431.242.644.356a10.471,10.471,0,0,1,1.152.682c.334.239.654.51.963.773.166.141.338.288.512.428l.244.193a4.008,4.008,0,0,1,1.608,2.556,1.256,1.256,0,0,1-.5,1.013A1.574,1.574,0,0,1,133.223,100.787Zm-19.742-9.118h-.032a1.513,1.513,0,0,1-1.18-.489,1.686,1.686,0,0,1-.43-1.625,7,7,0,0,1,2.956-3.784.686.686,0,0,1,.334-.083.639.639,0,0,1,.651.484c.017.087.038.174.059.267a3.466,3.466,0,0,1,.117.754,3.878,3.878,0,0,1-.139.864c-.03.125-.058.243-.08.359a7.445,7.445,0,0,1-.847,2.427A1.676,1.676,0,0,1,113.481,91.669ZM43.4,86.336a7.046,7.046,0,0,1-3.529-1.023.773.773,0,0,1-.273-1.04,5.473,5.473,0,0,1,4.274-2.633c.08,0,.16,0,.238.009A2.329,2.329,0,0,1,46.319,83.7a2.229,2.229,0,0,1-1.6,2.44A4.186,4.186,0,0,1,43.4,86.336ZM20.319,84.309a1.681,1.681,0,0,1-.437-.058A13.143,13.143,0,0,1,16.215,82.3l-.252-.17-.218-.145-.093-.061a7.885,7.885,0,0,1-1.394-1.072,9.629,9.629,0,0,1-.95-1.255c-.066-.1-.131-.194-.2-.289a.3.3,0,0,1-.021-.321.412.412,0,0,1,.351-.213.343.343,0,0,1,.073.008c.239.052.49.094.733.135a9.373,9.373,0,0,1,1.17.247,10.633,10.633,0,0,1,1.039.4c.265.112.538.228.809.323.535.187,1.094.339,1.634.485a16.52,16.52,0,0,1,2.3.746,1.662,1.662,0,0,1,.849,1.481l-.011.125a1.652,1.652,0,0,1-.223.74A1.771,1.771,0,0,1,20.319,84.309ZM64.19,78.6c-1,0-2-1.39-2.106-1.549a9.567,9.567,0,0,1-1.368-3.031.544.544,0,0,1,.087-.485.622.622,0,0,1,.487-.238.574.574,0,0,1,.4.158c.35.326.712.647,1.063.958.483.428.982.87,1.454,1.331l.054.054c.368.37,1.505,1.644.674,2.476A1.026,1.026,0,0,1,64.19,78.6ZM45.232,62.137a2.046,2.046,0,0,1-1.875-1.643,1.541,1.541,0,0,1,.9-1.826,34.47,34.47,0,0,1,4-1.625c.228-.072.457-.15.678-.225l.005,0a8.452,8.452,0,0,1,2.735-.607,4.366,4.366,0,0,1,.447.023.561.561,0,0,1,.442.287.463.463,0,0,1-.017.453,7.232,7.232,0,0,1-2.3,2.226l-.006,0c-.142.1-.289.207-.433.313l-.092.068a33.474,33.474,0,0,1-3.584,2.3A1.832,1.832,0,0,1,45.232,62.137Zm32.231-4.764a1.419,1.419,0,0,1-.5-.1c-1.8-.671-3.734-1.385-5.676-2.055a.627.627,0,0,1-.4-.706.493.493,0,0,1,.5-.437h.008l.037,0c2.017.133,4.034.222,5.914.3a1.364,1.364,0,0,1,1.406,1.461A1.448,1.448,0,0,1,77.462,57.373Zm-52.237-4.72h-.067A8.265,8.265,0,0,1,21.2,51.236a8.144,8.144,0,0,1-2.475-2.447.393.393,0,0,1-.046-.405.6.6,0,0,1,.47-.335c.254-.026.513-.065.764-.1.323-.049.657-.1.984-.123.066,0,.135-.007.206-.007a6.767,6.767,0,0,1,.876.077c.15.02.3.04.455.055l.544.053a10.628,10.628,0,0,1,3.243.706,1.775,1.775,0,0,1,1,2.1A2.186,2.186,0,0,1,25.226,52.653Zm91.117-5.061a1.382,1.382,0,0,1-1.137-.639c-.883-1.259-.294-2.7.318-3.814l.192-.345A8.891,8.891,0,0,1,116.963,41l.009-.053a1.475,1.475,0,0,1,2.583-.9,1.54,1.54,0,0,1,.312,1.3,12.834,12.834,0,0,1-2.359,5.615A1.461,1.461,0,0,1,116.343,47.592ZM39.251,35.4a1.557,1.557,0,0,1-1.626-1.231l-.028-.162-.025-.134a3.969,3.969,0,0,1-.066-1.77,5.66,5.66,0,0,1,.549-1.191l0-.008.1-.174.05-.092a9.331,9.331,0,0,1,1.955-2.392A1.027,1.027,0,0,1,40.841,28a.852.852,0,0,1,.874.666,9.016,9.016,0,0,1,.213,3.169c-.017.122-.033.25-.047.374a4.927,4.927,0,0,1-.28,1.322,4.34,4.34,0,0,1-1.049,1.342l-.062.061A1.77,1.77,0,0,1,39.251,35.4Zm72.99-2a2.4,2.4,0,0,1-1.5-.763l-.076-.064a5.966,5.966,0,0,0-1.614-.95.691.691,0,0,1-.423-.77.56.56,0,0,1,.589-.46l.179,0c.909.018,3.878.221,3.892,2.056a.953.953,0,0,1-.689.906A1.58,1.58,0,0,1,112.241,33.4Z" transform="translate(0 2.48)"/>
    </g>
    <g id="HEAD" transform="translate(44.814 3.087)">
      <path id="_Background-2" data-name="ðŸŽ¨ Background" d="M73.249,33.592c-.708-5.651-2.932-11.652-5.27-16.92C62.72,5.532,50.68,4,39.888,1.7,29.237.15,17.959-1.25,7.47,1.844,1.572,3.29-.731,10.316.2,15.86c.531,3.455,2.1,6.725,3.444,9.927A55.6,55.6,0,0,1,8,46.523c-.183,4.653-.839,9.963,4.505,11.934,5.086,2.53,5.516,9.389,11.884,13.28,2.575,5.218,9.589,5.677,14.638,6.888,3.191.611,6.418,1.061,9.653,1.351,9.369,1.2,16.864-1.515,21.769-9.864C73.732,65.029,76.177,59.162,75.573,53,74.971,46.519,73.97,40.068,73.249,33.592Z" transform="translate(5.721 12.21)" fill="#fff"/>
      <path id="_Ink-2" data-name="ðŸ– Ink" d="M56.093,94.072a22.829,22.829,0,0,1-11.6-2.93,1.218,1.218,0,0,1-.626-1.414,1.446,1.446,0,0,1,1.359-1.063,1.484,1.484,0,0,1,.628.145,25.74,25.74,0,0,0,9.172,2.609c.566.04,1.14.06,1.7.06a23.39,23.39,0,0,0,7.653-1.272,21.817,21.817,0,0,0,6.811-3.864,23.606,23.606,0,0,0,5.12-5.938,22.383,22.383,0,0,0,2.828-7.141,35.194,35.194,0,0,0,.31-9.621l-.016-.219c-.554-7.3-1.215-13.167-2.079-18.465a98.949,98.949,0,0,0-3.99-15.85,9.459,9.459,0,0,0-2.281-1.488c-2.309-.1-4.643-.145-6.939-.145-3.728,0-7.483.129-11.16.383A151.444,151.444,0,0,0,37.66,29.7l-.544.1c-.248.044-.509.085-.76.125a11.289,11.289,0,0,0-2.669.642,2.71,2.71,0,0,0-1.5,2.056,35.538,35.538,0,0,0-.752,7.04l-.009.216c-.042,1.017-.024,2.055-.007,3.059.022,1.3.045,2.637-.06,3.947a8.058,8.058,0,0,1-2.1,5.34,8.433,8.433,0,0,1-1.749,1.219c-.264.152-.537.31-.8.479a1.3,1.3,0,0,0-.729,1.4,8.151,8.151,0,0,0,.3,1.3c.327,1.157.665,2.353-.284,3.252a.66.66,0,0,1-.449.176.557.557,0,0,1-.416-.176A8.626,8.626,0,0,0,23.7,58.721c-.173-.121-.352-.246-.52-.371a.264.264,0,0,1-.109-.3.255.255,0,0,1,.242-.177.313.313,0,0,1,.127.029c.191.086.387.181.578.272.216.1.438.211.661.31a7.625,7.625,0,0,0-3.357-1.367A6.032,6.032,0,0,0,20.15,57c-.18,0-.362.008-.54.024-.45.215-.91.413-1.3.578-.5.209-1.048.42-1.68.645a7.206,7.206,0,0,0-2.485,6.733,5.472,5.472,0,0,0,2.088,3.745,5.958,5.958,0,0,0,2.685.762A7.484,7.484,0,0,1,21.169,70a6.786,6.786,0,0,1,3.015,3.442l.278.586a24.09,24.09,0,0,0,2.1,3.743,18.7,18.7,0,0,0,3.476,3.652,17.456,17.456,0,0,0,2,1.388l.191.113a2,2,0,0,1,1.258,1.684.865.865,0,0,1-.425.743,1.523,1.523,0,0,1-.837.251,3.814,3.814,0,0,1-1.957-.86l-.225-.152a21.939,21.939,0,0,1-2.726-2.137,21.181,21.181,0,0,1-4.083-5.161,16.155,16.155,0,0,1-.74-1.59,8.157,8.157,0,0,0-1.837-3.048,4.18,4.18,0,0,0-2.418-.767c-.158-.017-.319-.034-.473-.054a7.1,7.1,0,0,1-2.6-.761c-3.32-1.845-4.26-6.308-3.472-9.762a10.307,10.307,0,0,1,.552-1.695,1.644,1.644,0,0,1-.269.022,2.078,2.078,0,0,1-1.657-.9,1.561,1.561,0,0,1-.2-1.481c.028-.072.06-.141.091-.208l.034-.074a4.24,4.24,0,0,1-1.762-2.411,3.824,3.824,0,0,1-.1-1.64,2.673,2.673,0,0,1-.931-1.078,3.29,3.29,0,0,1-1.584-1.406,2.556,2.556,0,0,1-.054-2.461c-.051-.093-.1-.19-.149-.287A4.43,4.43,0,0,1,3.5,43.738a4.038,4.038,0,0,1,.375-1.465c-.019-.058-.036-.116-.05-.168a4.439,4.439,0,0,1-2.388-2.768,3.95,3.95,0,0,1,.841-3.492A3.35,3.35,0,0,1,.858,32.07a4.709,4.709,0,0,1,.973-1.926.379.379,0,0,0-.01-.051l-.106-.083C.053,28.7-.4,27.257.357,25.725a3.831,3.831,0,0,1,1.6-1.694l.033-.1a4.652,4.652,0,0,1-.3-3.283,3.893,3.893,0,0,1,1.684-2.24,4.667,4.667,0,0,1,.04-1.389,3.528,3.528,0,0,1,1.171-2.1c.022-.105.05-.213.084-.328A5.864,5.864,0,0,1,5.7,12.666a1.613,1.613,0,0,1,1.284-.624,4.629,4.629,0,0,1,.074-1.248A4.283,4.283,0,0,1,9.367,7.715a2.92,2.92,0,0,1,1.207-.256,3.169,3.169,0,0,1,.339.018,3.034,3.034,0,0,1,2.326-1.723,4.225,4.225,0,0,1,.583-.042,3.707,3.707,0,0,1,.548.04,6.551,6.551,0,0,1,.614-.249c.141-.05.287-.1.427-.14A4.479,4.479,0,0,1,17.271,4a3.469,3.469,0,0,1,1.265-.24,3.61,3.61,0,0,1,1.235.221l.246-.052A3.124,3.124,0,0,1,22.674,2.42a3.739,3.739,0,0,1,2.3.865.033.033,0,0,0,.014,0,2.44,2.44,0,0,1,2.335-1.628l.123,0a3.088,3.088,0,0,1,2.048.979c.317-.04.649-.077.917-.106A8.028,8.028,0,0,1,31.5,1.476a1.488,1.488,0,0,1,.928-.351,1.242,1.242,0,0,1,1.054.607c.1.152.193.308.284.459l.015.025.44-.03a2.777,2.777,0,0,1,2.2-1.211l.1,0a2.348,2.348,0,0,1,1.9,1.009c.5-.011.849-.018,1.182-.023A7.239,7.239,0,0,1,41.219.568,1.18,1.18,0,0,1,41.848.4a1.3,1.3,0,0,1,.926.373,10.3,10.3,0,0,1,.724.843A3.968,3.968,0,0,1,45.689.373,1.06,1.06,0,0,1,46.5,0a1.57,1.57,0,0,1,1.046.455,3.73,3.73,0,0,1,.939.427A10.592,10.592,0,0,1,49.833.806c.214,0,.441,0,.693.013a3.553,3.553,0,0,1,.518-.238A4.026,4.026,0,0,1,52.428.325a3.742,3.742,0,0,1,2.11.67,2.369,2.369,0,0,1,1.67-.686c.049,0,.1,0,.15,0a2.287,2.287,0,0,1,1.57.775A2.492,2.492,0,0,1,59.834.012C59.922.006,60.011,0,60.1,0a4.809,4.809,0,0,1,2.931,1.112A2.762,2.762,0,0,1,65.119.139a3.388,3.388,0,0,1,.6-.053,3.5,3.5,0,0,1,1.016.149,4.435,4.435,0,0,1,1.919,1.193A4.023,4.023,0,0,1,71.426.146c.075,0,.15,0,.225.008a4.094,4.094,0,0,1,3.332,2.577,7.655,7.655,0,0,1,2.744,1.821c.029.03.058.062.086.094l.038.042a3.978,3.978,0,0,1,1.172.669,3.3,3.3,0,0,1,.992,3.577c.045.185.088.387.136.637a3.438,3.438,0,0,1,2.525,1.739,4.49,4.49,0,0,1-.206,4.4A5.875,5.875,0,0,1,81.2,17.128a3.613,3.613,0,0,1-.6,3.769,4.9,4.9,0,0,1-.783.952,3,3,0,0,1-1.433,3.331l-.1.251c-.017.042-.034.084-.052.125s-.023.086-.036.127l-.009.03a2.568,2.568,0,0,1-.481,1.339,10.4,10.4,0,0,1-.688.847,5.494,5.494,0,0,0-1.1,1.613l-.041.107a1.1,1.1,0,0,1-.979.709.794.794,0,0,1-.236-.035,48.324,48.324,0,0,1,3.144,8.566A86.265,86.265,0,0,1,79.678,47.8c.446,2.776.821,5.7,1.145,8.95l.293,2.982c.246,2.533.487,5.235.488,7.969A26.814,26.814,0,0,1,76.2,84.287a24.9,24.9,0,0,1-14.016,9.1A27.085,27.085,0,0,1,56.093,94.072ZM17.721,27.43a.576.576,0,0,0-.562.389,2.054,2.054,0,0,0,1.087,2.625.762.762,0,0,0,.3.066.541.541,0,0,0,.481-.271.622.622,0,0,0,.044-.489.463.463,0,0,0-.248-.295.942.942,0,0,1-.578-1.284l.016-.048a.475.475,0,0,0-.043-.456A.609.609,0,0,0,17.721,27.43ZM8.293,25.273h0a.57.57,0,0,0-.379.15,2.041,2.041,0,0,0-.8,1.778A2.3,2.3,0,0,0,8.359,28.8a.555.555,0,0,0,.289.086.594.594,0,0,0,.538-.449.532.532,0,0,0-.25-.626l-.071-.043a1.138,1.138,0,0,1-.619-.713c-.049-.354.267-.633.475-.817a.483.483,0,0,0,.152-.553.644.644,0,0,0-.582-.406Zm3.333-8.781a.515.515,0,0,0-.3.105,2.155,2.155,0,0,0-1.04,1.61,2.349,2.349,0,0,0,.76,1.761.519.519,0,0,0,.38.176.619.619,0,0,0,.542-.381.538.538,0,0,0-.113-.6,1.206,1.206,0,0,1-.4-.89.928.928,0,0,1,.413-.655l.039-.028a.591.591,0,0,0,.219-.68.55.55,0,0,0-.5-.414Zm10.619,49a1.285,1.285,0,0,1-1.041-.524c-.158-.209-.31-.42-.456-.625A10.086,10.086,0,0,0,19.5,62.821a7.172,7.172,0,0,0-.7-.562,3.436,3.436,0,0,1-1.2-1.227.053.053,0,0,1,.019-.073,1.642,1.642,0,0,1,.822-.2,5.11,5.11,0,0,1,2.128.677,6.953,6.953,0,0,1,2.736,2.308,1.056,1.056,0,0,1,.094,1.112A1.331,1.331,0,0,1,22.244,65.5Z" transform="translate(0 0)"/>
    </g>
    <g id="FACE" transform="translate(86.198 46.968)">
      <path id="_Ink-3" data-name="ðŸ– Ink" d="M20.117,38.193A2.555,2.555,0,0,1,17.7,35.612,4.543,4.543,0,0,1,19.4,32.367a9.93,9.93,0,0,1,2.582-1.819,5.965,5.965,0,0,1,1.322-.47,4.238,4.238,0,0,1,.67-.068,3.608,3.608,0,0,0,.767-.092.134.134,0,0,1,.035,0,.154.154,0,0,1,.139.1.125.125,0,0,1-.034.143,4,4,0,0,0-.747,1.1c-.107.2-.208.386-.314.551-.293.452-.6.942-.886,1.462a16.53,16.53,0,0,0-.843,1.726l-.047.12c.05.12.094.241.129.338l.04.111.012.032a1.644,1.644,0,0,1-.084,1.333,2.272,2.272,0,0,1-1.332,1.162A2.4,2.4,0,0,1,20.117,38.193Zm1.509-3.667h0a.779.779,0,0,1,.312.359A.572.572,0,0,0,21.626,34.526Zm1.108-9.68h0a8.937,8.937,0,0,1-5.166-2.064,1.136,1.136,0,0,1-.335-1.316,1.382,1.382,0,0,1,1.2-.966,1.038,1.038,0,0,1,.566.174l.187.144c.974.753,2.44,1.887,3.847,1.887a2.293,2.293,0,0,0,1.709-.758,2.529,2.529,0,0,0,.48-2.036C24.9,18.33,23.18,17.176,22.66,16.86a.479.479,0,0,1-.13-.551.713.713,0,0,1,.694-.493.971.971,0,0,1,.163.014,4.578,4.578,0,0,1,3.047,1.788,4.49,4.49,0,0,1,.782,3,4.79,4.79,0,0,1-1.3,2.926A4.314,4.314,0,0,1,22.734,24.846ZM7.975,14.017a1.43,1.43,0,0,1-1.09-.446,2.367,2.367,0,0,1-.669-1.526,2.029,2.029,0,0,1,.053-.469l-.673.012c-.4.006-.738.009-1.051.009a23.852,23.852,0,0,1-3.872-.257.454.454,0,0,1-.091.009.645.645,0,0,1-.57-.549.594.594,0,0,1,.409-.69A26.163,26.163,0,0,1,7.086,8.786l.2-.022c1.081-.119,2.185-.207,3.252-.291l.288-.023.255-.021.366-.034c.525-.049,1.069-.1,1.6-.1a5.963,5.963,0,0,1,1.342.137A1.341,1.341,0,0,1,15.442,9.76a1.527,1.527,0,0,1-1.056,1.529,7.411,7.411,0,0,1-2.046.229c-.258,0-.52-.006-.774-.011s-.513-.012-.764-.012h-.166l-.386.006-.195,0a2.913,2.913,0,0,1-.421,1.256,6.367,6.367,0,0,1-.587.809A1.385,1.385,0,0,1,7.975,14.017ZM30,12.713a1.556,1.556,0,0,1-1.227-.636,1.261,1.261,0,0,1-.205-1.147l.015-.043c.032-.09.061-.184.093-.284s.056-.177.086-.265l-.34-.029c-1.189-.105-2.452-.316-2.808-1.078a.59.59,0,0,1,.088-.675c.624-.743,2.046-.858,3.085-.942.149-.012.291-.024.421-.036l.059-.006c.274-.028.558-.061.833-.092a23.858,23.858,0,0,1,2.677-.205,9.024,9.024,0,0,1,.923.044,1.663,1.663,0,0,1,0,3.323,9.1,9.1,0,0,1-.927.044c-.44,0-.918-.025-1.5-.079a1.523,1.523,0,0,1-.03,1.372,1.407,1.407,0,0,1-1.062.723A1.331,1.331,0,0,1,30,12.713ZM2.977,5.726a6,6,0,0,1-2.05-.285l0-.006a.318.318,0,0,1-.079-.571,8.154,8.154,0,0,1,2.6-1.027c.2-.055.4-.107.587-.162,1.005-.29,2.054-.57,3.206-.856.414-.1.838-.205,1.248-.3A52.157,52.157,0,0,0,14.021.962a1.461,1.461,0,0,1,.5-.089,1.866,1.866,0,0,1,1.742,1.583,1.688,1.688,0,0,1-.315,1.281,2.061,2.061,0,0,1-1.4.748l-.053.006c-1.172.129-2.36.316-3.508.5-1.108.174-2.254.355-3.386.483-1.074.122-2.136.2-3.157.226l-.754.017C3.485,5.72,3.227,5.726,2.977,5.726ZM30.1,4.031c-.463,0-.93-.01-1.387-.028l-.453-.02c-.15-.006-.307-.01-.47-.015-1.412-.04-3.167-.091-3.925-1.032a2.021,2.021,0,0,1-.308-1.707A1.576,1.576,0,0,1,25.184,0a1.753,1.753,0,0,1,1.441.68c.312.108.723.219,1.086.318.2.055.4.107.553.154.738.219,1.525.451,2.308.674C31.786,2.172,33,2.6,34.169,3c.37.129.751.262,1.127.391a.136.136,0,0,1,.1.144.157.157,0,0,1-.139.137A39.686,39.686,0,0,1,30.1,4.031Z" transform="translate(0 0)"/>
    </g>
    <g id="FACIAL_HAIR" data-name="FACIAL HAIR" transform="translate(68.461 60.133)">
      <path id="_Ink-4" data-name="ðŸ– Ink" d="M36.6,52.294h0a46.445,46.445,0,0,1-8.484-.8,46.974,46.974,0,0,1-8.17-2.293,32.979,32.979,0,0,1-12.972-8.47,13.4,13.4,0,0,1-4.555-5.14A21.525,21.525,0,0,1,.382,28.835,61.574,61.574,0,0,1,.51,14.384c.108-.96.191-1.959.271-2.925.291-3.51.592-7.14,2.15-10.266A1,1,0,0,1,3.173.384,1.069,1.069,0,0,1,3.951,0a.755.755,0,0,1,.7.5c2.146,4.848,4.365,9.86,7.854,14a17.8,17.8,0,0,0,4.579,4.213,11.331,11.331,0,0,0,5.8,2.081,4.271,4.271,0,0,0,2.881-1,6.147,6.147,0,0,0,1.8-3.412c.9-1.984,2.767-3.512,5.551-4.541a23.585,23.585,0,0,1,7.946-1.295,22.719,22.719,0,0,1,3.621.274c3.244.832,4.185,2.882,5.015,4.69s1.544,3.363,4.267,3.363a8.525,8.525,0,0,0,.879-.049.69.69,0,0,0,.192.027l.049,0a7,7,0,0,0,.718-1.382c.084-.2.164-.379.247-.555-.009-.048-.02-.1-.031-.144a2.134,2.134,0,0,1-.05-.279,1.438,1.438,0,0,1,1.2-.687,1.683,1.683,0,0,1,.594.116,1.015,1.015,0,0,1,.071.209,64.275,64.275,0,0,1,1.531,15.1,37.155,37.155,0,0,1-3.18,14.7,23.39,23.39,0,0,1-8.806,4.836A36.291,36.291,0,0,1,36.6,52.294Zm4.048-35.542c-2.388,0-5.449.689-6.875,2.623a4.364,4.364,0,0,0-.5,4.068,3.257,3.257,0,0,0,2.5,2.059,1.568,1.568,0,0,0,.485-.077c.6-.2.928-.888,1.242-1.558a4.568,4.568,0,0,1,.61-1.061,2.747,2.747,0,0,1,1.925-.937c1.261,0,2.354,1.127,3.411,2.216.341.351.662.683.982.968a1.346,1.346,0,0,0,.748.254,1.231,1.231,0,0,0,.889-.424,2.711,2.711,0,0,0,.675-1.863,8.606,8.606,0,0,0-1.094-3.358A5.781,5.781,0,0,0,43.087,17,11.443,11.443,0,0,0,40.649,16.752Z" transform="translate(0 0)"/>
    </g>
  </g>
</svg>
