<svg xmlns="http://www.w3.org/2000/svg" width="25.626" height="22.735" viewBox="0 0 25.626 22.735">
  <g id="shopping-cart" transform="translate(0)">
    <path id="Path_497" data-name="Path 497" d="M93.818,96.059h-14.6a.733.733,0,0,1-.753-.6L75.525,83.11a.585.585,0,0,1,.151-.6.929.929,0,0,1,.6-.3H96.453a.685.685,0,0,1,.6.3.722.722,0,0,1,.151.678l-2.635,12.2A.8.8,0,0,1,93.818,96.059Zm-14-1.581h13.4l2.258-10.765H77.256Z" transform="translate(-71.61 -79.422)"/>
    <path id="Path_498" data-name="Path 498" d="M4.668,32.372a.733.733,0,0,1-.753-.6l-.6-2.183H.753A.754.754,0,0,1,0,28.834a.81.81,0,0,1,.753-.753H3.915a.733.733,0,0,1,.753.6l.753,2.785a.818.818,0,0,1-.527.9Z" transform="translate(0 -28.081)"/>
    <path id="Path_499" data-name="Path 499" d="M65.858,326.072H49.521a2.71,2.71,0,1,1,0-5.42H65.858a.754.754,0,0,1,.753.753.81.81,0,0,1-.753.753H49.521a1.2,1.2,0,1,0,0,2.409H65.858a.754.754,0,0,1,.753.753C66.686,325.771,66.309,326.072,65.858,326.072Z" transform="translate(-44.402 -305.595)"/>
    <path id="Path_592" data-name="Path 592" d="M2.183,0A2.183,2.183,0,1,0,4.366,2.183,2.183,2.183,0,0,0,2.183,0Z" transform="translate(17.541 17.616)" fill="#fff"/>
    <ellipse id="Ellipse_56" data-name="Ellipse 56" cx="0.753" cy="0.753" rx="0.753" ry="0.753" transform="translate(18.971 19.047)" fill="#1f1f1f"/>
    <path id="Path_500" data-name="Path 500" d="M327.766,358.859a3.011,3.011,0,1,1,3.011-3.011A3.02,3.02,0,0,1,327.766,358.859Zm0-4.366a1.43,1.43,0,1,0,0,2.861,1.481,1.481,0,0,0,1.43-1.43A1.429,1.429,0,0,0,327.766,354.492Z" transform="translate(-308.042 -336.123)"/>
    <ellipse id="Ellipse_57" data-name="Ellipse 57" cx="2.183" cy="2.183" rx="2.183" ry="2.183" transform="translate(5.571 17.616)" fill="#fff"/>
    <ellipse id="Ellipse_58" data-name="Ellipse 58" cx="0.753" cy="0.753" rx="0.753" ry="0.753" transform="translate(7.001 19.047)" fill="#1f1f1f"/>
    <path id="Path_501" data-name="Path 501" d="M95.171,358.859a3.011,3.011,0,1,1,3.011-3.011A3.02,3.02,0,0,1,95.171,358.859Zm0-4.366a1.43,1.43,0,0,0,0,2.861,1.481,1.481,0,0,0,1.43-1.43A1.384,1.384,0,0,0,95.171,354.492Z" transform="translate(-87.417 -336.123)"/>
    <path id="Path_502" data-name="Path 502" d="M205.553,156.908a.754.754,0,0,1-.753-.753v-4.442a.753.753,0,0,1,1.506,0v4.442A.711.711,0,0,1,205.553,156.908Z" transform="translate(-194.26 -144.637)"/>
    <path id="Path_503" data-name="Path 503" d="M272.844,156.908a.754.754,0,0,1-.753-.753v-4.442a.753.753,0,0,1,1.506,0v4.442A.711.711,0,0,1,272.844,156.908Z" transform="translate(-258.088 -144.637)"/>
    <path id="Path_504" data-name="Path 504" d="M340.135,156.908a.754.754,0,0,1-.753-.753v-4.442a.753.753,0,0,1,1.506,0v4.442A.711.711,0,0,1,340.135,156.908Z" transform="translate(-321.916 -144.637)"/>
  </g>
</svg>
