<svg xmlns="http://www.w3.org/2000/svg" width="22.804" height="21.592" viewBox="0 0 22.804 21.592">
  <g id="outline" transform="translate(-0.098 0.54)" fill="#ffc700" stroke-miterlimit="10">
    <path d="M 16.87675094604492 20.05213737487793 C 16.58381080627441 20.05213737487793 16.29224014282227 19.9747371673584 16.03355026245117 19.82829666137695 L 11.5 17.26191711425781 L 6.966450214385986 19.82829666137695 C 6.707778930664063 19.97472190856934 6.416226863861084 20.05213737487793 6.123366832733154 20.05213737487793 C 6.12327766418457 20.05213737487793 6.123229503631592 20.05213737487793 6.12313985824585 20.05213737487793 C 5.6109299659729 20.05207633972168 5.11269998550415 19.81328582763672 4.790359973907471 19.41335678100586 C 4.471829891204834 19.01815605163574 4.351230144500732 18.50571632385254 4.459469795227051 18.0074462890625 L 5.543322563171387 13.01840972900391 L 1.668980002403259 9.602346420288086 C 1.159700036048889 9.15330696105957 0.9715399742126465 8.474327087402344 1.177919983863831 7.830356597900391 C 1.383049964904785 7.190296649932861 1.950799942016602 6.732036590576172 2.624330043792725 6.662866592407227 L 7.826367855072021 6.128660202026367 L 9.948470115661621 1.454796671867371 C 10.22700977325439 0.8413267135620117 10.82151985168457 0.4602267146110535 11.5 0.4602267146110535 C 12.17846965789795 0.4602267146110535 12.77297973632813 0.8413166999816895 13.05152988433838 1.454786777496338 L 15.17363262176514 6.128660202026367 L 20.37566947937012 6.662866592407227 C 21.0492000579834 6.732036590576172 21.6169490814209 7.190296649932861 21.82208061218262 7.830356597900391 C 22.0284595489502 8.474316596984863 21.84029960632324 9.15330696105957 21.33102035522461 9.602346420288086 L 17.45666885375977 13.01840972900391 L 18.54052925109863 18.00743675231934 C 18.64879035949707 18.50578689575195 18.52816009521484 19.01825714111328 18.20959091186523 19.41347694396973 C 17.88722038269043 19.81338691711426 17.38896942138672 20.05213737487793 16.87675094604492 20.05213737487793 Z" stroke="none"/>
    <path d="M 16.87674903869629 19.05213928222656 C 17.29378318786621 19.05213928222656 17.66227912902832 18.67526626586914 17.56332015991211 18.21973609924316 L 16.35477066040039 12.65676689147949 L 20.66967010498047 8.852266311645508 C 21.12137031555176 8.453996658325195 20.87787055969238 7.719696521759033 20.27351951599121 7.657636642456055 L 14.50041961669922 7.064786911010742 L 12.14099025726318 1.868216753005981 C 12.01749038696289 1.596221685409546 11.7587423324585 1.460224270820618 11.49999618530273 1.460224270820618 C 11.24125003814697 1.460224270820618 10.98250484466553 1.596221685409546 10.85900974273682 1.868216753005981 L 8.499580383300781 7.064786911010742 L 2.726480007171631 7.657636642456055 C 2.122139930725098 7.719696521759033 1.878630042076111 8.453996658325195 2.330329895019531 8.852266311645508 L 6.645219802856445 12.65676689147949 L 5.436679840087891 18.21973609924316 C 5.337728023529053 18.67523002624512 5.706256866455078 19.05209159851074 6.123250007629395 19.05213928222656 C 6.239383697509766 19.05215263366699 6.359204292297363 19.0229377746582 6.473820209503174 18.95805740356445 L 11.5 16.11280632019043 L 16.52618026733398 18.95805740356445 C 16.6407642364502 19.02292060852051 16.76064682006836 19.05213928222656 16.87674903869629 19.05213928222656 M 16.87675094604492 21.05213737487793 C 16.41150093078613 21.05213737487793 15.94958972930908 20.92986679077148 15.540940284729 20.69854736328125 L 11.5 18.4110279083252 L 7.459080219268799 20.69853591918945 C 7.050389766693115 20.92987632751465 6.588520050048828 21.05213737487793 6.123370170593262 21.05213737487793 C 5.299230098724365 21.05205726623535 4.529699802398682 20.6834774017334 4.011789798736572 20.04091644287109 C 3.502490043640137 19.40903663635254 3.309489965438843 18.59048652648926 3.482270002365112 17.795166015625 L 4.441437721252441 13.38005352020264 L 1.007629990577698 10.3524169921875 C 0.208079993724823 9.647446632385254 -0.09887000173330307 8.537686347961426 0.2256300002336502 7.525166511535645 C 0.5520099997520447 6.506786823272705 1.453449964523315 5.777846813201904 2.522170066833496 5.668096542358398 L 7.15315580368042 5.192532539367676 L 9.037929534912109 1.041376709938049 C 9.474069595336914 0.08084671944379807 10.44048023223877 -0.5397732853889465 11.5 -0.5397732853889465 C 12.55951976776123 -0.5397732853889465 13.52593040466309 0.08084671944379807 13.96205997467041 1.041346669197083 L 15.84684467315674 5.192532539367676 L 20.47783088684082 5.668096542358398 C 21.54655075073242 5.777846813201904 22.44799041748047 6.506786823272705 22.77437019348145 7.525156497955322 C 23.09886932373047 8.537686347961426 22.79191970825195 9.647446632385254 21.99237060546875 10.3524169921875 L 18.55855560302734 13.38005352020264 L 19.51773071289063 17.79514694213867 C 19.69053077697754 18.59055709838867 19.49749946594238 19.40915679931641 18.98814010620117 20.04104614257813 C 18.47018051147461 20.68360710144043 17.70060920715332 21.05213737487793 16.87675094604492 21.05213737487793 Z" stroke="none" fill="#18191f"/>
  </g>
</svg>
