<svg xmlns="http://www.w3.org/2000/svg" width="23.536" height="14.196" viewBox="0 0 23.536 14.196">
  <g id="delivery-truck" transform="translate(0.25 0.25)">
    <g id="Group_11277" data-name="Group 11277">
      <g id="Group_11276" data-name="Group 11276">
        <path id="Path_2431" data-name="Path 2431" d="M.36,112.123a.36.36,0,0,1,.36.36v2.522h.573a2.275,2.275,0,0,1,4.521,0h7.5V104.567H.72V105.7a.36.36,0,1,1-.72,0v-1.492a.36.36,0,0,1,.36-.36H13.678a.36.36,0,0,1,.36.36v.36H18.16A1.639,1.639,0,0,1,19.8,106.2v.523a.36.36,0,0,1-.36.36h-.419l.275,3.3a1.636,1.636,0,0,1,1.224,1.578v3.042a.36.36,0,0,1-.36.36h-.729a2.337,2.337,0,0,1-4.661,0l-.009,0h-.72a.36.36,0,0,1-.36.36h-7.9a2.276,2.276,0,0,1-4.455,0H.36a.36.36,0,0,1-.36-.36v-2.884A.36.36,0,0,1,.36,112.123ZM17.1,116.8a1.62,1.62,0,1,0-1.62-1.62A1.62,1.62,0,0,0,17.1,116.8Zm-3.06-2.16h.72a.33.33,0,0,1,.062.013,2.337,2.337,0,0,1,4.551-.013H19.8v-2.682a.918.918,0,0,0-.917-.917H14.038Zm0-4.319h4.528l-.27-3.239H14.038Zm0-3.959h5.039V106.2a.918.918,0,0,0-.917-.917H14.038ZM2,115.351a1.553,1.553,0,0,0,1.553,1.466h0a1.555,1.555,0,0,0,1.529-1.29.324.324,0,0,1,.018-.35,1.553,1.553,0,1,0-3.1.174Z" transform="translate(2.52 -103.847)" stroke="#1f1f1f" stroke-width="0.5"/>
        <path id="Path_2432" data-name="Path 2432" d="M320.36,167.847H325.4a.36.36,0,0,1,0,.72H320.36a.36.36,0,0,1,0-.72Z" transform="translate(-317.12 -164.967)" stroke="#1f1f1f" stroke-width="0.5"/>
        <path id="Path_2433" data-name="Path 2433" d="M272.36,255.847h7.919a.36.36,0,0,1,0,.72H272.36a.36.36,0,0,1,0-.72Z" transform="translate(-269.84 -249.008)" stroke="#1f1f1f" stroke-width="0.5"/>
        <path id="Path_2434" data-name="Path 2434" d="M344.36,207.847h3.959a.36.36,0,1,1,0,.72H344.36a.36.36,0,0,1,0-.72Z" transform="translate(-341.12 -203.168)" stroke="#1f1f1f" stroke-width="0.5"/>
        <path id="Path_2435" data-name="Path 2435" d="M465.08,168.567h-.72a.36.36,0,0,1,0-.72h.72a.36.36,0,0,1,0,.72Z" transform="translate(-463.28 -164.967)" stroke="#1f1f1f" stroke-width="0.5"/>
        <path id="Path_2436" data-name="Path 2436" d="M472.36,255.847h.72a.36.36,0,1,1,0,.72h-.72a.36.36,0,1,1,0-.72Z" transform="translate(-471.64 -249.008)" stroke="#1f1f1f" stroke-width="0.5"/>
        <path id="Path_2437" data-name="Path 2437" d="M464.36,207.847h1.44a.36.36,0,1,1,0,.72h-1.44a.36.36,0,0,1,0-.72Z" transform="translate(-464 -203.168)" stroke="#1f1f1f" stroke-width="0.5"/>
      </g>
    </g>
  </g>
</svg>
