<svg id="feather_instagram_copy_2" data-name="feather / instagram copy 2" xmlns="http://www.w3.org/2000/svg" xmlns:xlink="http://www.w3.org/1999/xlink" width="24" height="24" viewBox="0 0 24 24">
  <defs>
    <clipPath id="clip-path">
      <path id="Path" d="M22,.01a10.9,10.9,0,0,1-3.14,1.53,4.48,4.48,0,0,0-7.86,3v1A10.66,10.66,0,0,1,5.931,4.405,10.056,10.056,0,0,1,2,1.01s-4,9,5,13a11.639,11.639,0,0,1-7,2c9,5,20,0,20-11.5a4.5,4.5,0,0,0-.08-.83A7.72,7.72,0,0,0,22,.01Z" transform="translate(1 3.99)" fill="#18191f"/>
    </clipPath>
  </defs>
  <g id="Group_47" data-name="Group 47">
    <path id="Path-2" data-name="Path" d="M22,.01a10.9,10.9,0,0,1-3.14,1.53,4.48,4.48,0,0,0-7.86,3v1A10.66,10.66,0,0,1,5.931,4.405,10.056,10.056,0,0,1,2,1.01s-4,9,5,13a11.639,11.639,0,0,1-7,2c9,5,20,0,20-11.5a4.5,4.5,0,0,0-.08-.83A7.72,7.72,0,0,0,22,.01Z" transform="translate(1 3.99)" fill="#18191f"/>
    <g id="Mask_Group_47" data-name="Mask Group 47" clip-path="url(#clip-path)">
      <g id="COLOR_black" data-name="COLOR/ black">
        <rect id="Rectangle" width="24" height="24" fill="#18191f"/>
      </g>
    </g>
  </g>
</svg>
